%TF.GenerationSoftware,KiCad,Pcbnew,(6.0.7)*%
%TF.CreationDate,2022-09-15T11:51:49+02:00*%
%TF.ProjectId,rp2040-keypad,72703230-3430-42d6-9b65-797061642e6b,rev?*%
%TF.SameCoordinates,Original*%
%TF.FileFunction,Legend,Bot*%
%TF.FilePolarity,Positive*%
%FSLAX46Y46*%
G04 Gerber Fmt 4.6, Leading zero omitted, Abs format (unit mm)*
G04 Created by KiCad (PCBNEW (6.0.7)) date 2022-09-15 11:51:49*
%MOMM*%
%LPD*%
G01*
G04 APERTURE LIST*
%ADD10C,0.100000*%
G04 APERTURE END LIST*
D10*
X151019047Y-61950000D02*
X150971428Y-61926190D01*
X150900000Y-61926190D01*
X150828571Y-61950000D01*
X150780952Y-61997619D01*
X150757142Y-62045238D01*
X150733333Y-62140476D01*
X150733333Y-62211904D01*
X150757142Y-62307142D01*
X150780952Y-62354761D01*
X150828571Y-62402380D01*
X150900000Y-62426190D01*
X150947619Y-62426190D01*
X151019047Y-62402380D01*
X151042857Y-62378571D01*
X151042857Y-62211904D01*
X150947619Y-62211904D01*
X151257142Y-62426190D02*
X151257142Y-61926190D01*
X151542857Y-62426190D01*
X151542857Y-61926190D01*
X151780952Y-62426190D02*
X151780952Y-61926190D01*
X151900000Y-61926190D01*
X151971428Y-61950000D01*
X152019047Y-61997619D01*
X152042857Y-62045238D01*
X152066666Y-62140476D01*
X152066666Y-62211904D01*
X152042857Y-62307142D01*
X152019047Y-62354761D01*
X151971428Y-62402380D01*
X151900000Y-62426190D01*
X151780952Y-62426190D01*
X147046428Y-62352380D02*
X147117857Y-62376190D01*
X147236904Y-62376190D01*
X147284523Y-62352380D01*
X147308333Y-62328571D01*
X147332142Y-62280952D01*
X147332142Y-62233333D01*
X147308333Y-62185714D01*
X147284523Y-62161904D01*
X147236904Y-62138095D01*
X147141666Y-62114285D01*
X147094047Y-62090476D01*
X147070238Y-62066666D01*
X147046428Y-62019047D01*
X147046428Y-61971428D01*
X147070238Y-61923809D01*
X147094047Y-61900000D01*
X147141666Y-61876190D01*
X147260714Y-61876190D01*
X147332142Y-61900000D01*
X147498809Y-61876190D02*
X147617857Y-62376190D01*
X147713095Y-62019047D01*
X147808333Y-62376190D01*
X147927380Y-61876190D01*
X148403571Y-62328571D02*
X148379761Y-62352380D01*
X148308333Y-62376190D01*
X148260714Y-62376190D01*
X148189285Y-62352380D01*
X148141666Y-62304761D01*
X148117857Y-62257142D01*
X148094047Y-62161904D01*
X148094047Y-62090476D01*
X148117857Y-61995238D01*
X148141666Y-61947619D01*
X148189285Y-61900000D01*
X148260714Y-61876190D01*
X148308333Y-61876190D01*
X148379761Y-61900000D01*
X148403571Y-61923809D01*
X148617857Y-62376190D02*
X148617857Y-61876190D01*
X148903571Y-62376190D02*
X148689285Y-62090476D01*
X148903571Y-61876190D02*
X148617857Y-62161904D01*
X143571428Y-62352380D02*
X143642857Y-62376190D01*
X143761904Y-62376190D01*
X143809523Y-62352380D01*
X143833333Y-62328571D01*
X143857142Y-62280952D01*
X143857142Y-62233333D01*
X143833333Y-62185714D01*
X143809523Y-62161904D01*
X143761904Y-62138095D01*
X143666666Y-62114285D01*
X143619047Y-62090476D01*
X143595238Y-62066666D01*
X143571428Y-62019047D01*
X143571428Y-61971428D01*
X143595238Y-61923809D01*
X143619047Y-61900000D01*
X143666666Y-61876190D01*
X143785714Y-61876190D01*
X143857142Y-61900000D01*
X144023809Y-61876190D02*
X144142857Y-62376190D01*
X144238095Y-62019047D01*
X144333333Y-62376190D01*
X144452380Y-61876190D01*
X144642857Y-62376190D02*
X144642857Y-61876190D01*
X144761904Y-61876190D01*
X144833333Y-61900000D01*
X144880952Y-61947619D01*
X144904761Y-61995238D01*
X144928571Y-62090476D01*
X144928571Y-62161904D01*
X144904761Y-62257142D01*
X144880952Y-62304761D01*
X144833333Y-62352380D01*
X144761904Y-62376190D01*
X144642857Y-62376190D01*
X139955952Y-61926190D02*
X140265476Y-61926190D01*
X140098809Y-62116666D01*
X140170238Y-62116666D01*
X140217857Y-62140476D01*
X140241666Y-62164285D01*
X140265476Y-62211904D01*
X140265476Y-62330952D01*
X140241666Y-62378571D01*
X140217857Y-62402380D01*
X140170238Y-62426190D01*
X140027380Y-62426190D01*
X139979761Y-62402380D01*
X139955952Y-62378571D01*
X140408333Y-61926190D02*
X140575000Y-62426190D01*
X140741666Y-61926190D01*
X140860714Y-61926190D02*
X141170238Y-61926190D01*
X141003571Y-62116666D01*
X141075000Y-62116666D01*
X141122619Y-62140476D01*
X141146428Y-62164285D01*
X141170238Y-62211904D01*
X141170238Y-62330952D01*
X141146428Y-62378571D01*
X141122619Y-62402380D01*
X141075000Y-62426190D01*
X140932142Y-62426190D01*
X140884523Y-62402380D01*
X140860714Y-62378571D01*
M02*
