%TF.GenerationSoftware,KiCad,Pcbnew,(6.0.7)*%
%TF.CreationDate,2022-09-14T15:08:01+02:00*%
%TF.ProjectId,rp2040-keypad,72703230-3430-42d6-9b65-797061642e6b,rev?*%
%TF.SameCoordinates,Original*%
%TF.FileFunction,Copper,L3,Inr*%
%TF.FilePolarity,Positive*%
%FSLAX46Y46*%
G04 Gerber Fmt 4.6, Leading zero omitted, Abs format (unit mm)*
G04 Created by KiCad (PCBNEW (6.0.7)) date 2022-09-14 15:08:01*
%MOMM*%
%LPD*%
G01*
G04 APERTURE LIST*
G04 Aperture macros list*
%AMRoundRect*
0 Rectangle with rounded corners*
0 $1 Rounding radius*
0 $2 $3 $4 $5 $6 $7 $8 $9 X,Y pos of 4 corners*
0 Add a 4 corners polygon primitive as box body*
4,1,4,$2,$3,$4,$5,$6,$7,$8,$9,$2,$3,0*
0 Add four circle primitives for the rounded corners*
1,1,$1+$1,$2,$3*
1,1,$1+$1,$4,$5*
1,1,$1+$1,$6,$7*
1,1,$1+$1,$8,$9*
0 Add four rect primitives between the rounded corners*
20,1,$1+$1,$2,$3,$4,$5,0*
20,1,$1+$1,$4,$5,$6,$7,0*
20,1,$1+$1,$6,$7,$8,$9,0*
20,1,$1+$1,$8,$9,$2,$3,0*%
G04 Aperture macros list end*
%TA.AperFunction,ComponentPad*%
%ADD10C,2.500000*%
%TD*%
%TA.AperFunction,ComponentPad*%
%ADD11O,1.000000X1.600000*%
%TD*%
%TA.AperFunction,ComponentPad*%
%ADD12O,1.000000X2.100000*%
%TD*%
%TA.AperFunction,ComponentPad*%
%ADD13RoundRect,0.250000X-0.550000X-0.550000X0.550000X-0.550000X0.550000X0.550000X-0.550000X0.550000X0*%
%TD*%
%TA.AperFunction,ComponentPad*%
%ADD14C,1.600000*%
%TD*%
%TA.AperFunction,ViaPad*%
%ADD15C,0.700000*%
%TD*%
%TA.AperFunction,ViaPad*%
%ADD16C,0.500000*%
%TD*%
%TA.AperFunction,ViaPad*%
%ADD17C,0.800000*%
%TD*%
G04 APERTURE END LIST*
D10*
%TO.N,/KEY2*%
%TO.C,SW2*%
X145890000Y-88360000D03*
%TO.N,GND*%
X152240000Y-85820000D03*
%TD*%
D11*
%TO.N,unconnected-(J1-PadS1)*%
%TO.C,J1*%
X155180000Y-60950000D03*
D12*
X155180000Y-65130000D03*
D11*
X163820000Y-60950000D03*
D12*
X163820000Y-65130000D03*
%TD*%
D13*
%TO.N,+3V3*%
%TO.C,J2*%
X140600000Y-64000000D03*
D14*
%TO.N,/SWD*%
X144200000Y-64000000D03*
%TO.N,/SWCLK*%
X147800000Y-64000000D03*
%TO.N,GND*%
X151400000Y-64000000D03*
%TD*%
D10*
%TO.N,/KEY1*%
%TO.C,SW1*%
X164940000Y-88360000D03*
%TO.N,GND*%
X171290000Y-85820000D03*
%TD*%
D15*
%TO.N,+3V3*%
X162600000Y-72800000D03*
X153000000Y-69800000D03*
X174550000Y-60450000D03*
D16*
X159200000Y-75400000D03*
D17*
X170250000Y-68650000D03*
D16*
X161500000Y-78300000D03*
X161200000Y-75400000D03*
D15*
X152800000Y-79400000D03*
D16*
X158800000Y-80200000D03*
X156445027Y-75400000D03*
%TO.N,GND*%
X153800000Y-77000000D03*
D15*
X165700000Y-64300000D03*
X163800000Y-79000000D03*
X157700000Y-76600000D03*
X175400000Y-64000000D03*
X175750000Y-80275000D03*
X170550000Y-78500500D03*
X157700000Y-79000000D03*
D16*
X165800000Y-74000000D03*
D15*
X152400000Y-65800000D03*
X160200000Y-76600000D03*
X160200000Y-79000000D03*
X151400000Y-65800000D03*
D16*
X161400000Y-70800000D03*
D15*
X166150000Y-78600000D03*
X168500000Y-80700000D03*
X178100000Y-63650000D03*
D16*
X153800000Y-80800000D03*
X158000000Y-69400000D03*
X165800000Y-72800000D03*
D15*
X145400000Y-77600000D03*
X175750000Y-78600000D03*
X163600000Y-67000000D03*
D16*
X165800000Y-77600000D03*
D15*
X175750000Y-82475000D03*
X142600000Y-73600000D03*
X170150000Y-79800000D03*
X158900000Y-77700000D03*
X155200000Y-70800000D03*
X168100000Y-63450000D03*
D16*
X165800000Y-75200000D03*
D15*
X172950000Y-78600000D03*
X173900000Y-82800000D03*
X155400000Y-67000000D03*
D16*
X165800000Y-76400000D03*
D15*
X157800000Y-80200000D03*
D16*
X156800000Y-69400000D03*
D15*
X168350000Y-78600000D03*
D16*
%TO.N,+1V1*%
X158400000Y-75400000D03*
X159800000Y-79849502D03*
X160400000Y-75400000D03*
%TO.N,/SWD*%
X161174930Y-80350500D03*
%TO.N,/SWCLK*%
X160605754Y-79846031D03*
%TO.N,/QSPI_SS*%
X149400000Y-74000000D03*
X149400000Y-75200000D03*
%TO.N,/KEY1*%
X156700000Y-78000000D03*
%TO.N,/QSPI_SD1*%
X157400000Y-75400000D03*
X145800000Y-71200000D03*
%TD*%
%TA.AperFunction,Conductor*%
%TO.N,+3V3*%
G36*
X181075421Y-58278502D02*
G01*
X181121914Y-58332158D01*
X181132018Y-58402432D01*
X181102524Y-58467012D01*
X181036714Y-58507019D01*
X181001409Y-58515495D01*
X180996838Y-58517388D01*
X180996836Y-58517389D01*
X180772072Y-58610489D01*
X180772068Y-58610491D01*
X180767498Y-58612384D01*
X180551624Y-58744672D01*
X180359102Y-58909102D01*
X180194672Y-59101624D01*
X180062384Y-59317498D01*
X180060491Y-59322068D01*
X180060489Y-59322072D01*
X179967389Y-59546836D01*
X179965495Y-59551409D01*
X179964340Y-59556221D01*
X179921407Y-59735052D01*
X179906391Y-59797597D01*
X179886526Y-60050000D01*
X179906391Y-60302403D01*
X179907545Y-60307210D01*
X179907546Y-60307216D01*
X179937849Y-60433436D01*
X179965495Y-60548591D01*
X179967388Y-60553162D01*
X179967389Y-60553164D01*
X179988162Y-60603313D01*
X180062384Y-60782502D01*
X180194672Y-60998376D01*
X180359102Y-61190898D01*
X180551624Y-61355328D01*
X180767498Y-61487616D01*
X180772068Y-61489509D01*
X180772072Y-61489511D01*
X180996836Y-61582611D01*
X181001409Y-61584505D01*
X181086032Y-61604821D01*
X181242784Y-61642454D01*
X181242790Y-61642455D01*
X181247597Y-61643609D01*
X181347416Y-61651465D01*
X181434345Y-61658307D01*
X181434352Y-61658307D01*
X181436801Y-61658500D01*
X181563199Y-61658500D01*
X181565648Y-61658307D01*
X181565655Y-61658307D01*
X181652584Y-61651465D01*
X181752403Y-61643609D01*
X181757210Y-61642455D01*
X181757216Y-61642454D01*
X181913968Y-61604821D01*
X181998591Y-61584505D01*
X182003164Y-61582611D01*
X182227928Y-61489511D01*
X182227932Y-61489509D01*
X182232502Y-61487616D01*
X182448376Y-61355328D01*
X182640898Y-61190898D01*
X182805328Y-60998376D01*
X182937616Y-60782502D01*
X183011839Y-60603313D01*
X183032611Y-60553164D01*
X183032612Y-60553162D01*
X183034505Y-60548591D01*
X183042981Y-60513286D01*
X183078333Y-60451717D01*
X183141360Y-60419034D01*
X183212051Y-60425615D01*
X183267962Y-60469369D01*
X183291500Y-60542700D01*
X183291500Y-101732300D01*
X183271498Y-101800421D01*
X183217842Y-101846914D01*
X183147568Y-101857018D01*
X183082988Y-101827524D01*
X183042981Y-101761714D01*
X183035660Y-101731221D01*
X183034505Y-101726409D01*
X182937616Y-101492498D01*
X182805328Y-101276624D01*
X182640898Y-101084102D01*
X182448376Y-100919672D01*
X182232502Y-100787384D01*
X182227932Y-100785491D01*
X182227928Y-100785489D01*
X182003164Y-100692389D01*
X182003162Y-100692388D01*
X181998591Y-100690495D01*
X181913968Y-100670179D01*
X181757216Y-100632546D01*
X181757210Y-100632545D01*
X181752403Y-100631391D01*
X181652584Y-100623535D01*
X181565655Y-100616693D01*
X181565648Y-100616693D01*
X181563199Y-100616500D01*
X181436801Y-100616500D01*
X181434352Y-100616693D01*
X181434345Y-100616693D01*
X181347416Y-100623535D01*
X181247597Y-100631391D01*
X181242790Y-100632545D01*
X181242784Y-100632546D01*
X181086032Y-100670179D01*
X181001409Y-100690495D01*
X180996838Y-100692388D01*
X180996836Y-100692389D01*
X180772072Y-100785489D01*
X180772068Y-100785491D01*
X180767498Y-100787384D01*
X180551624Y-100919672D01*
X180359102Y-101084102D01*
X180194672Y-101276624D01*
X180062384Y-101492498D01*
X179965495Y-101726409D01*
X179964340Y-101731221D01*
X179936565Y-101846914D01*
X179906391Y-101972597D01*
X179886526Y-102225000D01*
X179906391Y-102477403D01*
X179907545Y-102482210D01*
X179907546Y-102482216D01*
X179933924Y-102592089D01*
X179965495Y-102723591D01*
X179967388Y-102728162D01*
X179967389Y-102728164D01*
X180018243Y-102850935D01*
X180062384Y-102957502D01*
X180194672Y-103173376D01*
X180359102Y-103365898D01*
X180551624Y-103530328D01*
X180767498Y-103662616D01*
X180772068Y-103664509D01*
X180772072Y-103664511D01*
X180945539Y-103736363D01*
X181001409Y-103759505D01*
X181028456Y-103765998D01*
X181036714Y-103767981D01*
X181098283Y-103803333D01*
X181130966Y-103866360D01*
X181124385Y-103937051D01*
X181080631Y-103992962D01*
X181007300Y-104016500D01*
X138492700Y-104016500D01*
X138424579Y-103996498D01*
X138378086Y-103942842D01*
X138367982Y-103872568D01*
X138397476Y-103807988D01*
X138463286Y-103767981D01*
X138471544Y-103765998D01*
X138498591Y-103759505D01*
X138554461Y-103736363D01*
X138727928Y-103664511D01*
X138727932Y-103664509D01*
X138732502Y-103662616D01*
X138948376Y-103530328D01*
X139140898Y-103365898D01*
X139305328Y-103173376D01*
X139437616Y-102957502D01*
X139481758Y-102850935D01*
X139532611Y-102728164D01*
X139532612Y-102728162D01*
X139534505Y-102723591D01*
X139566076Y-102592089D01*
X139592454Y-102482216D01*
X139592455Y-102482210D01*
X139593609Y-102477403D01*
X139613474Y-102225000D01*
X139593609Y-101972597D01*
X139563436Y-101846914D01*
X139535660Y-101731221D01*
X139534505Y-101726409D01*
X139437616Y-101492498D01*
X139305328Y-101276624D01*
X139140898Y-101084102D01*
X138948376Y-100919672D01*
X138732502Y-100787384D01*
X138727932Y-100785491D01*
X138727928Y-100785489D01*
X138503164Y-100692389D01*
X138503162Y-100692388D01*
X138498591Y-100690495D01*
X138413968Y-100670179D01*
X138257216Y-100632546D01*
X138257210Y-100632545D01*
X138252403Y-100631391D01*
X138152584Y-100623535D01*
X138065655Y-100616693D01*
X138065648Y-100616693D01*
X138063199Y-100616500D01*
X137936801Y-100616500D01*
X137934352Y-100616693D01*
X137934345Y-100616693D01*
X137847416Y-100623535D01*
X137747597Y-100631391D01*
X137742790Y-100632545D01*
X137742784Y-100632546D01*
X137586032Y-100670179D01*
X137501409Y-100690495D01*
X137496838Y-100692388D01*
X137496836Y-100692389D01*
X137272072Y-100785489D01*
X137272068Y-100785491D01*
X137267498Y-100787384D01*
X137051624Y-100919672D01*
X136859102Y-101084102D01*
X136694672Y-101276624D01*
X136562384Y-101492498D01*
X136465495Y-101726409D01*
X136464340Y-101731221D01*
X136457019Y-101761714D01*
X136421667Y-101823283D01*
X136358640Y-101855966D01*
X136287949Y-101849385D01*
X136232038Y-101805631D01*
X136208500Y-101732300D01*
X136208500Y-90834593D01*
X143233039Y-90834593D01*
X143241848Y-91069216D01*
X143242943Y-91074434D01*
X143267794Y-91192871D01*
X143290062Y-91299001D01*
X143376302Y-91517377D01*
X143498104Y-91718100D01*
X143651985Y-91895432D01*
X143656117Y-91898820D01*
X143829416Y-92040917D01*
X143829422Y-92040921D01*
X143833544Y-92044301D01*
X143838180Y-92046940D01*
X143838183Y-92046942D01*
X143949408Y-92110255D01*
X144037590Y-92160451D01*
X144258289Y-92240561D01*
X144263538Y-92241510D01*
X144263541Y-92241511D01*
X144310382Y-92249981D01*
X144489330Y-92282340D01*
X144493469Y-92282535D01*
X144493476Y-92282536D01*
X144512440Y-92283430D01*
X144512449Y-92283430D01*
X144513929Y-92283500D01*
X144678950Y-92283500D01*
X144760299Y-92276597D01*
X144848637Y-92269102D01*
X144848641Y-92269101D01*
X144853948Y-92268651D01*
X144859103Y-92267313D01*
X144859109Y-92267312D01*
X145076035Y-92211009D01*
X145076034Y-92211009D01*
X145081206Y-92209667D01*
X145086072Y-92207475D01*
X145086075Y-92207474D01*
X145290417Y-92115424D01*
X145290420Y-92115423D01*
X145295278Y-92113234D01*
X145490041Y-91982112D01*
X145506402Y-91966505D01*
X145656070Y-91823728D01*
X145659927Y-91820049D01*
X145800078Y-91631679D01*
X145860719Y-91512408D01*
X145904069Y-91427144D01*
X145904069Y-91427143D01*
X145906487Y-91422388D01*
X145976111Y-91198160D01*
X145993202Y-91069216D01*
X145994712Y-91057821D01*
X147191500Y-91057821D01*
X147231060Y-91370975D01*
X147309557Y-91676702D01*
X147311010Y-91680371D01*
X147311010Y-91680372D01*
X147396159Y-91895432D01*
X147425753Y-91970179D01*
X147427659Y-91973647D01*
X147427660Y-91973648D01*
X147574398Y-92240561D01*
X147577816Y-92246779D01*
X147763346Y-92502140D01*
X147979418Y-92732233D01*
X148222625Y-92933432D01*
X148489131Y-93102562D01*
X148492710Y-93104246D01*
X148492717Y-93104250D01*
X148771144Y-93235267D01*
X148771148Y-93235269D01*
X148774734Y-93236956D01*
X149074928Y-93334495D01*
X149384980Y-93393641D01*
X149621162Y-93408500D01*
X149778838Y-93408500D01*
X150015020Y-93393641D01*
X150325072Y-93334495D01*
X150625266Y-93236956D01*
X150628852Y-93235269D01*
X150628856Y-93235267D01*
X150907283Y-93104250D01*
X150907290Y-93104246D01*
X150910869Y-93102562D01*
X151177375Y-92933432D01*
X151420582Y-92732233D01*
X151636654Y-92502140D01*
X151822184Y-92246779D01*
X151825603Y-92240561D01*
X151972340Y-91973648D01*
X151972341Y-91973647D01*
X151974247Y-91970179D01*
X152003842Y-91895432D01*
X152088990Y-91680372D01*
X152088990Y-91680371D01*
X152090443Y-91676702D01*
X152168940Y-91370975D01*
X152208500Y-91057821D01*
X152208500Y-90834593D01*
X153393039Y-90834593D01*
X153401848Y-91069216D01*
X153402943Y-91074434D01*
X153427794Y-91192871D01*
X153450062Y-91299001D01*
X153536302Y-91517377D01*
X153658104Y-91718100D01*
X153811985Y-91895432D01*
X153816117Y-91898820D01*
X153989416Y-92040917D01*
X153989422Y-92040921D01*
X153993544Y-92044301D01*
X153998180Y-92046940D01*
X153998183Y-92046942D01*
X154109408Y-92110255D01*
X154197590Y-92160451D01*
X154418289Y-92240561D01*
X154423538Y-92241510D01*
X154423541Y-92241511D01*
X154470382Y-92249981D01*
X154649330Y-92282340D01*
X154653469Y-92282535D01*
X154653476Y-92282536D01*
X154672440Y-92283430D01*
X154672449Y-92283430D01*
X154673929Y-92283500D01*
X154838950Y-92283500D01*
X154920299Y-92276597D01*
X155008637Y-92269102D01*
X155008641Y-92269101D01*
X155013948Y-92268651D01*
X155019103Y-92267313D01*
X155019109Y-92267312D01*
X155236035Y-92211009D01*
X155236034Y-92211009D01*
X155241206Y-92209667D01*
X155246072Y-92207475D01*
X155246075Y-92207474D01*
X155450417Y-92115424D01*
X155450420Y-92115423D01*
X155455278Y-92113234D01*
X155650041Y-91982112D01*
X155666402Y-91966505D01*
X155816070Y-91823728D01*
X155819927Y-91820049D01*
X155960078Y-91631679D01*
X156020719Y-91512408D01*
X156064069Y-91427144D01*
X156064069Y-91427143D01*
X156066487Y-91422388D01*
X156136111Y-91198160D01*
X156153202Y-91069216D01*
X156166261Y-90970690D01*
X156166261Y-90970687D01*
X156166961Y-90965407D01*
X156162050Y-90834593D01*
X162283039Y-90834593D01*
X162291848Y-91069216D01*
X162292943Y-91074434D01*
X162317794Y-91192871D01*
X162340062Y-91299001D01*
X162426302Y-91517377D01*
X162548104Y-91718100D01*
X162701985Y-91895432D01*
X162706117Y-91898820D01*
X162879416Y-92040917D01*
X162879422Y-92040921D01*
X162883544Y-92044301D01*
X162888180Y-92046940D01*
X162888183Y-92046942D01*
X162999408Y-92110255D01*
X163087590Y-92160451D01*
X163308289Y-92240561D01*
X163313538Y-92241510D01*
X163313541Y-92241511D01*
X163360382Y-92249981D01*
X163539330Y-92282340D01*
X163543469Y-92282535D01*
X163543476Y-92282536D01*
X163562440Y-92283430D01*
X163562449Y-92283430D01*
X163563929Y-92283500D01*
X163728950Y-92283500D01*
X163810299Y-92276597D01*
X163898637Y-92269102D01*
X163898641Y-92269101D01*
X163903948Y-92268651D01*
X163909103Y-92267313D01*
X163909109Y-92267312D01*
X164126035Y-92211009D01*
X164126034Y-92211009D01*
X164131206Y-92209667D01*
X164136072Y-92207475D01*
X164136075Y-92207474D01*
X164340417Y-92115424D01*
X164340420Y-92115423D01*
X164345278Y-92113234D01*
X164540041Y-91982112D01*
X164556402Y-91966505D01*
X164706070Y-91823728D01*
X164709927Y-91820049D01*
X164850078Y-91631679D01*
X164910719Y-91512408D01*
X164954069Y-91427144D01*
X164954069Y-91427143D01*
X164956487Y-91422388D01*
X165026111Y-91198160D01*
X165043202Y-91069216D01*
X165044712Y-91057821D01*
X166241500Y-91057821D01*
X166281060Y-91370975D01*
X166359557Y-91676702D01*
X166361010Y-91680371D01*
X166361010Y-91680372D01*
X166446159Y-91895432D01*
X166475753Y-91970179D01*
X166477659Y-91973647D01*
X166477660Y-91973648D01*
X166624398Y-92240561D01*
X166627816Y-92246779D01*
X166813346Y-92502140D01*
X167029418Y-92732233D01*
X167272625Y-92933432D01*
X167539131Y-93102562D01*
X167542710Y-93104246D01*
X167542717Y-93104250D01*
X167821144Y-93235267D01*
X167821148Y-93235269D01*
X167824734Y-93236956D01*
X168124928Y-93334495D01*
X168434980Y-93393641D01*
X168671162Y-93408500D01*
X168828838Y-93408500D01*
X169065020Y-93393641D01*
X169375072Y-93334495D01*
X169675266Y-93236956D01*
X169678852Y-93235269D01*
X169678856Y-93235267D01*
X169957283Y-93104250D01*
X169957290Y-93104246D01*
X169960869Y-93102562D01*
X170227375Y-92933432D01*
X170470582Y-92732233D01*
X170686654Y-92502140D01*
X170872184Y-92246779D01*
X170875603Y-92240561D01*
X171022340Y-91973648D01*
X171022341Y-91973647D01*
X171024247Y-91970179D01*
X171053842Y-91895432D01*
X171138990Y-91680372D01*
X171138990Y-91680371D01*
X171140443Y-91676702D01*
X171218940Y-91370975D01*
X171258500Y-91057821D01*
X171258500Y-90834593D01*
X172443039Y-90834593D01*
X172451848Y-91069216D01*
X172452943Y-91074434D01*
X172477794Y-91192871D01*
X172500062Y-91299001D01*
X172586302Y-91517377D01*
X172708104Y-91718100D01*
X172861985Y-91895432D01*
X172866117Y-91898820D01*
X173039416Y-92040917D01*
X173039422Y-92040921D01*
X173043544Y-92044301D01*
X173048180Y-92046940D01*
X173048183Y-92046942D01*
X173159408Y-92110255D01*
X173247590Y-92160451D01*
X173468289Y-92240561D01*
X173473538Y-92241510D01*
X173473541Y-92241511D01*
X173520382Y-92249981D01*
X173699330Y-92282340D01*
X173703469Y-92282535D01*
X173703476Y-92282536D01*
X173722440Y-92283430D01*
X173722449Y-92283430D01*
X173723929Y-92283500D01*
X173888950Y-92283500D01*
X173970299Y-92276597D01*
X174058637Y-92269102D01*
X174058641Y-92269101D01*
X174063948Y-92268651D01*
X174069103Y-92267313D01*
X174069109Y-92267312D01*
X174286035Y-92211009D01*
X174286034Y-92211009D01*
X174291206Y-92209667D01*
X174296072Y-92207475D01*
X174296075Y-92207474D01*
X174500417Y-92115424D01*
X174500420Y-92115423D01*
X174505278Y-92113234D01*
X174700041Y-91982112D01*
X174716402Y-91966505D01*
X174866070Y-91823728D01*
X174869927Y-91820049D01*
X175010078Y-91631679D01*
X175070719Y-91512408D01*
X175114069Y-91427144D01*
X175114069Y-91427143D01*
X175116487Y-91422388D01*
X175186111Y-91198160D01*
X175203202Y-91069216D01*
X175216261Y-90970690D01*
X175216261Y-90970687D01*
X175216961Y-90965407D01*
X175208152Y-90730784D01*
X175190358Y-90645978D01*
X175161035Y-90506226D01*
X175161034Y-90506223D01*
X175159938Y-90500999D01*
X175073698Y-90282623D01*
X174971925Y-90114906D01*
X174954664Y-90086461D01*
X174954662Y-90086458D01*
X174951896Y-90081900D01*
X174798015Y-89904568D01*
X174787938Y-89896306D01*
X174620584Y-89759083D01*
X174620578Y-89759079D01*
X174616456Y-89755699D01*
X174611820Y-89753060D01*
X174611817Y-89753058D01*
X174417053Y-89642192D01*
X174412410Y-89639549D01*
X174191711Y-89559439D01*
X174186462Y-89558490D01*
X174186459Y-89558489D01*
X174105385Y-89543829D01*
X173960670Y-89517660D01*
X173956531Y-89517465D01*
X173956524Y-89517464D01*
X173937560Y-89516570D01*
X173937551Y-89516570D01*
X173936071Y-89516500D01*
X173771050Y-89516500D01*
X173689701Y-89523403D01*
X173601363Y-89530898D01*
X173601359Y-89530899D01*
X173596052Y-89531349D01*
X173590897Y-89532687D01*
X173590891Y-89532688D01*
X173413177Y-89578814D01*
X173368794Y-89590333D01*
X173363928Y-89592525D01*
X173363925Y-89592526D01*
X173159583Y-89684576D01*
X173159580Y-89684577D01*
X173154722Y-89686766D01*
X172959959Y-89817888D01*
X172956102Y-89821567D01*
X172956100Y-89821569D01*
X172885845Y-89888590D01*
X172790073Y-89979951D01*
X172649922Y-90168321D01*
X172647506Y-90173072D01*
X172647504Y-90173076D01*
X172545931Y-90372856D01*
X172543513Y-90377612D01*
X172473889Y-90601840D01*
X172473188Y-90607129D01*
X172456092Y-90736116D01*
X172443039Y-90834593D01*
X171258500Y-90834593D01*
X171258500Y-90742179D01*
X171218940Y-90429025D01*
X171140443Y-90123298D01*
X171062337Y-89926025D01*
X171025702Y-89833495D01*
X171025700Y-89833490D01*
X171024247Y-89829821D01*
X171022340Y-89826352D01*
X170874093Y-89556693D01*
X170874091Y-89556690D01*
X170872184Y-89553221D01*
X170718096Y-89341136D01*
X170688982Y-89301064D01*
X170688981Y-89301062D01*
X170686654Y-89297860D01*
X170479489Y-89077252D01*
X170473297Y-89070658D01*
X170473296Y-89070657D01*
X170470582Y-89067767D01*
X170227375Y-88866568D01*
X169960869Y-88697438D01*
X169957290Y-88695754D01*
X169957283Y-88695750D01*
X169678856Y-88564733D01*
X169678852Y-88564731D01*
X169675266Y-88563044D01*
X169375072Y-88465505D01*
X169065020Y-88406359D01*
X168828838Y-88391500D01*
X168671162Y-88391500D01*
X168434980Y-88406359D01*
X168124928Y-88465505D01*
X167824734Y-88563044D01*
X167821148Y-88564731D01*
X167821144Y-88564733D01*
X167542717Y-88695750D01*
X167542710Y-88695754D01*
X167539131Y-88697438D01*
X167272625Y-88866568D01*
X167029418Y-89067767D01*
X167026704Y-89070657D01*
X167026703Y-89070658D01*
X167020511Y-89077252D01*
X166813346Y-89297860D01*
X166811019Y-89301062D01*
X166811018Y-89301064D01*
X166781904Y-89341136D01*
X166627816Y-89553221D01*
X166625909Y-89556690D01*
X166625907Y-89556693D01*
X166477660Y-89826352D01*
X166475753Y-89829821D01*
X166474300Y-89833490D01*
X166474298Y-89833495D01*
X166437663Y-89926025D01*
X166359557Y-90123298D01*
X166281060Y-90429025D01*
X166241500Y-90742179D01*
X166241500Y-91057821D01*
X165044712Y-91057821D01*
X165056261Y-90970690D01*
X165056261Y-90970687D01*
X165056961Y-90965407D01*
X165048152Y-90730784D01*
X165030358Y-90645978D01*
X165001035Y-90506226D01*
X165001034Y-90506223D01*
X164999938Y-90500999D01*
X164973069Y-90432961D01*
X164917315Y-90291781D01*
X164910897Y-90221075D01*
X164943725Y-90158124D01*
X165005375Y-90122914D01*
X165020789Y-90120249D01*
X165069577Y-90114906D01*
X165256707Y-90094412D01*
X165256712Y-90094411D01*
X165261360Y-90093902D01*
X165306947Y-90081900D01*
X165509594Y-90028548D01*
X165509596Y-90028547D01*
X165514117Y-90027357D01*
X165754262Y-89924182D01*
X165900812Y-89833495D01*
X165972547Y-89789104D01*
X165972548Y-89789104D01*
X165976519Y-89786646D01*
X165980082Y-89783629D01*
X165980087Y-89783626D01*
X166172439Y-89620787D01*
X166172440Y-89620786D01*
X166176005Y-89617768D01*
X166227991Y-89558489D01*
X166345257Y-89424774D01*
X166345261Y-89424769D01*
X166348339Y-89421259D01*
X166357070Y-89407686D01*
X166487205Y-89205367D01*
X166489733Y-89201437D01*
X166597083Y-88963129D01*
X166668030Y-88711572D01*
X166684832Y-88579496D01*
X166700616Y-88455421D01*
X166700616Y-88455417D01*
X166701014Y-88452291D01*
X166703431Y-88360000D01*
X166684061Y-88099348D01*
X166672725Y-88049248D01*
X166627408Y-87848980D01*
X166626377Y-87844423D01*
X166531647Y-87600823D01*
X166504830Y-87553902D01*
X166408880Y-87386025D01*
X166401951Y-87373902D01*
X166240138Y-87168643D01*
X166049763Y-86989557D01*
X165835009Y-86840576D01*
X165830816Y-86838508D01*
X165604781Y-86727040D01*
X165604778Y-86727039D01*
X165600593Y-86724975D01*
X165554449Y-86710204D01*
X165356123Y-86646720D01*
X165351665Y-86645293D01*
X165093693Y-86603279D01*
X164979942Y-86601790D01*
X164837022Y-86599919D01*
X164837019Y-86599919D01*
X164832345Y-86599858D01*
X164573362Y-86635104D01*
X164322433Y-86708243D01*
X164318180Y-86710203D01*
X164318179Y-86710204D01*
X164281659Y-86727040D01*
X164085072Y-86817668D01*
X164046067Y-86843241D01*
X163870404Y-86958410D01*
X163870399Y-86958414D01*
X163866491Y-86960976D01*
X163671494Y-87135018D01*
X163504363Y-87335970D01*
X163501934Y-87339973D01*
X163372119Y-87553902D01*
X163368771Y-87559419D01*
X163267697Y-87800455D01*
X163203359Y-88053783D01*
X163177173Y-88313839D01*
X163189713Y-88574908D01*
X163240704Y-88831256D01*
X163329026Y-89077252D01*
X163331242Y-89081376D01*
X163449284Y-89301064D01*
X163452737Y-89307491D01*
X163455531Y-89311232D01*
X163455535Y-89311239D01*
X163477861Y-89341136D01*
X163502594Y-89407686D01*
X163487420Y-89477042D01*
X163437158Y-89527185D01*
X163408558Y-89538485D01*
X163208794Y-89590333D01*
X163203928Y-89592525D01*
X163203925Y-89592526D01*
X162999583Y-89684576D01*
X162999580Y-89684577D01*
X162994722Y-89686766D01*
X162799959Y-89817888D01*
X162796102Y-89821567D01*
X162796100Y-89821569D01*
X162725845Y-89888590D01*
X162630073Y-89979951D01*
X162489922Y-90168321D01*
X162487506Y-90173072D01*
X162487504Y-90173076D01*
X162385931Y-90372856D01*
X162383513Y-90377612D01*
X162313889Y-90601840D01*
X162313188Y-90607129D01*
X162296092Y-90736116D01*
X162283039Y-90834593D01*
X156162050Y-90834593D01*
X156158152Y-90730784D01*
X156140358Y-90645978D01*
X156111035Y-90506226D01*
X156111034Y-90506223D01*
X156109938Y-90500999D01*
X156023698Y-90282623D01*
X155921925Y-90114906D01*
X155904664Y-90086461D01*
X155904662Y-90086458D01*
X155901896Y-90081900D01*
X155748015Y-89904568D01*
X155737938Y-89896306D01*
X155570584Y-89759083D01*
X155570578Y-89759079D01*
X155566456Y-89755699D01*
X155561820Y-89753060D01*
X155561817Y-89753058D01*
X155367053Y-89642192D01*
X155362410Y-89639549D01*
X155141711Y-89559439D01*
X155136462Y-89558490D01*
X155136459Y-89558489D01*
X155055385Y-89543829D01*
X154910670Y-89517660D01*
X154906531Y-89517465D01*
X154906524Y-89517464D01*
X154887560Y-89516570D01*
X154887551Y-89516570D01*
X154886071Y-89516500D01*
X154721050Y-89516500D01*
X154639701Y-89523403D01*
X154551363Y-89530898D01*
X154551359Y-89530899D01*
X154546052Y-89531349D01*
X154540897Y-89532687D01*
X154540891Y-89532688D01*
X154363177Y-89578814D01*
X154318794Y-89590333D01*
X154313928Y-89592525D01*
X154313925Y-89592526D01*
X154109583Y-89684576D01*
X154109580Y-89684577D01*
X154104722Y-89686766D01*
X153909959Y-89817888D01*
X153906102Y-89821567D01*
X153906100Y-89821569D01*
X153835845Y-89888590D01*
X153740073Y-89979951D01*
X153599922Y-90168321D01*
X153597506Y-90173072D01*
X153597504Y-90173076D01*
X153495931Y-90372856D01*
X153493513Y-90377612D01*
X153423889Y-90601840D01*
X153423188Y-90607129D01*
X153406092Y-90736116D01*
X153393039Y-90834593D01*
X152208500Y-90834593D01*
X152208500Y-90742179D01*
X152168940Y-90429025D01*
X152090443Y-90123298D01*
X152012337Y-89926025D01*
X151975702Y-89833495D01*
X151975700Y-89833490D01*
X151974247Y-89829821D01*
X151972340Y-89826352D01*
X151824093Y-89556693D01*
X151824091Y-89556690D01*
X151822184Y-89553221D01*
X151668096Y-89341136D01*
X151638982Y-89301064D01*
X151638981Y-89301062D01*
X151636654Y-89297860D01*
X151429489Y-89077252D01*
X151423297Y-89070658D01*
X151423296Y-89070657D01*
X151420582Y-89067767D01*
X151177375Y-88866568D01*
X150910869Y-88697438D01*
X150907290Y-88695754D01*
X150907283Y-88695750D01*
X150628856Y-88564733D01*
X150628852Y-88564731D01*
X150625266Y-88563044D01*
X150325072Y-88465505D01*
X150015020Y-88406359D01*
X149778838Y-88391500D01*
X149621162Y-88391500D01*
X149384980Y-88406359D01*
X149074928Y-88465505D01*
X148774734Y-88563044D01*
X148771148Y-88564731D01*
X148771144Y-88564733D01*
X148492717Y-88695750D01*
X148492710Y-88695754D01*
X148489131Y-88697438D01*
X148222625Y-88866568D01*
X147979418Y-89067767D01*
X147976704Y-89070657D01*
X147976703Y-89070658D01*
X147970511Y-89077252D01*
X147763346Y-89297860D01*
X147761019Y-89301062D01*
X147761018Y-89301064D01*
X147731904Y-89341136D01*
X147577816Y-89553221D01*
X147575909Y-89556690D01*
X147575907Y-89556693D01*
X147427660Y-89826352D01*
X147425753Y-89829821D01*
X147424300Y-89833490D01*
X147424298Y-89833495D01*
X147387663Y-89926025D01*
X147309557Y-90123298D01*
X147231060Y-90429025D01*
X147191500Y-90742179D01*
X147191500Y-91057821D01*
X145994712Y-91057821D01*
X146006261Y-90970690D01*
X146006261Y-90970687D01*
X146006961Y-90965407D01*
X145998152Y-90730784D01*
X145980358Y-90645978D01*
X145951035Y-90506226D01*
X145951034Y-90506223D01*
X145949938Y-90500999D01*
X145923069Y-90432961D01*
X145867315Y-90291781D01*
X145860897Y-90221075D01*
X145893725Y-90158124D01*
X145955375Y-90122914D01*
X145970789Y-90120249D01*
X146019577Y-90114906D01*
X146206707Y-90094412D01*
X146206712Y-90094411D01*
X146211360Y-90093902D01*
X146256947Y-90081900D01*
X146459594Y-90028548D01*
X146459596Y-90028547D01*
X146464117Y-90027357D01*
X146704262Y-89924182D01*
X146850812Y-89833495D01*
X146922547Y-89789104D01*
X146922548Y-89789104D01*
X146926519Y-89786646D01*
X146930082Y-89783629D01*
X146930087Y-89783626D01*
X147122439Y-89620787D01*
X147122440Y-89620786D01*
X147126005Y-89617768D01*
X147177991Y-89558489D01*
X147295257Y-89424774D01*
X147295261Y-89424769D01*
X147298339Y-89421259D01*
X147307070Y-89407686D01*
X147437205Y-89205367D01*
X147439733Y-89201437D01*
X147547083Y-88963129D01*
X147618030Y-88711572D01*
X147634832Y-88579496D01*
X147650616Y-88455421D01*
X147650616Y-88455417D01*
X147651014Y-88452291D01*
X147653431Y-88360000D01*
X147634061Y-88099348D01*
X147622725Y-88049248D01*
X147577408Y-87848980D01*
X147576377Y-87844423D01*
X147481647Y-87600823D01*
X147454830Y-87553902D01*
X147358880Y-87386025D01*
X147351951Y-87373902D01*
X147190138Y-87168643D01*
X146999763Y-86989557D01*
X146785009Y-86840576D01*
X146780816Y-86838508D01*
X146554781Y-86727040D01*
X146554778Y-86727039D01*
X146550593Y-86724975D01*
X146504449Y-86710204D01*
X146306123Y-86646720D01*
X146301665Y-86645293D01*
X146043693Y-86603279D01*
X145929942Y-86601790D01*
X145787022Y-86599919D01*
X145787019Y-86599919D01*
X145782345Y-86599858D01*
X145523362Y-86635104D01*
X145272433Y-86708243D01*
X145268180Y-86710203D01*
X145268179Y-86710204D01*
X145231659Y-86727040D01*
X145035072Y-86817668D01*
X144996067Y-86843241D01*
X144820404Y-86958410D01*
X144820399Y-86958414D01*
X144816491Y-86960976D01*
X144621494Y-87135018D01*
X144454363Y-87335970D01*
X144451934Y-87339973D01*
X144322119Y-87553902D01*
X144318771Y-87559419D01*
X144217697Y-87800455D01*
X144153359Y-88053783D01*
X144127173Y-88313839D01*
X144139713Y-88574908D01*
X144190704Y-88831256D01*
X144279026Y-89077252D01*
X144281242Y-89081376D01*
X144399284Y-89301064D01*
X144402737Y-89307491D01*
X144405531Y-89311232D01*
X144405535Y-89311239D01*
X144427861Y-89341136D01*
X144452594Y-89407686D01*
X144437420Y-89477042D01*
X144387158Y-89527185D01*
X144358558Y-89538485D01*
X144158794Y-89590333D01*
X144153928Y-89592525D01*
X144153925Y-89592526D01*
X143949583Y-89684576D01*
X143949580Y-89684577D01*
X143944722Y-89686766D01*
X143749959Y-89817888D01*
X143746102Y-89821567D01*
X143746100Y-89821569D01*
X143675845Y-89888590D01*
X143580073Y-89979951D01*
X143439922Y-90168321D01*
X143437506Y-90173072D01*
X143437504Y-90173076D01*
X143335931Y-90372856D01*
X143333513Y-90377612D01*
X143263889Y-90601840D01*
X143263188Y-90607129D01*
X143246092Y-90736116D01*
X143233039Y-90834593D01*
X136208500Y-90834593D01*
X136208500Y-85773839D01*
X150477173Y-85773839D01*
X150489713Y-86034908D01*
X150540704Y-86291256D01*
X150629026Y-86537252D01*
X150631242Y-86541376D01*
X150695753Y-86661437D01*
X150752737Y-86767491D01*
X150755532Y-86771234D01*
X150755534Y-86771237D01*
X150906330Y-86973177D01*
X150906335Y-86973183D01*
X150909122Y-86976915D01*
X150912431Y-86980195D01*
X150912436Y-86980201D01*
X151068611Y-87135018D01*
X151094743Y-87160923D01*
X151098505Y-87163681D01*
X151098508Y-87163684D01*
X151301750Y-87312707D01*
X151305524Y-87315474D01*
X151309667Y-87317654D01*
X151309669Y-87317655D01*
X151532684Y-87434989D01*
X151532689Y-87434991D01*
X151536834Y-87437172D01*
X151783590Y-87523344D01*
X151788183Y-87524216D01*
X152035785Y-87571224D01*
X152035788Y-87571224D01*
X152040374Y-87572095D01*
X152170959Y-87577226D01*
X152296875Y-87582174D01*
X152296881Y-87582174D01*
X152301543Y-87582357D01*
X152380977Y-87573657D01*
X152556707Y-87554412D01*
X152556712Y-87554411D01*
X152561360Y-87553902D01*
X152674116Y-87524216D01*
X152809594Y-87488548D01*
X152809596Y-87488547D01*
X152814117Y-87487357D01*
X153054262Y-87384182D01*
X153070875Y-87373902D01*
X153272547Y-87249104D01*
X153272548Y-87249104D01*
X153276519Y-87246646D01*
X153280082Y-87243629D01*
X153280087Y-87243626D01*
X153472439Y-87080787D01*
X153472440Y-87080786D01*
X153476005Y-87077768D01*
X153496736Y-87054128D01*
X153645257Y-86884774D01*
X153645261Y-86884769D01*
X153648339Y-86881259D01*
X153687594Y-86820231D01*
X153787205Y-86665367D01*
X153789733Y-86661437D01*
X153897083Y-86423129D01*
X153968030Y-86171572D01*
X153984832Y-86039496D01*
X154000616Y-85915421D01*
X154000616Y-85915417D01*
X154001014Y-85912291D01*
X154003431Y-85820000D01*
X154000001Y-85773839D01*
X169527173Y-85773839D01*
X169539713Y-86034908D01*
X169590704Y-86291256D01*
X169679026Y-86537252D01*
X169681242Y-86541376D01*
X169745753Y-86661437D01*
X169802737Y-86767491D01*
X169805532Y-86771234D01*
X169805534Y-86771237D01*
X169956330Y-86973177D01*
X169956335Y-86973183D01*
X169959122Y-86976915D01*
X169962431Y-86980195D01*
X169962436Y-86980201D01*
X170118611Y-87135018D01*
X170144743Y-87160923D01*
X170148505Y-87163681D01*
X170148508Y-87163684D01*
X170351750Y-87312707D01*
X170355524Y-87315474D01*
X170359667Y-87317654D01*
X170359669Y-87317655D01*
X170582684Y-87434989D01*
X170582689Y-87434991D01*
X170586834Y-87437172D01*
X170833590Y-87523344D01*
X170838183Y-87524216D01*
X171085785Y-87571224D01*
X171085788Y-87571224D01*
X171090374Y-87572095D01*
X171220959Y-87577226D01*
X171346875Y-87582174D01*
X171346881Y-87582174D01*
X171351543Y-87582357D01*
X171430977Y-87573657D01*
X171606707Y-87554412D01*
X171606712Y-87554411D01*
X171611360Y-87553902D01*
X171724116Y-87524216D01*
X171859594Y-87488548D01*
X171859596Y-87488547D01*
X171864117Y-87487357D01*
X172104262Y-87384182D01*
X172120875Y-87373902D01*
X172322547Y-87249104D01*
X172322548Y-87249104D01*
X172326519Y-87246646D01*
X172330082Y-87243629D01*
X172330087Y-87243626D01*
X172522439Y-87080787D01*
X172522440Y-87080786D01*
X172526005Y-87077768D01*
X172546736Y-87054128D01*
X172695257Y-86884774D01*
X172695261Y-86884769D01*
X172698339Y-86881259D01*
X172737594Y-86820231D01*
X172837205Y-86665367D01*
X172839733Y-86661437D01*
X172947083Y-86423129D01*
X173018030Y-86171572D01*
X173034832Y-86039496D01*
X173050616Y-85915421D01*
X173050616Y-85915417D01*
X173051014Y-85912291D01*
X173053431Y-85820000D01*
X173034061Y-85559348D01*
X173022725Y-85509248D01*
X172977408Y-85308980D01*
X172976377Y-85304423D01*
X172881647Y-85060823D01*
X172751951Y-84833902D01*
X172590138Y-84628643D01*
X172399763Y-84449557D01*
X172185009Y-84300576D01*
X172180816Y-84298508D01*
X171954781Y-84187040D01*
X171954778Y-84187039D01*
X171950593Y-84184975D01*
X171904449Y-84170204D01*
X171706123Y-84106720D01*
X171701665Y-84105293D01*
X171443693Y-84063279D01*
X171329942Y-84061790D01*
X171187022Y-84059919D01*
X171187019Y-84059919D01*
X171182345Y-84059858D01*
X170923362Y-84095104D01*
X170672433Y-84168243D01*
X170668180Y-84170203D01*
X170668179Y-84170204D01*
X170631659Y-84187040D01*
X170435072Y-84277668D01*
X170396067Y-84303241D01*
X170220404Y-84418410D01*
X170220399Y-84418414D01*
X170216491Y-84420976D01*
X170021494Y-84595018D01*
X169854363Y-84795970D01*
X169718771Y-85019419D01*
X169617697Y-85260455D01*
X169553359Y-85513783D01*
X169527173Y-85773839D01*
X154000001Y-85773839D01*
X153984061Y-85559348D01*
X153972725Y-85509248D01*
X153927408Y-85308980D01*
X153926377Y-85304423D01*
X153831647Y-85060823D01*
X153701951Y-84833902D01*
X153540138Y-84628643D01*
X153349763Y-84449557D01*
X153135009Y-84300576D01*
X153130816Y-84298508D01*
X152904781Y-84187040D01*
X152904778Y-84187039D01*
X152900593Y-84184975D01*
X152854449Y-84170204D01*
X152656123Y-84106720D01*
X152651665Y-84105293D01*
X152393693Y-84063279D01*
X152279942Y-84061790D01*
X152137022Y-84059919D01*
X152137019Y-84059919D01*
X152132345Y-84059858D01*
X151873362Y-84095104D01*
X151622433Y-84168243D01*
X151618180Y-84170203D01*
X151618179Y-84170204D01*
X151581659Y-84187040D01*
X151385072Y-84277668D01*
X151346067Y-84303241D01*
X151170404Y-84418410D01*
X151170399Y-84418414D01*
X151166491Y-84420976D01*
X150971494Y-84595018D01*
X150804363Y-84795970D01*
X150668771Y-85019419D01*
X150567697Y-85260455D01*
X150503359Y-85513783D01*
X150477173Y-85773839D01*
X136208500Y-85773839D01*
X136208500Y-82800000D01*
X173036771Y-82800000D01*
X173055635Y-82979475D01*
X173111401Y-83151107D01*
X173201633Y-83307393D01*
X173322387Y-83441504D01*
X173468385Y-83547578D01*
X173474413Y-83550262D01*
X173474415Y-83550263D01*
X173627217Y-83618295D01*
X173633248Y-83620980D01*
X173721508Y-83639740D01*
X173803311Y-83657128D01*
X173803315Y-83657128D01*
X173809768Y-83658500D01*
X173990232Y-83658500D01*
X173996685Y-83657128D01*
X173996689Y-83657128D01*
X174078492Y-83639740D01*
X174166752Y-83620980D01*
X174172783Y-83618295D01*
X174325585Y-83550263D01*
X174325587Y-83550262D01*
X174331615Y-83547578D01*
X174477613Y-83441504D01*
X174598367Y-83307393D01*
X174688599Y-83151107D01*
X174744365Y-82979475D01*
X174750893Y-82917368D01*
X174777907Y-82851711D01*
X174836128Y-82811082D01*
X174907074Y-82808379D01*
X174968218Y-82844462D01*
X174985321Y-82867538D01*
X175051633Y-82982393D01*
X175172387Y-83116504D01*
X175177729Y-83120385D01*
X175177731Y-83120387D01*
X175313043Y-83218697D01*
X175318385Y-83222578D01*
X175324413Y-83225262D01*
X175324415Y-83225263D01*
X175477217Y-83293295D01*
X175483248Y-83295980D01*
X175571508Y-83314740D01*
X175653311Y-83332128D01*
X175653315Y-83332128D01*
X175659768Y-83333500D01*
X175840232Y-83333500D01*
X175846685Y-83332128D01*
X175846689Y-83332128D01*
X175928492Y-83314740D01*
X176016752Y-83295980D01*
X176022783Y-83293295D01*
X176175585Y-83225263D01*
X176175587Y-83225262D01*
X176181615Y-83222578D01*
X176186957Y-83218697D01*
X176322269Y-83120387D01*
X176322271Y-83120385D01*
X176327613Y-83116504D01*
X176448367Y-82982393D01*
X176514678Y-82867539D01*
X176535295Y-82831830D01*
X176535296Y-82831829D01*
X176538599Y-82826107D01*
X176594365Y-82654475D01*
X176597244Y-82627089D01*
X176612539Y-82481565D01*
X176613229Y-82475000D01*
X176594365Y-82295525D01*
X176538599Y-82123893D01*
X176448367Y-81967607D01*
X176327613Y-81833496D01*
X176181615Y-81727422D01*
X176175587Y-81724738D01*
X176175585Y-81724737D01*
X176022783Y-81656705D01*
X176022781Y-81656705D01*
X176016752Y-81654020D01*
X175928492Y-81635260D01*
X175846689Y-81617872D01*
X175846685Y-81617872D01*
X175840232Y-81616500D01*
X175659768Y-81616500D01*
X175653315Y-81617872D01*
X175653311Y-81617872D01*
X175571508Y-81635260D01*
X175483248Y-81654020D01*
X175477219Y-81656704D01*
X175477217Y-81656705D01*
X175324416Y-81724737D01*
X175324414Y-81724738D01*
X175318386Y-81727422D01*
X175313045Y-81731302D01*
X175313044Y-81731303D01*
X175177731Y-81829613D01*
X175177729Y-81829615D01*
X175172387Y-81833496D01*
X175051633Y-81967607D01*
X174961401Y-82123893D01*
X174905635Y-82295525D01*
X174904945Y-82302088D01*
X174904945Y-82302089D01*
X174899107Y-82357632D01*
X174872093Y-82423289D01*
X174813872Y-82463918D01*
X174742926Y-82466621D01*
X174681782Y-82430538D01*
X174664678Y-82407461D01*
X174601668Y-82298325D01*
X174598367Y-82292607D01*
X174477613Y-82158496D01*
X174429987Y-82123893D01*
X174336957Y-82056303D01*
X174336956Y-82056302D01*
X174331615Y-82052422D01*
X174325587Y-82049738D01*
X174325585Y-82049737D01*
X174172783Y-81981705D01*
X174172781Y-81981705D01*
X174166752Y-81979020D01*
X174078492Y-81960260D01*
X173996689Y-81942872D01*
X173996685Y-81942872D01*
X173990232Y-81941500D01*
X173809768Y-81941500D01*
X173803315Y-81942872D01*
X173803311Y-81942872D01*
X173721508Y-81960260D01*
X173633248Y-81979020D01*
X173627219Y-81981704D01*
X173627217Y-81981705D01*
X173474416Y-82049737D01*
X173474414Y-82049738D01*
X173468386Y-82052422D01*
X173463045Y-82056302D01*
X173463044Y-82056303D01*
X173327731Y-82154613D01*
X173327729Y-82154615D01*
X173322387Y-82158496D01*
X173201633Y-82292607D01*
X173198332Y-82298325D01*
X173126184Y-82423289D01*
X173111401Y-82448893D01*
X173055635Y-82620525D01*
X173054945Y-82627088D01*
X173054945Y-82627089D01*
X173052067Y-82654475D01*
X173036771Y-82800000D01*
X136208500Y-82800000D01*
X136208500Y-80789343D01*
X153036775Y-80789343D01*
X153053381Y-80958699D01*
X153107094Y-81120167D01*
X153110741Y-81126189D01*
X153110742Y-81126191D01*
X153124497Y-81148902D01*
X153195246Y-81265723D01*
X153313455Y-81388132D01*
X153455846Y-81481310D01*
X153462450Y-81483766D01*
X153462452Y-81483767D01*
X153498844Y-81497301D01*
X153615341Y-81540626D01*
X153784015Y-81563132D01*
X153791026Y-81562494D01*
X153791030Y-81562494D01*
X153946462Y-81548348D01*
X153953483Y-81547709D01*
X153960185Y-81545531D01*
X153960187Y-81545531D01*
X154108623Y-81497301D01*
X154108626Y-81497300D01*
X154115322Y-81495124D01*
X154261490Y-81407990D01*
X154266584Y-81403139D01*
X154266588Y-81403136D01*
X154336464Y-81336593D01*
X154384721Y-81290639D01*
X154478891Y-81148902D01*
X154539319Y-80989825D01*
X154563001Y-80821313D01*
X154563118Y-80812964D01*
X154563244Y-80803961D01*
X154563244Y-80803955D01*
X154563299Y-80800000D01*
X154544331Y-80630892D01*
X154532825Y-80597850D01*
X154509127Y-80529800D01*
X154488368Y-80470189D01*
X154482473Y-80460754D01*
X154438843Y-80390933D01*
X154398192Y-80325879D01*
X154278286Y-80205132D01*
X154270200Y-80200000D01*
X154193156Y-80151107D01*
X154134608Y-80113951D01*
X153974300Y-80056868D01*
X153805329Y-80036720D01*
X153798326Y-80037456D01*
X153798325Y-80037456D01*
X153643101Y-80053770D01*
X153643097Y-80053771D01*
X153636093Y-80054507D01*
X153629422Y-80056778D01*
X153481673Y-80107075D01*
X153481670Y-80107076D01*
X153475003Y-80109346D01*
X153469005Y-80113036D01*
X153469003Y-80113037D01*
X153336065Y-80194821D01*
X153336063Y-80194823D01*
X153330066Y-80198512D01*
X153325033Y-80203441D01*
X153213870Y-80312301D01*
X153208486Y-80317573D01*
X153204675Y-80323487D01*
X153204673Y-80323489D01*
X153124488Y-80447911D01*
X153116304Y-80460610D01*
X153058103Y-80620516D01*
X153036775Y-80789343D01*
X136208500Y-80789343D01*
X136208500Y-77600000D01*
X144536771Y-77600000D01*
X144537461Y-77606565D01*
X144543838Y-77667232D01*
X144555635Y-77779475D01*
X144611401Y-77951107D01*
X144701633Y-78107393D01*
X144822387Y-78241504D01*
X144827729Y-78245385D01*
X144827731Y-78245387D01*
X144960025Y-78341504D01*
X144968385Y-78347578D01*
X144974413Y-78350262D01*
X144974415Y-78350263D01*
X145118123Y-78414246D01*
X145133248Y-78420980D01*
X145221508Y-78439740D01*
X145303311Y-78457128D01*
X145303315Y-78457128D01*
X145309768Y-78458500D01*
X145490232Y-78458500D01*
X145496685Y-78457128D01*
X145496689Y-78457128D01*
X145578492Y-78439740D01*
X145666752Y-78420980D01*
X145681877Y-78414246D01*
X145825585Y-78350263D01*
X145825587Y-78350262D01*
X145831615Y-78347578D01*
X145839975Y-78341504D01*
X145972269Y-78245387D01*
X145972271Y-78245385D01*
X145977613Y-78241504D01*
X146098367Y-78107393D01*
X146166523Y-77989343D01*
X155936775Y-77989343D01*
X155953381Y-78158699D01*
X155955605Y-78165384D01*
X155955605Y-78165385D01*
X155974720Y-78222846D01*
X156007094Y-78320167D01*
X156010741Y-78326189D01*
X156010742Y-78326191D01*
X156090872Y-78458500D01*
X156095246Y-78465723D01*
X156213455Y-78588132D01*
X156241624Y-78606565D01*
X156306308Y-78648893D01*
X156355846Y-78681310D01*
X156362450Y-78683766D01*
X156362452Y-78683767D01*
X156435594Y-78710968D01*
X156515341Y-78740626D01*
X156684015Y-78763132D01*
X156691027Y-78762494D01*
X156691032Y-78762494D01*
X156710620Y-78760711D01*
X156780273Y-78774457D01*
X156831437Y-78823678D01*
X156847349Y-78899362D01*
X156836771Y-79000000D01*
X156837461Y-79006565D01*
X156851697Y-79142004D01*
X156855635Y-79179475D01*
X156857675Y-79185753D01*
X156857675Y-79185754D01*
X156875789Y-79241504D01*
X156911401Y-79351107D01*
X157001633Y-79507393D01*
X157066465Y-79579397D01*
X157097181Y-79643402D01*
X157088417Y-79713856D01*
X157081951Y-79726698D01*
X157011401Y-79848893D01*
X157009359Y-79855178D01*
X156961917Y-80001192D01*
X156955635Y-80020525D01*
X156954945Y-80027088D01*
X156954945Y-80027089D01*
X156948702Y-80086486D01*
X156936771Y-80200000D01*
X156937461Y-80206565D01*
X156952590Y-80350500D01*
X156955635Y-80379475D01*
X156957675Y-80385753D01*
X156957675Y-80385754D01*
X156974194Y-80436595D01*
X157011401Y-80551107D01*
X157014704Y-80556829D01*
X157014705Y-80556830D01*
X157036762Y-80595033D01*
X157101633Y-80707393D01*
X157106051Y-80712300D01*
X157106052Y-80712301D01*
X157216772Y-80835268D01*
X157222387Y-80841504D01*
X157227729Y-80845385D01*
X157227731Y-80845387D01*
X157318856Y-80911593D01*
X157368385Y-80947578D01*
X157374413Y-80950262D01*
X157374415Y-80950263D01*
X157478072Y-80996414D01*
X157533248Y-81020980D01*
X157621508Y-81039740D01*
X157703311Y-81057128D01*
X157703315Y-81057128D01*
X157709768Y-81058500D01*
X157890232Y-81058500D01*
X157896685Y-81057128D01*
X157896689Y-81057128D01*
X157978492Y-81039740D01*
X158066752Y-81020980D01*
X158121928Y-80996414D01*
X158225585Y-80950263D01*
X158225587Y-80950262D01*
X158231615Y-80947578D01*
X158281144Y-80911593D01*
X158372269Y-80845387D01*
X158372271Y-80845385D01*
X158377613Y-80841504D01*
X158383228Y-80835268D01*
X158493948Y-80712301D01*
X158493949Y-80712300D01*
X158498367Y-80707393D01*
X158563238Y-80595033D01*
X158585295Y-80556830D01*
X158585296Y-80556829D01*
X158588599Y-80551107D01*
X158625806Y-80436595D01*
X158642325Y-80385754D01*
X158642325Y-80385753D01*
X158644365Y-80379475D01*
X158647411Y-80350500D01*
X158662539Y-80206565D01*
X158663229Y-80200000D01*
X158651298Y-80086486D01*
X158645055Y-80027089D01*
X158645055Y-80027088D01*
X158644365Y-80020525D01*
X158638084Y-80001192D01*
X158590641Y-79855178D01*
X158588599Y-79848893D01*
X158498367Y-79692607D01*
X158433535Y-79620603D01*
X158402819Y-79556598D01*
X158411583Y-79486144D01*
X158418049Y-79473302D01*
X158488599Y-79351107D01*
X158524211Y-79241504D01*
X158542325Y-79185754D01*
X158542325Y-79185753D01*
X158544365Y-79179475D01*
X158548304Y-79142004D01*
X158562539Y-79006565D01*
X158563229Y-79000000D01*
X158550098Y-78875068D01*
X158545055Y-78827089D01*
X158545055Y-78827088D01*
X158544365Y-78820525D01*
X158500662Y-78686019D01*
X158498634Y-78615053D01*
X158535297Y-78554256D01*
X158599009Y-78522930D01*
X158646691Y-78523838D01*
X158779442Y-78552054D01*
X158809768Y-78558500D01*
X158990232Y-78558500D01*
X158996685Y-78557128D01*
X158996689Y-78557128D01*
X159078492Y-78539740D01*
X159166752Y-78520980D01*
X159197568Y-78507260D01*
X159243998Y-78486588D01*
X159314365Y-78477154D01*
X159378662Y-78507260D01*
X159416476Y-78567349D01*
X159415800Y-78638343D01*
X159412711Y-78646625D01*
X159411401Y-78648893D01*
X159409359Y-78655178D01*
X159371106Y-78772911D01*
X159355635Y-78820525D01*
X159354945Y-78827088D01*
X159354945Y-78827089D01*
X159349902Y-78875068D01*
X159336771Y-79000000D01*
X159337461Y-79006565D01*
X159353413Y-79158339D01*
X159340641Y-79228178D01*
X159316261Y-79261533D01*
X159228396Y-79347578D01*
X159208486Y-79367075D01*
X159204675Y-79372989D01*
X159204673Y-79372991D01*
X159155757Y-79448893D01*
X159116304Y-79510112D01*
X159058103Y-79670018D01*
X159036775Y-79838845D01*
X159053381Y-80008201D01*
X159055605Y-80014886D01*
X159055605Y-80014887D01*
X159073098Y-80067472D01*
X159107094Y-80169669D01*
X159110741Y-80175691D01*
X159110742Y-80175693D01*
X159190503Y-80307393D01*
X159195246Y-80315225D01*
X159313455Y-80437634D01*
X159455846Y-80530812D01*
X159462450Y-80533268D01*
X159462452Y-80533269D01*
X159500928Y-80547578D01*
X159615341Y-80590128D01*
X159784015Y-80612634D01*
X159791026Y-80611996D01*
X159791030Y-80611996D01*
X159946462Y-80597850D01*
X159953483Y-80597211D01*
X159960185Y-80595033D01*
X159960187Y-80595033D01*
X160108623Y-80546803D01*
X160108626Y-80546802D01*
X160115322Y-80544626D01*
X160121373Y-80541019D01*
X160121377Y-80541017D01*
X160139414Y-80530265D01*
X160208168Y-80512564D01*
X160258853Y-80525544D01*
X160261600Y-80527341D01*
X160268212Y-80529800D01*
X160402151Y-80579612D01*
X160459028Y-80622104D01*
X160477790Y-80657940D01*
X160479800Y-80663984D01*
X160479803Y-80663991D01*
X160482024Y-80670667D01*
X160485671Y-80676689D01*
X160499427Y-80699402D01*
X160570176Y-80816223D01*
X160688385Y-80938632D01*
X160694281Y-80942490D01*
X160816323Y-81022352D01*
X160830776Y-81031810D01*
X160837380Y-81034266D01*
X160837382Y-81034267D01*
X160873774Y-81047801D01*
X160990271Y-81091126D01*
X161158945Y-81113632D01*
X161165956Y-81112994D01*
X161165960Y-81112994D01*
X161321392Y-81098848D01*
X161328413Y-81098209D01*
X161335115Y-81096031D01*
X161335117Y-81096031D01*
X161483553Y-81047801D01*
X161483556Y-81047800D01*
X161490252Y-81045624D01*
X161636420Y-80958490D01*
X161641514Y-80953639D01*
X161641518Y-80953636D01*
X161708763Y-80889599D01*
X161759651Y-80841139D01*
X161772824Y-80821313D01*
X161845251Y-80712301D01*
X161853424Y-80700000D01*
X167636771Y-80700000D01*
X167637461Y-80706565D01*
X167650989Y-80835268D01*
X167655635Y-80879475D01*
X167711401Y-81051107D01*
X167714704Y-81056829D01*
X167714705Y-81056830D01*
X167737338Y-81096031D01*
X167801633Y-81207393D01*
X167806051Y-81212300D01*
X167806052Y-81212301D01*
X167858713Y-81270787D01*
X167922387Y-81341504D01*
X167927729Y-81345385D01*
X167927731Y-81345387D01*
X168007216Y-81403136D01*
X168068385Y-81447578D01*
X168074413Y-81450262D01*
X168074415Y-81450263D01*
X168180064Y-81497301D01*
X168233248Y-81520980D01*
X168314117Y-81538169D01*
X168403311Y-81557128D01*
X168403315Y-81557128D01*
X168409768Y-81558500D01*
X168590232Y-81558500D01*
X168596685Y-81557128D01*
X168596689Y-81557128D01*
X168685883Y-81538169D01*
X168766752Y-81520980D01*
X168819936Y-81497301D01*
X168925585Y-81450263D01*
X168925587Y-81450262D01*
X168931615Y-81447578D01*
X168992784Y-81403136D01*
X169072269Y-81345387D01*
X169072271Y-81345385D01*
X169077613Y-81341504D01*
X169141287Y-81270787D01*
X169193948Y-81212301D01*
X169193949Y-81212300D01*
X169198367Y-81207393D01*
X169262662Y-81096031D01*
X169285295Y-81056830D01*
X169285296Y-81056829D01*
X169288599Y-81051107D01*
X169344365Y-80879475D01*
X169349012Y-80835268D01*
X169362539Y-80706565D01*
X169363229Y-80700000D01*
X169345362Y-80530012D01*
X169358134Y-80460175D01*
X169406636Y-80408328D01*
X169475468Y-80390933D01*
X169542778Y-80413514D01*
X169564305Y-80432528D01*
X169572387Y-80441504D01*
X169577729Y-80445385D01*
X169577731Y-80445387D01*
X169713043Y-80543697D01*
X169718385Y-80547578D01*
X169724413Y-80550262D01*
X169724415Y-80550263D01*
X169867339Y-80613897D01*
X169883248Y-80620980D01*
X169962809Y-80637891D01*
X170053311Y-80657128D01*
X170053315Y-80657128D01*
X170059768Y-80658500D01*
X170240232Y-80658500D01*
X170246685Y-80657128D01*
X170246689Y-80657128D01*
X170337191Y-80637891D01*
X170416752Y-80620980D01*
X170432661Y-80613897D01*
X170575585Y-80550263D01*
X170575587Y-80550262D01*
X170581615Y-80547578D01*
X170586957Y-80543697D01*
X170722269Y-80445387D01*
X170722271Y-80445385D01*
X170727613Y-80441504D01*
X170773147Y-80390933D01*
X170843948Y-80312301D01*
X170843949Y-80312300D01*
X170848367Y-80307393D01*
X170867069Y-80275000D01*
X174886771Y-80275000D01*
X174887461Y-80281565D01*
X174894707Y-80350500D01*
X174905635Y-80454475D01*
X174907675Y-80460753D01*
X174907675Y-80460754D01*
X174934990Y-80544822D01*
X174961401Y-80626107D01*
X174964704Y-80631829D01*
X174964705Y-80631830D01*
X174979311Y-80657128D01*
X175051633Y-80782393D01*
X175056051Y-80787300D01*
X175056052Y-80787301D01*
X175167965Y-80911593D01*
X175172387Y-80916504D01*
X175177729Y-80920385D01*
X175177731Y-80920387D01*
X175263697Y-80982845D01*
X175318385Y-81022578D01*
X175324413Y-81025262D01*
X175324415Y-81025263D01*
X175474439Y-81092058D01*
X175483248Y-81095980D01*
X175563294Y-81112994D01*
X175653311Y-81132128D01*
X175653315Y-81132128D01*
X175659768Y-81133500D01*
X175840232Y-81133500D01*
X175846685Y-81132128D01*
X175846689Y-81132128D01*
X175936706Y-81112994D01*
X176016752Y-81095980D01*
X176025561Y-81092058D01*
X176175585Y-81025263D01*
X176175587Y-81025262D01*
X176181615Y-81022578D01*
X176236303Y-80982845D01*
X176322269Y-80920387D01*
X176322271Y-80920385D01*
X176327613Y-80916504D01*
X176332035Y-80911593D01*
X176443948Y-80787301D01*
X176443949Y-80787300D01*
X176448367Y-80782393D01*
X176520689Y-80657128D01*
X176535295Y-80631830D01*
X176535296Y-80631829D01*
X176538599Y-80626107D01*
X176565010Y-80544822D01*
X176592325Y-80460754D01*
X176592325Y-80460753D01*
X176594365Y-80454475D01*
X176605294Y-80350500D01*
X176612539Y-80281565D01*
X176613229Y-80275000D01*
X176600207Y-80151107D01*
X176595055Y-80102089D01*
X176595055Y-80102088D01*
X176594365Y-80095525D01*
X176581776Y-80056778D01*
X176553576Y-79969987D01*
X176538599Y-79923893D01*
X176512692Y-79879020D01*
X176451668Y-79773325D01*
X176448367Y-79767607D01*
X176432751Y-79750263D01*
X176332035Y-79638407D01*
X176332034Y-79638406D01*
X176327613Y-79633496D01*
X176209115Y-79547402D01*
X176198151Y-79539436D01*
X176154797Y-79483214D01*
X176148722Y-79412477D01*
X176181854Y-79349686D01*
X176198151Y-79335564D01*
X176264031Y-79287699D01*
X176327613Y-79241504D01*
X176339612Y-79228178D01*
X176443948Y-79112301D01*
X176443949Y-79112300D01*
X176448367Y-79107393D01*
X176538599Y-78951107D01*
X176572970Y-78845322D01*
X176592325Y-78785754D01*
X176592325Y-78785753D01*
X176594365Y-78779475D01*
X176613229Y-78600000D01*
X176605068Y-78522352D01*
X176595055Y-78427089D01*
X176595055Y-78427088D01*
X176594365Y-78420525D01*
X176575807Y-78363407D01*
X176540641Y-78255178D01*
X176538599Y-78248893D01*
X176448367Y-78092607D01*
X176418738Y-78059700D01*
X176332035Y-77963407D01*
X176332034Y-77963406D01*
X176327613Y-77958496D01*
X176308793Y-77944822D01*
X176186957Y-77856303D01*
X176186956Y-77856302D01*
X176181615Y-77852422D01*
X176175587Y-77849738D01*
X176175585Y-77849737D01*
X176022783Y-77781705D01*
X176022781Y-77781705D01*
X176016752Y-77779020D01*
X175912228Y-77756803D01*
X175846689Y-77742872D01*
X175846685Y-77742872D01*
X175840232Y-77741500D01*
X175659768Y-77741500D01*
X175653315Y-77742872D01*
X175653311Y-77742872D01*
X175587772Y-77756803D01*
X175483248Y-77779020D01*
X175477219Y-77781704D01*
X175477217Y-77781705D01*
X175324416Y-77849737D01*
X175324414Y-77849738D01*
X175318386Y-77852422D01*
X175313045Y-77856302D01*
X175313044Y-77856303D01*
X175177731Y-77954613D01*
X175177729Y-77954615D01*
X175172387Y-77958496D01*
X175167966Y-77963406D01*
X175167965Y-77963407D01*
X175081263Y-78059700D01*
X175051633Y-78092607D01*
X174961401Y-78248893D01*
X174959359Y-78255178D01*
X174924194Y-78363407D01*
X174905635Y-78420525D01*
X174904945Y-78427088D01*
X174904945Y-78427089D01*
X174894932Y-78522352D01*
X174886771Y-78600000D01*
X174905635Y-78779475D01*
X174907675Y-78785753D01*
X174907675Y-78785754D01*
X174927030Y-78845322D01*
X174961401Y-78951107D01*
X175051633Y-79107393D01*
X175056051Y-79112300D01*
X175056052Y-79112301D01*
X175160388Y-79228178D01*
X175172387Y-79241504D01*
X175301851Y-79335565D01*
X175345204Y-79391786D01*
X175351279Y-79462522D01*
X175318148Y-79525314D01*
X175301850Y-79539436D01*
X175177731Y-79629613D01*
X175177729Y-79629615D01*
X175172387Y-79633496D01*
X175167966Y-79638406D01*
X175167965Y-79638407D01*
X175067250Y-79750263D01*
X175051633Y-79767607D01*
X175048332Y-79773325D01*
X174987309Y-79879020D01*
X174961401Y-79923893D01*
X174946424Y-79969987D01*
X174918225Y-80056778D01*
X174905635Y-80095525D01*
X174904945Y-80102088D01*
X174904945Y-80102089D01*
X174899793Y-80151107D01*
X174886771Y-80275000D01*
X170867069Y-80275000D01*
X170938599Y-80151107D01*
X170978811Y-80027346D01*
X170992325Y-79985754D01*
X170992325Y-79985753D01*
X170994365Y-79979475D01*
X170997209Y-79952422D01*
X171012539Y-79806565D01*
X171013229Y-79800000D01*
X170994365Y-79620525D01*
X170938599Y-79448893D01*
X170925052Y-79425429D01*
X170908315Y-79356433D01*
X170931536Y-79289342D01*
X170971169Y-79253312D01*
X170975580Y-79250765D01*
X170981615Y-79248078D01*
X171085073Y-79172911D01*
X171122269Y-79145887D01*
X171122271Y-79145885D01*
X171127613Y-79142004D01*
X171158777Y-79107393D01*
X171243948Y-79012801D01*
X171243949Y-79012800D01*
X171248367Y-79007893D01*
X171338599Y-78851607D01*
X171394365Y-78679975D01*
X171398234Y-78643170D01*
X171402771Y-78600000D01*
X172086771Y-78600000D01*
X172105635Y-78779475D01*
X172107675Y-78785753D01*
X172107675Y-78785754D01*
X172127030Y-78845322D01*
X172161401Y-78951107D01*
X172251633Y-79107393D01*
X172256051Y-79112300D01*
X172256052Y-79112301D01*
X172360388Y-79228178D01*
X172372387Y-79241504D01*
X172377729Y-79245385D01*
X172377731Y-79245387D01*
X172438230Y-79289342D01*
X172518385Y-79347578D01*
X172524413Y-79350262D01*
X172524415Y-79350263D01*
X172573035Y-79371910D01*
X172683248Y-79420980D01*
X172771508Y-79439740D01*
X172853311Y-79457128D01*
X172853315Y-79457128D01*
X172859768Y-79458500D01*
X173040232Y-79458500D01*
X173046685Y-79457128D01*
X173046689Y-79457128D01*
X173128492Y-79439740D01*
X173216752Y-79420980D01*
X173326965Y-79371910D01*
X173375585Y-79350263D01*
X173375587Y-79350262D01*
X173381615Y-79347578D01*
X173461770Y-79289342D01*
X173522269Y-79245387D01*
X173522271Y-79245385D01*
X173527613Y-79241504D01*
X173539612Y-79228178D01*
X173643948Y-79112301D01*
X173643949Y-79112300D01*
X173648367Y-79107393D01*
X173738599Y-78951107D01*
X173772970Y-78845322D01*
X173792325Y-78785754D01*
X173792325Y-78785753D01*
X173794365Y-78779475D01*
X173813229Y-78600000D01*
X173805068Y-78522352D01*
X173795055Y-78427089D01*
X173795055Y-78427088D01*
X173794365Y-78420525D01*
X173775807Y-78363407D01*
X173740641Y-78255178D01*
X173738599Y-78248893D01*
X173648367Y-78092607D01*
X173618738Y-78059700D01*
X173532035Y-77963407D01*
X173532034Y-77963406D01*
X173527613Y-77958496D01*
X173508793Y-77944822D01*
X173386957Y-77856303D01*
X173386956Y-77856302D01*
X173381615Y-77852422D01*
X173375587Y-77849738D01*
X173375585Y-77849737D01*
X173222783Y-77781705D01*
X173222781Y-77781705D01*
X173216752Y-77779020D01*
X173112228Y-77756803D01*
X173046689Y-77742872D01*
X173046685Y-77742872D01*
X173040232Y-77741500D01*
X172859768Y-77741500D01*
X172853315Y-77742872D01*
X172853311Y-77742872D01*
X172787772Y-77756803D01*
X172683248Y-77779020D01*
X172677219Y-77781704D01*
X172677217Y-77781705D01*
X172524416Y-77849737D01*
X172524414Y-77849738D01*
X172518386Y-77852422D01*
X172513045Y-77856302D01*
X172513044Y-77856303D01*
X172377731Y-77954613D01*
X172377729Y-77954615D01*
X172372387Y-77958496D01*
X172367966Y-77963406D01*
X172367965Y-77963407D01*
X172281263Y-78059700D01*
X172251633Y-78092607D01*
X172161401Y-78248893D01*
X172159359Y-78255178D01*
X172124194Y-78363407D01*
X172105635Y-78420525D01*
X172104945Y-78427088D01*
X172104945Y-78427089D01*
X172094932Y-78522352D01*
X172086771Y-78600000D01*
X171402771Y-78600000D01*
X171412539Y-78507065D01*
X171413229Y-78500500D01*
X171398820Y-78363407D01*
X171395055Y-78327589D01*
X171395055Y-78327588D01*
X171394365Y-78321025D01*
X171391622Y-78312581D01*
X171348225Y-78179020D01*
X171338599Y-78149393D01*
X171248367Y-77993107D01*
X171238681Y-77982349D01*
X171132035Y-77863907D01*
X171132034Y-77863906D01*
X171127613Y-77858996D01*
X171114870Y-77849737D01*
X170986957Y-77756803D01*
X170986956Y-77756802D01*
X170981615Y-77752922D01*
X170975587Y-77750238D01*
X170975585Y-77750237D01*
X170822783Y-77682205D01*
X170822781Y-77682205D01*
X170816752Y-77679520D01*
X170727786Y-77660610D01*
X170646689Y-77643372D01*
X170646685Y-77643372D01*
X170640232Y-77642000D01*
X170459768Y-77642000D01*
X170453315Y-77643372D01*
X170453311Y-77643372D01*
X170372214Y-77660610D01*
X170283248Y-77679520D01*
X170277219Y-77682204D01*
X170277217Y-77682205D01*
X170124416Y-77750237D01*
X170124414Y-77750238D01*
X170118386Y-77752922D01*
X170113045Y-77756802D01*
X170113044Y-77756803D01*
X169977731Y-77855113D01*
X169977729Y-77855115D01*
X169972387Y-77858996D01*
X169967966Y-77863906D01*
X169967965Y-77863907D01*
X169861320Y-77982349D01*
X169851633Y-77993107D01*
X169761401Y-78149393D01*
X169751775Y-78179020D01*
X169708379Y-78312581D01*
X169705635Y-78321025D01*
X169704945Y-78327588D01*
X169704945Y-78327589D01*
X169701180Y-78363407D01*
X169686771Y-78500500D01*
X169687461Y-78507065D01*
X169701767Y-78643170D01*
X169705635Y-78679975D01*
X169761401Y-78851607D01*
X169774948Y-78875070D01*
X169791686Y-78944063D01*
X169768467Y-79011155D01*
X169728832Y-79047188D01*
X169724421Y-79049735D01*
X169718386Y-79052422D01*
X169650595Y-79101675D01*
X169577731Y-79154613D01*
X169577729Y-79154615D01*
X169572387Y-79158496D01*
X169567966Y-79163406D01*
X169567965Y-79163407D01*
X169533291Y-79201917D01*
X169451633Y-79292607D01*
X169361401Y-79448893D01*
X169305635Y-79620525D01*
X169286771Y-79800000D01*
X169303200Y-79956303D01*
X169304638Y-79969987D01*
X169291866Y-80039825D01*
X169243364Y-80091672D01*
X169174532Y-80109067D01*
X169107222Y-80086486D01*
X169085695Y-80067472D01*
X169082033Y-80063405D01*
X169077613Y-80058496D01*
X169071109Y-80053770D01*
X168936957Y-79956303D01*
X168936956Y-79956302D01*
X168931615Y-79952422D01*
X168925587Y-79949738D01*
X168925585Y-79949737D01*
X168772783Y-79881705D01*
X168772781Y-79881705D01*
X168766752Y-79879020D01*
X168654583Y-79855178D01*
X168596689Y-79842872D01*
X168596685Y-79842872D01*
X168590232Y-79841500D01*
X168409768Y-79841500D01*
X168403315Y-79842872D01*
X168403311Y-79842872D01*
X168345417Y-79855178D01*
X168233248Y-79879020D01*
X168227219Y-79881704D01*
X168227217Y-79881705D01*
X168074416Y-79949737D01*
X168074414Y-79949738D01*
X168068386Y-79952422D01*
X168063045Y-79956302D01*
X168063044Y-79956303D01*
X167927731Y-80054613D01*
X167927729Y-80054615D01*
X167922387Y-80058496D01*
X167917967Y-80063405D01*
X167917965Y-80063407D01*
X167869053Y-80117730D01*
X167801633Y-80192607D01*
X167791517Y-80210129D01*
X167727916Y-80320289D01*
X167711401Y-80348893D01*
X167709359Y-80355178D01*
X167675056Y-80460754D01*
X167655635Y-80520525D01*
X167654945Y-80527088D01*
X167654945Y-80527089D01*
X167639854Y-80670667D01*
X167636771Y-80700000D01*
X161853424Y-80700000D01*
X161853821Y-80699402D01*
X161914249Y-80540325D01*
X161937931Y-80371813D01*
X161938229Y-80350500D01*
X161919261Y-80181392D01*
X161863298Y-80020689D01*
X161773122Y-79876379D01*
X161745828Y-79848893D01*
X161670786Y-79773325D01*
X161653216Y-79755632D01*
X161634410Y-79743697D01*
X161587388Y-79713856D01*
X161509538Y-79664451D01*
X161456000Y-79645387D01*
X161379426Y-79618120D01*
X161321962Y-79576426D01*
X161302702Y-79540859D01*
X161294122Y-79516220D01*
X161290306Y-79510112D01*
X161252051Y-79448893D01*
X161203946Y-79371910D01*
X161179784Y-79347578D01*
X161084040Y-79251163D01*
X161086213Y-79249005D01*
X161053411Y-79201917D01*
X161047592Y-79148771D01*
X161048820Y-79137093D01*
X161063229Y-79000000D01*
X162936771Y-79000000D01*
X162937461Y-79006565D01*
X162951697Y-79142004D01*
X162955635Y-79179475D01*
X162957675Y-79185753D01*
X162957675Y-79185754D01*
X162975789Y-79241504D01*
X163011401Y-79351107D01*
X163101633Y-79507393D01*
X163106048Y-79512296D01*
X163106052Y-79512301D01*
X163217965Y-79636593D01*
X163222387Y-79641504D01*
X163227729Y-79645385D01*
X163227731Y-79645387D01*
X163339656Y-79726705D01*
X163368385Y-79747578D01*
X163374413Y-79750262D01*
X163374415Y-79750263D01*
X163471381Y-79793435D01*
X163533248Y-79820980D01*
X163617297Y-79838845D01*
X163703311Y-79857128D01*
X163703315Y-79857128D01*
X163709768Y-79858500D01*
X163890232Y-79858500D01*
X163896685Y-79857128D01*
X163896689Y-79857128D01*
X163982703Y-79838845D01*
X164066752Y-79820980D01*
X164128619Y-79793435D01*
X164225585Y-79750263D01*
X164225587Y-79750262D01*
X164231615Y-79747578D01*
X164260344Y-79726705D01*
X164372269Y-79645387D01*
X164372271Y-79645385D01*
X164377613Y-79641504D01*
X164382035Y-79636593D01*
X164493948Y-79512301D01*
X164493952Y-79512296D01*
X164498367Y-79507393D01*
X164588599Y-79351107D01*
X164624211Y-79241504D01*
X164642325Y-79185754D01*
X164642325Y-79185753D01*
X164644365Y-79179475D01*
X164648304Y-79142004D01*
X164662539Y-79006565D01*
X164663229Y-79000000D01*
X164650098Y-78875068D01*
X164645055Y-78827089D01*
X164645055Y-78827088D01*
X164644365Y-78820525D01*
X164628895Y-78772911D01*
X164590641Y-78655178D01*
X164588599Y-78648893D01*
X164569062Y-78615053D01*
X164553311Y-78587773D01*
X164498367Y-78492607D01*
X164492948Y-78486588D01*
X164382035Y-78363407D01*
X164382034Y-78363406D01*
X164377613Y-78358496D01*
X164366282Y-78350263D01*
X164236957Y-78256303D01*
X164236956Y-78256302D01*
X164231615Y-78252422D01*
X164225587Y-78249738D01*
X164225585Y-78249737D01*
X164072783Y-78181705D01*
X164072781Y-78181705D01*
X164066752Y-78179020D01*
X163971148Y-78158699D01*
X163896689Y-78142872D01*
X163896685Y-78142872D01*
X163890232Y-78141500D01*
X163709768Y-78141500D01*
X163703315Y-78142872D01*
X163703311Y-78142872D01*
X163628852Y-78158699D01*
X163533248Y-78179020D01*
X163527219Y-78181704D01*
X163527217Y-78181705D01*
X163374416Y-78249737D01*
X163374414Y-78249738D01*
X163368386Y-78252422D01*
X163363045Y-78256302D01*
X163363044Y-78256303D01*
X163227731Y-78354613D01*
X163227729Y-78354615D01*
X163222387Y-78358496D01*
X163217966Y-78363406D01*
X163217965Y-78363407D01*
X163107053Y-78486588D01*
X163101633Y-78492607D01*
X163046689Y-78587773D01*
X163030939Y-78615053D01*
X163011401Y-78648893D01*
X163009359Y-78655178D01*
X162971106Y-78772911D01*
X162955635Y-78820525D01*
X162954945Y-78827088D01*
X162954945Y-78827089D01*
X162949902Y-78875068D01*
X162936771Y-79000000D01*
X161063229Y-79000000D01*
X161050098Y-78875068D01*
X161045055Y-78827089D01*
X161045055Y-78827088D01*
X161044365Y-78820525D01*
X161028895Y-78772911D01*
X160990641Y-78655178D01*
X160988599Y-78648893D01*
X160969062Y-78615053D01*
X160953311Y-78587773D01*
X160898367Y-78492607D01*
X160892948Y-78486588D01*
X160782035Y-78363407D01*
X160782034Y-78363406D01*
X160777613Y-78358496D01*
X160766282Y-78350263D01*
X160636957Y-78256303D01*
X160636956Y-78256302D01*
X160631615Y-78252422D01*
X160625587Y-78249738D01*
X160625585Y-78249737D01*
X160472783Y-78181705D01*
X160472781Y-78181705D01*
X160466752Y-78179020D01*
X160371148Y-78158699D01*
X160296689Y-78142872D01*
X160296685Y-78142872D01*
X160290232Y-78141500D01*
X160109768Y-78141500D01*
X160103315Y-78142872D01*
X160103311Y-78142872D01*
X160028852Y-78158699D01*
X159933248Y-78179020D01*
X159927219Y-78181704D01*
X159927217Y-78181705D01*
X159856002Y-78213412D01*
X159785635Y-78222846D01*
X159721338Y-78192740D01*
X159683524Y-78132651D01*
X159684200Y-78061657D01*
X159687289Y-78053375D01*
X159688599Y-78051107D01*
X159744365Y-77879475D01*
X159746518Y-77858996D01*
X159762539Y-77706565D01*
X159763229Y-77700000D01*
X159762338Y-77691518D01*
X159757133Y-77642000D01*
X159751598Y-77589343D01*
X165036775Y-77589343D01*
X165053381Y-77758699D01*
X165107094Y-77920167D01*
X165110741Y-77926189D01*
X165110742Y-77926191D01*
X165165079Y-78015911D01*
X165195246Y-78065723D01*
X165301896Y-78176162D01*
X165311511Y-78186119D01*
X165344443Y-78249016D01*
X165340707Y-78312581D01*
X165307676Y-78414243D01*
X165305635Y-78420525D01*
X165304945Y-78427088D01*
X165304945Y-78427089D01*
X165294932Y-78522352D01*
X165286771Y-78600000D01*
X165305635Y-78779475D01*
X165307675Y-78785753D01*
X165307675Y-78785754D01*
X165327030Y-78845322D01*
X165361401Y-78951107D01*
X165451633Y-79107393D01*
X165456051Y-79112300D01*
X165456052Y-79112301D01*
X165560388Y-79228178D01*
X165572387Y-79241504D01*
X165577729Y-79245385D01*
X165577731Y-79245387D01*
X165638230Y-79289342D01*
X165718385Y-79347578D01*
X165724413Y-79350262D01*
X165724415Y-79350263D01*
X165773035Y-79371910D01*
X165883248Y-79420980D01*
X165971508Y-79439740D01*
X166053311Y-79457128D01*
X166053315Y-79457128D01*
X166059768Y-79458500D01*
X166240232Y-79458500D01*
X166246685Y-79457128D01*
X166246689Y-79457128D01*
X166328492Y-79439740D01*
X166416752Y-79420980D01*
X166526965Y-79371910D01*
X166575585Y-79350263D01*
X166575587Y-79350262D01*
X166581615Y-79347578D01*
X166661770Y-79289342D01*
X166722269Y-79245387D01*
X166722271Y-79245385D01*
X166727613Y-79241504D01*
X166739612Y-79228178D01*
X166843948Y-79112301D01*
X166843949Y-79112300D01*
X166848367Y-79107393D01*
X166938599Y-78951107D01*
X166972970Y-78845322D01*
X166992325Y-78785754D01*
X166992325Y-78785753D01*
X166994365Y-78779475D01*
X167013229Y-78600000D01*
X167486771Y-78600000D01*
X167505635Y-78779475D01*
X167507675Y-78785753D01*
X167507675Y-78785754D01*
X167527030Y-78845322D01*
X167561401Y-78951107D01*
X167651633Y-79107393D01*
X167656051Y-79112300D01*
X167656052Y-79112301D01*
X167760388Y-79228178D01*
X167772387Y-79241504D01*
X167777729Y-79245385D01*
X167777731Y-79245387D01*
X167838230Y-79289342D01*
X167918385Y-79347578D01*
X167924413Y-79350262D01*
X167924415Y-79350263D01*
X167973035Y-79371910D01*
X168083248Y-79420980D01*
X168171508Y-79439740D01*
X168253311Y-79457128D01*
X168253315Y-79457128D01*
X168259768Y-79458500D01*
X168440232Y-79458500D01*
X168446685Y-79457128D01*
X168446689Y-79457128D01*
X168528492Y-79439740D01*
X168616752Y-79420980D01*
X168726965Y-79371910D01*
X168775585Y-79350263D01*
X168775587Y-79350262D01*
X168781615Y-79347578D01*
X168861770Y-79289342D01*
X168922269Y-79245387D01*
X168922271Y-79245385D01*
X168927613Y-79241504D01*
X168939612Y-79228178D01*
X169043948Y-79112301D01*
X169043949Y-79112300D01*
X169048367Y-79107393D01*
X169138599Y-78951107D01*
X169172970Y-78845322D01*
X169192325Y-78785754D01*
X169192325Y-78785753D01*
X169194365Y-78779475D01*
X169213229Y-78600000D01*
X169205068Y-78522352D01*
X169195055Y-78427089D01*
X169195055Y-78427088D01*
X169194365Y-78420525D01*
X169175807Y-78363407D01*
X169140641Y-78255178D01*
X169138599Y-78248893D01*
X169048367Y-78092607D01*
X169018738Y-78059700D01*
X168932035Y-77963407D01*
X168932034Y-77963406D01*
X168927613Y-77958496D01*
X168908793Y-77944822D01*
X168786957Y-77856303D01*
X168786956Y-77856302D01*
X168781615Y-77852422D01*
X168775587Y-77849738D01*
X168775585Y-77849737D01*
X168622783Y-77781705D01*
X168622781Y-77781705D01*
X168616752Y-77779020D01*
X168512228Y-77756803D01*
X168446689Y-77742872D01*
X168446685Y-77742872D01*
X168440232Y-77741500D01*
X168259768Y-77741500D01*
X168253315Y-77742872D01*
X168253311Y-77742872D01*
X168187772Y-77756803D01*
X168083248Y-77779020D01*
X168077219Y-77781704D01*
X168077217Y-77781705D01*
X167924416Y-77849737D01*
X167924414Y-77849738D01*
X167918386Y-77852422D01*
X167913045Y-77856302D01*
X167913044Y-77856303D01*
X167777731Y-77954613D01*
X167777729Y-77954615D01*
X167772387Y-77958496D01*
X167767966Y-77963406D01*
X167767965Y-77963407D01*
X167681263Y-78059700D01*
X167651633Y-78092607D01*
X167561401Y-78248893D01*
X167559359Y-78255178D01*
X167524194Y-78363407D01*
X167505635Y-78420525D01*
X167504945Y-78427088D01*
X167504945Y-78427089D01*
X167494932Y-78522352D01*
X167486771Y-78600000D01*
X167013229Y-78600000D01*
X167005068Y-78522352D01*
X166995055Y-78427089D01*
X166995055Y-78427088D01*
X166994365Y-78420525D01*
X166975807Y-78363407D01*
X166940641Y-78255178D01*
X166938599Y-78248893D01*
X166848367Y-78092607D01*
X166818738Y-78059700D01*
X166732035Y-77963407D01*
X166732034Y-77963406D01*
X166727613Y-77958496D01*
X166645673Y-77898963D01*
X166596505Y-77863240D01*
X166553151Y-77807017D01*
X166545792Y-77743769D01*
X166559901Y-77643372D01*
X166563001Y-77621313D01*
X166563299Y-77600000D01*
X166544331Y-77430892D01*
X166488368Y-77270189D01*
X166482383Y-77260610D01*
X166438150Y-77189825D01*
X166398192Y-77125879D01*
X166362244Y-77089679D01*
X166328437Y-77027248D01*
X166333749Y-76956450D01*
X166364758Y-76909650D01*
X166384721Y-76890639D01*
X166410113Y-76852422D01*
X166435708Y-76813897D01*
X166478891Y-76748902D01*
X166539319Y-76589825D01*
X166563001Y-76421313D01*
X166563157Y-76410129D01*
X166563244Y-76403961D01*
X166563244Y-76403955D01*
X166563299Y-76400000D01*
X166544331Y-76230892D01*
X166488368Y-76070189D01*
X166482383Y-76060610D01*
X166446468Y-76003136D01*
X166398192Y-75925879D01*
X166362244Y-75889679D01*
X166328437Y-75827248D01*
X166333749Y-75756450D01*
X166364758Y-75709650D01*
X166384721Y-75690639D01*
X166478891Y-75548902D01*
X166539319Y-75389825D01*
X166563001Y-75221313D01*
X166563299Y-75200000D01*
X166544331Y-75030892D01*
X166488368Y-74870189D01*
X166482383Y-74860610D01*
X166441272Y-74794821D01*
X166398192Y-74725879D01*
X166385441Y-74713038D01*
X166362244Y-74689679D01*
X166328437Y-74627248D01*
X166333749Y-74556450D01*
X166364758Y-74509650D01*
X166384721Y-74490639D01*
X166478891Y-74348902D01*
X166539319Y-74189825D01*
X166563001Y-74021313D01*
X166563299Y-74000000D01*
X166544331Y-73830892D01*
X166488368Y-73670189D01*
X166482383Y-73660610D01*
X166448611Y-73606565D01*
X166398192Y-73525879D01*
X166362244Y-73489679D01*
X166328437Y-73427248D01*
X166333749Y-73356450D01*
X166364758Y-73309650D01*
X166384721Y-73290639D01*
X166407159Y-73256868D01*
X166474990Y-73154773D01*
X166478891Y-73148902D01*
X166539319Y-72989825D01*
X166563001Y-72821313D01*
X166563299Y-72800000D01*
X166544331Y-72630892D01*
X166488368Y-72470189D01*
X166482383Y-72460610D01*
X166460420Y-72425464D01*
X166398192Y-72325879D01*
X166278286Y-72205132D01*
X166262039Y-72194821D01*
X166223406Y-72170304D01*
X166134608Y-72113951D01*
X165974300Y-72056868D01*
X165805329Y-72036720D01*
X165798326Y-72037456D01*
X165798325Y-72037456D01*
X165643101Y-72053770D01*
X165643097Y-72053771D01*
X165636093Y-72054507D01*
X165629422Y-72056778D01*
X165481673Y-72107075D01*
X165481670Y-72107076D01*
X165475003Y-72109346D01*
X165469005Y-72113036D01*
X165469003Y-72113037D01*
X165336065Y-72194821D01*
X165336063Y-72194823D01*
X165330066Y-72198512D01*
X165208486Y-72317573D01*
X165116304Y-72460610D01*
X165058103Y-72620516D01*
X165036775Y-72789343D01*
X165053381Y-72958699D01*
X165107094Y-73120167D01*
X165110741Y-73126189D01*
X165110742Y-73126191D01*
X165191316Y-73259233D01*
X165195246Y-73265723D01*
X165228792Y-73300461D01*
X165239763Y-73311822D01*
X165272695Y-73374719D01*
X165266395Y-73445436D01*
X165237284Y-73489372D01*
X165208486Y-73517573D01*
X165116304Y-73660610D01*
X165058103Y-73820516D01*
X165036775Y-73989343D01*
X165053381Y-74158699D01*
X165107094Y-74320167D01*
X165110741Y-74326189D01*
X165110742Y-74326191D01*
X165190872Y-74458500D01*
X165195246Y-74465723D01*
X165228792Y-74500461D01*
X165239763Y-74511822D01*
X165272695Y-74574719D01*
X165266395Y-74645436D01*
X165237284Y-74689372D01*
X165222997Y-74703363D01*
X165214600Y-74711586D01*
X165208486Y-74717573D01*
X165204675Y-74723487D01*
X165204673Y-74723489D01*
X165158362Y-74795349D01*
X165116304Y-74860610D01*
X165058103Y-75020516D01*
X165036775Y-75189343D01*
X165053381Y-75358699D01*
X165107094Y-75520167D01*
X165110741Y-75526189D01*
X165110742Y-75526191D01*
X165124497Y-75548902D01*
X165195246Y-75665723D01*
X165228792Y-75700461D01*
X165239763Y-75711822D01*
X165272695Y-75774719D01*
X165266395Y-75845436D01*
X165237284Y-75889372D01*
X165208486Y-75917573D01*
X165204675Y-75923487D01*
X165204673Y-75923489D01*
X165134598Y-76032223D01*
X165116304Y-76060610D01*
X165058103Y-76220516D01*
X165036775Y-76389343D01*
X165053381Y-76558699D01*
X165107094Y-76720167D01*
X165110741Y-76726189D01*
X165110742Y-76726191D01*
X165191271Y-76859159D01*
X165195246Y-76865723D01*
X165228792Y-76900461D01*
X165239763Y-76911822D01*
X165272695Y-76974719D01*
X165266395Y-77045436D01*
X165237284Y-77089372D01*
X165233980Y-77092607D01*
X165213870Y-77112301D01*
X165208486Y-77117573D01*
X165204675Y-77123487D01*
X165204673Y-77123489D01*
X165125531Y-77246293D01*
X165116304Y-77260610D01*
X165086566Y-77342314D01*
X165063448Y-77405832D01*
X165058103Y-77420516D01*
X165036775Y-77589343D01*
X159751598Y-77589343D01*
X159746928Y-77544911D01*
X159759700Y-77475074D01*
X159808202Y-77423227D01*
X159877034Y-77405832D01*
X159923488Y-77416635D01*
X159927213Y-77418294D01*
X159927221Y-77418297D01*
X159933248Y-77420980D01*
X160012809Y-77437891D01*
X160103311Y-77457128D01*
X160103315Y-77457128D01*
X160109768Y-77458500D01*
X160290232Y-77458500D01*
X160296685Y-77457128D01*
X160296689Y-77457128D01*
X160387191Y-77437891D01*
X160466752Y-77420980D01*
X160500775Y-77405832D01*
X160625585Y-77350263D01*
X160625587Y-77350262D01*
X160631615Y-77347578D01*
X160636957Y-77343697D01*
X160772269Y-77245387D01*
X160772271Y-77245385D01*
X160777613Y-77241504D01*
X160889201Y-77117573D01*
X160893948Y-77112301D01*
X160893949Y-77112300D01*
X160898367Y-77107393D01*
X160988599Y-76951107D01*
X161044365Y-76779475D01*
X161049966Y-76726191D01*
X161062539Y-76606565D01*
X161063229Y-76600000D01*
X161044365Y-76420525D01*
X161034234Y-76389343D01*
X160990641Y-76255178D01*
X160988599Y-76248893D01*
X160982247Y-76237891D01*
X160903339Y-76101218D01*
X160886601Y-76032223D01*
X160909822Y-75965131D01*
X160925566Y-75946973D01*
X160979614Y-75895504D01*
X160979621Y-75895496D01*
X160984721Y-75890639D01*
X160993483Y-75877452D01*
X161050263Y-75791990D01*
X161078891Y-75748902D01*
X161139319Y-75589825D01*
X161163001Y-75421313D01*
X161163299Y-75400000D01*
X161144331Y-75230892D01*
X161127427Y-75182349D01*
X161090686Y-75076846D01*
X161088368Y-75070189D01*
X161082383Y-75060610D01*
X161053192Y-75013897D01*
X160998192Y-74925879D01*
X160878286Y-74805132D01*
X160862871Y-74795349D01*
X160823406Y-74770304D01*
X160734608Y-74713951D01*
X160574300Y-74656868D01*
X160405329Y-74636720D01*
X160398326Y-74637456D01*
X160398325Y-74637456D01*
X160243101Y-74653770D01*
X160243097Y-74653771D01*
X160236093Y-74654507D01*
X160229422Y-74656778D01*
X160081673Y-74707075D01*
X160081670Y-74707076D01*
X160075003Y-74709346D01*
X160069005Y-74713036D01*
X160069003Y-74713037D01*
X159936065Y-74794821D01*
X159936063Y-74794823D01*
X159930066Y-74798512D01*
X159808486Y-74917573D01*
X159804675Y-74923487D01*
X159804673Y-74923489D01*
X159720121Y-75054687D01*
X159716304Y-75060610D01*
X159713894Y-75067232D01*
X159664129Y-75203961D01*
X159658103Y-75220516D01*
X159636775Y-75389343D01*
X159653381Y-75558699D01*
X159707094Y-75720167D01*
X159721426Y-75743831D01*
X159739604Y-75812459D01*
X159717794Y-75880022D01*
X159687712Y-75911035D01*
X159622387Y-75958496D01*
X159617966Y-75963406D01*
X159617965Y-75963407D01*
X159587847Y-75996857D01*
X159501633Y-76092607D01*
X159487084Y-76117807D01*
X159417948Y-76237554D01*
X159411401Y-76248893D01*
X159409359Y-76255178D01*
X159365767Y-76389343D01*
X159355635Y-76420525D01*
X159336771Y-76600000D01*
X159349402Y-76720167D01*
X159353072Y-76755088D01*
X159340300Y-76824926D01*
X159291798Y-76876773D01*
X159222966Y-76894168D01*
X159176512Y-76883365D01*
X159172787Y-76881706D01*
X159172779Y-76881703D01*
X159166752Y-76879020D01*
X159059876Y-76856303D01*
X158996689Y-76842872D01*
X158996685Y-76842872D01*
X158990232Y-76841500D01*
X158809768Y-76841500D01*
X158784679Y-76846833D01*
X158701266Y-76864562D01*
X158630475Y-76859159D01*
X158573843Y-76816342D01*
X158549350Y-76749705D01*
X158549760Y-76728144D01*
X158550599Y-76720167D01*
X158563229Y-76600000D01*
X158544365Y-76420525D01*
X158536417Y-76396062D01*
X158503994Y-76296272D01*
X158501967Y-76225305D01*
X158538630Y-76164507D01*
X158584891Y-76137504D01*
X158708623Y-76097301D01*
X158708626Y-76097300D01*
X158715322Y-76095124D01*
X158861490Y-76007990D01*
X158866584Y-76003139D01*
X158866588Y-76003136D01*
X158979612Y-75895504D01*
X158984721Y-75890639D01*
X158993483Y-75877452D01*
X159050263Y-75791990D01*
X159078891Y-75748902D01*
X159139319Y-75589825D01*
X159163001Y-75421313D01*
X159163299Y-75400000D01*
X159144331Y-75230892D01*
X159127427Y-75182349D01*
X159090686Y-75076846D01*
X159088368Y-75070189D01*
X159082383Y-75060610D01*
X159053192Y-75013897D01*
X158998192Y-74925879D01*
X158878286Y-74805132D01*
X158862871Y-74795349D01*
X158823406Y-74770304D01*
X158734608Y-74713951D01*
X158574300Y-74656868D01*
X158405329Y-74636720D01*
X158398326Y-74637456D01*
X158398325Y-74637456D01*
X158243101Y-74653770D01*
X158243097Y-74653771D01*
X158236093Y-74654507D01*
X158229422Y-74656778D01*
X158081673Y-74707075D01*
X158081670Y-74707076D01*
X158075003Y-74709346D01*
X158069007Y-74713034D01*
X158069000Y-74713038D01*
X157965537Y-74776690D01*
X157897036Y-74795349D01*
X157832000Y-74775758D01*
X157740562Y-74717729D01*
X157740558Y-74717727D01*
X157734608Y-74713951D01*
X157574300Y-74656868D01*
X157405329Y-74636720D01*
X157398326Y-74637456D01*
X157398325Y-74637456D01*
X157243101Y-74653770D01*
X157243097Y-74653771D01*
X157236093Y-74654507D01*
X157229422Y-74656778D01*
X157081673Y-74707075D01*
X157081670Y-74707076D01*
X157075003Y-74709346D01*
X157069005Y-74713036D01*
X157069003Y-74713037D01*
X156936065Y-74794821D01*
X156936063Y-74794823D01*
X156930066Y-74798512D01*
X156808486Y-74917573D01*
X156804675Y-74923487D01*
X156804673Y-74923489D01*
X156720121Y-75054687D01*
X156716304Y-75060610D01*
X156713894Y-75067232D01*
X156664129Y-75203961D01*
X156658103Y-75220516D01*
X156636775Y-75389343D01*
X156653381Y-75558699D01*
X156707094Y-75720167D01*
X156710741Y-75726189D01*
X156710742Y-75726191D01*
X156787191Y-75852422D01*
X156795246Y-75865723D01*
X156913455Y-75988132D01*
X156921530Y-75993416D01*
X156922618Y-75994693D01*
X156924776Y-75996478D01*
X156924462Y-75996857D01*
X156967578Y-76047452D01*
X156977103Y-76117807D01*
X156961656Y-76161848D01*
X156917753Y-76237891D01*
X156911401Y-76248893D01*
X156909359Y-76255178D01*
X156865767Y-76389343D01*
X156855635Y-76420525D01*
X156836771Y-76600000D01*
X156837461Y-76606565D01*
X156850035Y-76726191D01*
X156855635Y-76779475D01*
X156911401Y-76951107D01*
X156914704Y-76956829D01*
X156914705Y-76956830D01*
X156977919Y-77066319D01*
X156994657Y-77135314D01*
X156971437Y-77202406D01*
X156915630Y-77246293D01*
X156853882Y-77254433D01*
X156745450Y-77241504D01*
X156705329Y-77236720D01*
X156698326Y-77237456D01*
X156698325Y-77237456D01*
X156543101Y-77253770D01*
X156543097Y-77253771D01*
X156536093Y-77254507D01*
X156529422Y-77256778D01*
X156381673Y-77307075D01*
X156381670Y-77307076D01*
X156375003Y-77309346D01*
X156369005Y-77313036D01*
X156369003Y-77313037D01*
X156236065Y-77394821D01*
X156236063Y-77394823D01*
X156230066Y-77398512D01*
X156170211Y-77457127D01*
X156143119Y-77483658D01*
X156108486Y-77517573D01*
X156104675Y-77523487D01*
X156104673Y-77523489D01*
X156039109Y-77625224D01*
X156016304Y-77660610D01*
X155958103Y-77820516D01*
X155936775Y-77989343D01*
X146166523Y-77989343D01*
X146188599Y-77951107D01*
X146244365Y-77779475D01*
X146256163Y-77667232D01*
X146262539Y-77606565D01*
X146263229Y-77600000D01*
X146252245Y-77495498D01*
X146245055Y-77427089D01*
X146245055Y-77427088D01*
X146244365Y-77420525D01*
X146242212Y-77413897D01*
X146190641Y-77255178D01*
X146188599Y-77248893D01*
X146182053Y-77237554D01*
X146150466Y-77182845D01*
X146098367Y-77092607D01*
X146014875Y-76999879D01*
X146005388Y-76989343D01*
X153036775Y-76989343D01*
X153053381Y-77158699D01*
X153107094Y-77320167D01*
X153110741Y-77326189D01*
X153110742Y-77326191D01*
X153190872Y-77458500D01*
X153195246Y-77465723D01*
X153313455Y-77588132D01*
X153341624Y-77606565D01*
X153434333Y-77667232D01*
X153455846Y-77681310D01*
X153462450Y-77683766D01*
X153462452Y-77683767D01*
X153523754Y-77706565D01*
X153615341Y-77740626D01*
X153784015Y-77763132D01*
X153791026Y-77762494D01*
X153791030Y-77762494D01*
X153946462Y-77748348D01*
X153953483Y-77747709D01*
X153960185Y-77745531D01*
X153960187Y-77745531D01*
X154108623Y-77697301D01*
X154108626Y-77697300D01*
X154115322Y-77695124D01*
X154261490Y-77607990D01*
X154266584Y-77603139D01*
X154266588Y-77603136D01*
X154350225Y-77523489D01*
X154384721Y-77490639D01*
X154395063Y-77475074D01*
X154474990Y-77354773D01*
X154478891Y-77348902D01*
X154539319Y-77189825D01*
X154563001Y-77021313D01*
X154563118Y-77012964D01*
X154563244Y-77003961D01*
X154563244Y-77003955D01*
X154563299Y-77000000D01*
X154544331Y-76830892D01*
X154488368Y-76670189D01*
X154482383Y-76660610D01*
X154448611Y-76606565D01*
X154398192Y-76525879D01*
X154278286Y-76405132D01*
X154270200Y-76400000D01*
X154223406Y-76370304D01*
X154134608Y-76313951D01*
X153974300Y-76256868D01*
X153805329Y-76236720D01*
X153798326Y-76237456D01*
X153798325Y-76237456D01*
X153643101Y-76253770D01*
X153643097Y-76253771D01*
X153636093Y-76254507D01*
X153629422Y-76256778D01*
X153481673Y-76307075D01*
X153481670Y-76307076D01*
X153475003Y-76309346D01*
X153469005Y-76313036D01*
X153469003Y-76313037D01*
X153336065Y-76394821D01*
X153336063Y-76394823D01*
X153330066Y-76398512D01*
X153208486Y-76517573D01*
X153204675Y-76523487D01*
X153204673Y-76523489D01*
X153161922Y-76589825D01*
X153116304Y-76660610D01*
X153058103Y-76820516D01*
X153036775Y-76989343D01*
X146005388Y-76989343D01*
X145982035Y-76963407D01*
X145982034Y-76963406D01*
X145977613Y-76958496D01*
X145958793Y-76944822D01*
X145836957Y-76856303D01*
X145836956Y-76856302D01*
X145831615Y-76852422D01*
X145825587Y-76849738D01*
X145825585Y-76849737D01*
X145672783Y-76781705D01*
X145672781Y-76781705D01*
X145666752Y-76779020D01*
X145578492Y-76760260D01*
X145496689Y-76742872D01*
X145496685Y-76742872D01*
X145490232Y-76741500D01*
X145309768Y-76741500D01*
X145303315Y-76742872D01*
X145303311Y-76742872D01*
X145221508Y-76760260D01*
X145133248Y-76779020D01*
X145127219Y-76781704D01*
X145127217Y-76781705D01*
X144974416Y-76849737D01*
X144974414Y-76849738D01*
X144968386Y-76852422D01*
X144963045Y-76856302D01*
X144963044Y-76856303D01*
X144827731Y-76954613D01*
X144827729Y-76954615D01*
X144822387Y-76958496D01*
X144817966Y-76963406D01*
X144817965Y-76963407D01*
X144785126Y-76999879D01*
X144701633Y-77092607D01*
X144649534Y-77182845D01*
X144617948Y-77237554D01*
X144611401Y-77248893D01*
X144609359Y-77255178D01*
X144557789Y-77413897D01*
X144555635Y-77420525D01*
X144554945Y-77427088D01*
X144554945Y-77427089D01*
X144547755Y-77495498D01*
X144536771Y-77600000D01*
X136208500Y-77600000D01*
X136208500Y-75189343D01*
X148636775Y-75189343D01*
X148653381Y-75358699D01*
X148707094Y-75520167D01*
X148710741Y-75526189D01*
X148710742Y-75526191D01*
X148724497Y-75548902D01*
X148795246Y-75665723D01*
X148913455Y-75788132D01*
X148936384Y-75803136D01*
X149032027Y-75865723D01*
X149055846Y-75881310D01*
X149062450Y-75883766D01*
X149062452Y-75883767D01*
X149093996Y-75895498D01*
X149215341Y-75940626D01*
X149384015Y-75963132D01*
X149391026Y-75962494D01*
X149391030Y-75962494D01*
X149546462Y-75948348D01*
X149553483Y-75947709D01*
X149560185Y-75945531D01*
X149560187Y-75945531D01*
X149708623Y-75897301D01*
X149708626Y-75897300D01*
X149715322Y-75895124D01*
X149861490Y-75807990D01*
X149866584Y-75803139D01*
X149866588Y-75803136D01*
X149933833Y-75739099D01*
X149984721Y-75690639D01*
X150078891Y-75548902D01*
X150139319Y-75389825D01*
X150163001Y-75221313D01*
X150163299Y-75200000D01*
X150144331Y-75030892D01*
X150088368Y-74870189D01*
X150082383Y-74860610D01*
X150041272Y-74794821D01*
X149998192Y-74725879D01*
X149985441Y-74713038D01*
X149962244Y-74689679D01*
X149928437Y-74627248D01*
X149933749Y-74556450D01*
X149964758Y-74509650D01*
X149984721Y-74490639D01*
X150078891Y-74348902D01*
X150139319Y-74189825D01*
X150163001Y-74021313D01*
X150163299Y-74000000D01*
X150144331Y-73830892D01*
X150088368Y-73670189D01*
X150082383Y-73660610D01*
X150048611Y-73606565D01*
X149998192Y-73525879D01*
X149878286Y-73405132D01*
X149862039Y-73394821D01*
X149823406Y-73370304D01*
X149734608Y-73313951D01*
X149574300Y-73256868D01*
X149405329Y-73236720D01*
X149398326Y-73237456D01*
X149398325Y-73237456D01*
X149243101Y-73253770D01*
X149243097Y-73253771D01*
X149236093Y-73254507D01*
X149229422Y-73256778D01*
X149081673Y-73307075D01*
X149081670Y-73307076D01*
X149075003Y-73309346D01*
X149069005Y-73313036D01*
X149069003Y-73313037D01*
X148936065Y-73394821D01*
X148936063Y-73394823D01*
X148930066Y-73398512D01*
X148808486Y-73517573D01*
X148716304Y-73660610D01*
X148658103Y-73820516D01*
X148636775Y-73989343D01*
X148653381Y-74158699D01*
X148707094Y-74320167D01*
X148710741Y-74326189D01*
X148710742Y-74326191D01*
X148790872Y-74458500D01*
X148795246Y-74465723D01*
X148828792Y-74500461D01*
X148839763Y-74511822D01*
X148872695Y-74574719D01*
X148866395Y-74645436D01*
X148837284Y-74689372D01*
X148822997Y-74703363D01*
X148814600Y-74711586D01*
X148808486Y-74717573D01*
X148804675Y-74723487D01*
X148804673Y-74723489D01*
X148758362Y-74795349D01*
X148716304Y-74860610D01*
X148658103Y-75020516D01*
X148636775Y-75189343D01*
X136208500Y-75189343D01*
X136208500Y-73600000D01*
X141736771Y-73600000D01*
X141737461Y-73606565D01*
X141743838Y-73667232D01*
X141755635Y-73779475D01*
X141811401Y-73951107D01*
X141901633Y-74107393D01*
X142022387Y-74241504D01*
X142027729Y-74245385D01*
X142027731Y-74245387D01*
X142163043Y-74343697D01*
X142168385Y-74347578D01*
X142174413Y-74350262D01*
X142174415Y-74350263D01*
X142184545Y-74354773D01*
X142333248Y-74420980D01*
X142421508Y-74439740D01*
X142503311Y-74457128D01*
X142503315Y-74457128D01*
X142509768Y-74458500D01*
X142690232Y-74458500D01*
X142696685Y-74457128D01*
X142696689Y-74457128D01*
X142778492Y-74439740D01*
X142866752Y-74420980D01*
X143015455Y-74354773D01*
X143025585Y-74350263D01*
X143025587Y-74350262D01*
X143031615Y-74347578D01*
X143036957Y-74343697D01*
X143172269Y-74245387D01*
X143172271Y-74245385D01*
X143177613Y-74241504D01*
X143298367Y-74107393D01*
X143388599Y-73951107D01*
X143444365Y-73779475D01*
X143456163Y-73667232D01*
X143462539Y-73606565D01*
X143463229Y-73600000D01*
X143444365Y-73420525D01*
X143388599Y-73248893D01*
X143382053Y-73237554D01*
X143301668Y-73098325D01*
X143298367Y-73092607D01*
X143211755Y-72996414D01*
X143182035Y-72963407D01*
X143182034Y-72963406D01*
X143177613Y-72958496D01*
X143168246Y-72951690D01*
X143036957Y-72856303D01*
X143036956Y-72856302D01*
X143031615Y-72852422D01*
X143025587Y-72849738D01*
X143025585Y-72849737D01*
X142872783Y-72781705D01*
X142872781Y-72781705D01*
X142866752Y-72779020D01*
X142778492Y-72760260D01*
X142696689Y-72742872D01*
X142696685Y-72742872D01*
X142690232Y-72741500D01*
X142509768Y-72741500D01*
X142503315Y-72742872D01*
X142503311Y-72742872D01*
X142421508Y-72760260D01*
X142333248Y-72779020D01*
X142327219Y-72781704D01*
X142327217Y-72781705D01*
X142174416Y-72849737D01*
X142174414Y-72849738D01*
X142168386Y-72852422D01*
X142163045Y-72856302D01*
X142163044Y-72856303D01*
X142027731Y-72954613D01*
X142027729Y-72954615D01*
X142022387Y-72958496D01*
X142017966Y-72963406D01*
X142017965Y-72963407D01*
X141988246Y-72996414D01*
X141901633Y-73092607D01*
X141898332Y-73098325D01*
X141817948Y-73237554D01*
X141811401Y-73248893D01*
X141755635Y-73420525D01*
X141736771Y-73600000D01*
X136208500Y-73600000D01*
X136208500Y-71189343D01*
X145036775Y-71189343D01*
X145053381Y-71358699D01*
X145107094Y-71520167D01*
X145110741Y-71526189D01*
X145110742Y-71526191D01*
X145190872Y-71658500D01*
X145195246Y-71665723D01*
X145313455Y-71788132D01*
X145455846Y-71881310D01*
X145462450Y-71883766D01*
X145462452Y-71883767D01*
X145498844Y-71897301D01*
X145615341Y-71940626D01*
X145784015Y-71963132D01*
X145791026Y-71962494D01*
X145791030Y-71962494D01*
X145946462Y-71948348D01*
X145953483Y-71947709D01*
X145960185Y-71945531D01*
X145960187Y-71945531D01*
X146108623Y-71897301D01*
X146108626Y-71897300D01*
X146115322Y-71895124D01*
X146261490Y-71807990D01*
X146266584Y-71803139D01*
X146266588Y-71803136D01*
X146333833Y-71739099D01*
X146384721Y-71690639D01*
X146478891Y-71548902D01*
X146539319Y-71389825D01*
X146563001Y-71221313D01*
X146563299Y-71200000D01*
X146544331Y-71030892D01*
X146532325Y-70996414D01*
X146490686Y-70876846D01*
X146488368Y-70870189D01*
X146482383Y-70860610D01*
X146460270Y-70825223D01*
X146444509Y-70800000D01*
X154336771Y-70800000D01*
X154337461Y-70806565D01*
X154343838Y-70867232D01*
X154355635Y-70979475D01*
X154411401Y-71151107D01*
X154501633Y-71307393D01*
X154622387Y-71441504D01*
X154627729Y-71445385D01*
X154627731Y-71445387D01*
X154763043Y-71543697D01*
X154768385Y-71547578D01*
X154774413Y-71550262D01*
X154774415Y-71550263D01*
X154927217Y-71618295D01*
X154933248Y-71620980D01*
X155021508Y-71639740D01*
X155103311Y-71657128D01*
X155103315Y-71657128D01*
X155109768Y-71658500D01*
X155290232Y-71658500D01*
X155296685Y-71657128D01*
X155296689Y-71657128D01*
X155378492Y-71639740D01*
X155466752Y-71620980D01*
X155472783Y-71618295D01*
X155625585Y-71550263D01*
X155625587Y-71550262D01*
X155631615Y-71547578D01*
X155636957Y-71543697D01*
X155772269Y-71445387D01*
X155772271Y-71445385D01*
X155777613Y-71441504D01*
X155898367Y-71307393D01*
X155988599Y-71151107D01*
X156044365Y-70979475D01*
X156056163Y-70867232D01*
X156062539Y-70806565D01*
X156063229Y-70800000D01*
X156062109Y-70789343D01*
X160636775Y-70789343D01*
X160653381Y-70958699D01*
X160707094Y-71120167D01*
X160710741Y-71126189D01*
X160710742Y-71126191D01*
X160757842Y-71203961D01*
X160795246Y-71265723D01*
X160913455Y-71388132D01*
X161055846Y-71481310D01*
X161062450Y-71483766D01*
X161062452Y-71483767D01*
X161098844Y-71497301D01*
X161215341Y-71540626D01*
X161384015Y-71563132D01*
X161391026Y-71562494D01*
X161391030Y-71562494D01*
X161546462Y-71548348D01*
X161553483Y-71547709D01*
X161560185Y-71545531D01*
X161560187Y-71545531D01*
X161708623Y-71497301D01*
X161708626Y-71497300D01*
X161715322Y-71495124D01*
X161861490Y-71407990D01*
X161866584Y-71403139D01*
X161866588Y-71403136D01*
X161933833Y-71339099D01*
X161984721Y-71290639D01*
X162078891Y-71148902D01*
X162139319Y-70989825D01*
X162163001Y-70821313D01*
X162163299Y-70800000D01*
X162144331Y-70630892D01*
X162088368Y-70470189D01*
X162082383Y-70460610D01*
X162060420Y-70425464D01*
X161998192Y-70325879D01*
X161878286Y-70205132D01*
X161862039Y-70194821D01*
X161810636Y-70162200D01*
X161734608Y-70113951D01*
X161574300Y-70056868D01*
X161405329Y-70036720D01*
X161398326Y-70037456D01*
X161398325Y-70037456D01*
X161243101Y-70053770D01*
X161243097Y-70053771D01*
X161236093Y-70054507D01*
X161229422Y-70056778D01*
X161081673Y-70107075D01*
X161081670Y-70107076D01*
X161075003Y-70109346D01*
X161069005Y-70113036D01*
X161069003Y-70113037D01*
X160936065Y-70194821D01*
X160936063Y-70194823D01*
X160930066Y-70198512D01*
X160808486Y-70317573D01*
X160716304Y-70460610D01*
X160695514Y-70517730D01*
X160661884Y-70610129D01*
X160658103Y-70620516D01*
X160636775Y-70789343D01*
X156062109Y-70789343D01*
X156044365Y-70620525D01*
X156042212Y-70613897D01*
X155990641Y-70455178D01*
X155988599Y-70448893D01*
X155982053Y-70437554D01*
X155921026Y-70331854D01*
X155898367Y-70292607D01*
X155777613Y-70158496D01*
X155759769Y-70145531D01*
X155636957Y-70056303D01*
X155636956Y-70056302D01*
X155631615Y-70052422D01*
X155625587Y-70049738D01*
X155625585Y-70049737D01*
X155472783Y-69981705D01*
X155472781Y-69981705D01*
X155466752Y-69979020D01*
X155376182Y-69959769D01*
X155296689Y-69942872D01*
X155296685Y-69942872D01*
X155290232Y-69941500D01*
X155109768Y-69941500D01*
X155103315Y-69942872D01*
X155103311Y-69942872D01*
X155023818Y-69959769D01*
X154933248Y-69979020D01*
X154927219Y-69981704D01*
X154927217Y-69981705D01*
X154774416Y-70049737D01*
X154774414Y-70049738D01*
X154768386Y-70052422D01*
X154763045Y-70056302D01*
X154763044Y-70056303D01*
X154627731Y-70154613D01*
X154627729Y-70154615D01*
X154622387Y-70158496D01*
X154501633Y-70292607D01*
X154478974Y-70331854D01*
X154417948Y-70437554D01*
X154411401Y-70448893D01*
X154409359Y-70455178D01*
X154357789Y-70613897D01*
X154355635Y-70620525D01*
X154336771Y-70800000D01*
X146444509Y-70800000D01*
X146398192Y-70725879D01*
X146278286Y-70605132D01*
X146262039Y-70594821D01*
X146223406Y-70570304D01*
X146134608Y-70513951D01*
X145974300Y-70456868D01*
X145805329Y-70436720D01*
X145798326Y-70437456D01*
X145798325Y-70437456D01*
X145643101Y-70453770D01*
X145643097Y-70453771D01*
X145636093Y-70454507D01*
X145629422Y-70456778D01*
X145481673Y-70507075D01*
X145481670Y-70507076D01*
X145475003Y-70509346D01*
X145469005Y-70513036D01*
X145469003Y-70513037D01*
X145336065Y-70594821D01*
X145336063Y-70594823D01*
X145330066Y-70598512D01*
X145208486Y-70717573D01*
X145204675Y-70723487D01*
X145204673Y-70723489D01*
X145120121Y-70854687D01*
X145116304Y-70860610D01*
X145058103Y-71020516D01*
X145036775Y-71189343D01*
X136208500Y-71189343D01*
X136208500Y-69389343D01*
X156036775Y-69389343D01*
X156053381Y-69558699D01*
X156107094Y-69720167D01*
X156110741Y-69726189D01*
X156110742Y-69726191D01*
X156124497Y-69748902D01*
X156195246Y-69865723D01*
X156313455Y-69988132D01*
X156455846Y-70081310D01*
X156462450Y-70083766D01*
X156462452Y-70083767D01*
X156498844Y-70097301D01*
X156615341Y-70140626D01*
X156784015Y-70163132D01*
X156791026Y-70162494D01*
X156791030Y-70162494D01*
X156946462Y-70148348D01*
X156953483Y-70147709D01*
X156960185Y-70145531D01*
X156960187Y-70145531D01*
X157108623Y-70097301D01*
X157108626Y-70097300D01*
X157115322Y-70095124D01*
X157261490Y-70007990D01*
X157266584Y-70003139D01*
X157266588Y-70003136D01*
X157312127Y-69959769D01*
X157375252Y-69927277D01*
X157445923Y-69934070D01*
X157489655Y-69963487D01*
X157508560Y-69983064D01*
X157508564Y-69983068D01*
X157513455Y-69988132D01*
X157655846Y-70081310D01*
X157662450Y-70083766D01*
X157662452Y-70083767D01*
X157698844Y-70097301D01*
X157815341Y-70140626D01*
X157984015Y-70163132D01*
X157991026Y-70162494D01*
X157991030Y-70162494D01*
X158146462Y-70148348D01*
X158153483Y-70147709D01*
X158160185Y-70145531D01*
X158160187Y-70145531D01*
X158308623Y-70097301D01*
X158308626Y-70097300D01*
X158315322Y-70095124D01*
X158461490Y-70007990D01*
X158466584Y-70003139D01*
X158466588Y-70003136D01*
X158546247Y-69927277D01*
X158584721Y-69890639D01*
X158678891Y-69748902D01*
X158739319Y-69589825D01*
X158763001Y-69421313D01*
X158763299Y-69400000D01*
X158744331Y-69230892D01*
X158688368Y-69070189D01*
X158682383Y-69060610D01*
X158660420Y-69025464D01*
X158598192Y-68925879D01*
X158478286Y-68805132D01*
X158462039Y-68794821D01*
X158423406Y-68770304D01*
X158334608Y-68713951D01*
X158174300Y-68656868D01*
X158005329Y-68636720D01*
X157998326Y-68637456D01*
X157998325Y-68637456D01*
X157843101Y-68653770D01*
X157843097Y-68653771D01*
X157836093Y-68654507D01*
X157829422Y-68656778D01*
X157681673Y-68707075D01*
X157681670Y-68707076D01*
X157675003Y-68709346D01*
X157669005Y-68713036D01*
X157669003Y-68713037D01*
X157536065Y-68794821D01*
X157536063Y-68794823D01*
X157530066Y-68798512D01*
X157525033Y-68803441D01*
X157488482Y-68839234D01*
X157425817Y-68872604D01*
X157355059Y-68866798D01*
X157310919Y-68837993D01*
X157283253Y-68810133D01*
X157283248Y-68810129D01*
X157278286Y-68805132D01*
X157262039Y-68794821D01*
X157223406Y-68770304D01*
X157134608Y-68713951D01*
X156974300Y-68656868D01*
X156805329Y-68636720D01*
X156798326Y-68637456D01*
X156798325Y-68637456D01*
X156643101Y-68653770D01*
X156643097Y-68653771D01*
X156636093Y-68654507D01*
X156629422Y-68656778D01*
X156481673Y-68707075D01*
X156481670Y-68707076D01*
X156475003Y-68709346D01*
X156469005Y-68713036D01*
X156469003Y-68713037D01*
X156336065Y-68794821D01*
X156336063Y-68794823D01*
X156330066Y-68798512D01*
X156208486Y-68917573D01*
X156116304Y-69060610D01*
X156058103Y-69220516D01*
X156036775Y-69389343D01*
X136208500Y-69389343D01*
X136208500Y-64597095D01*
X139292001Y-64597095D01*
X139292338Y-64603614D01*
X139302257Y-64699206D01*
X139305149Y-64712600D01*
X139356588Y-64866784D01*
X139362761Y-64879962D01*
X139448063Y-65017807D01*
X139457099Y-65029208D01*
X139571829Y-65143739D01*
X139583240Y-65152751D01*
X139721243Y-65237816D01*
X139734424Y-65243963D01*
X139888710Y-65295138D01*
X139902086Y-65298005D01*
X139996438Y-65307672D01*
X140002854Y-65308000D01*
X140327885Y-65308000D01*
X140343124Y-65303525D01*
X140344329Y-65302135D01*
X140346000Y-65294452D01*
X140346000Y-65289884D01*
X140854000Y-65289884D01*
X140858475Y-65305123D01*
X140859865Y-65306328D01*
X140867548Y-65307999D01*
X141197095Y-65307999D01*
X141203614Y-65307662D01*
X141299206Y-65297743D01*
X141312600Y-65294851D01*
X141466784Y-65243412D01*
X141479962Y-65237239D01*
X141617807Y-65151937D01*
X141629208Y-65142901D01*
X141743739Y-65028171D01*
X141752751Y-65016760D01*
X141837816Y-64878757D01*
X141843963Y-64865576D01*
X141895138Y-64711290D01*
X141898005Y-64697914D01*
X141907672Y-64603562D01*
X141908000Y-64597146D01*
X141908000Y-64272115D01*
X141903525Y-64256876D01*
X141902135Y-64255671D01*
X141894452Y-64254000D01*
X140872115Y-64254000D01*
X140856876Y-64258475D01*
X140855671Y-64259865D01*
X140854000Y-64267548D01*
X140854000Y-65289884D01*
X140346000Y-65289884D01*
X140346000Y-64272115D01*
X140341525Y-64256876D01*
X140340135Y-64255671D01*
X140332452Y-64254000D01*
X139310116Y-64254000D01*
X139294877Y-64258475D01*
X139293672Y-64259865D01*
X139292001Y-64267548D01*
X139292001Y-64597095D01*
X136208500Y-64597095D01*
X136208500Y-64000000D01*
X142886502Y-64000000D01*
X142906457Y-64228087D01*
X142907881Y-64233400D01*
X142907881Y-64233402D01*
X142945698Y-64374534D01*
X142965716Y-64449243D01*
X142968039Y-64454224D01*
X142968039Y-64454225D01*
X143060151Y-64651762D01*
X143060154Y-64651767D01*
X143062477Y-64656749D01*
X143111831Y-64727234D01*
X143163956Y-64801675D01*
X143193802Y-64844300D01*
X143355700Y-65006198D01*
X143360208Y-65009355D01*
X143360211Y-65009357D01*
X143427257Y-65056303D01*
X143543251Y-65137523D01*
X143548233Y-65139846D01*
X143548238Y-65139849D01*
X143701478Y-65211305D01*
X143750757Y-65234284D01*
X143756065Y-65235706D01*
X143756067Y-65235707D01*
X143966598Y-65292119D01*
X143966600Y-65292119D01*
X143971913Y-65293543D01*
X144200000Y-65313498D01*
X144428087Y-65293543D01*
X144433400Y-65292119D01*
X144433402Y-65292119D01*
X144643933Y-65235707D01*
X144643935Y-65235706D01*
X144649243Y-65234284D01*
X144698522Y-65211305D01*
X144851762Y-65139849D01*
X144851767Y-65139846D01*
X144856749Y-65137523D01*
X144972743Y-65056303D01*
X145039789Y-65009357D01*
X145039792Y-65009355D01*
X145044300Y-65006198D01*
X145206198Y-64844300D01*
X145236045Y-64801675D01*
X145288169Y-64727234D01*
X145337523Y-64656749D01*
X145339846Y-64651767D01*
X145339849Y-64651762D01*
X145431961Y-64454225D01*
X145431961Y-64454224D01*
X145434284Y-64449243D01*
X145454303Y-64374534D01*
X145492119Y-64233402D01*
X145492119Y-64233400D01*
X145493543Y-64228087D01*
X145513498Y-64000000D01*
X146486502Y-64000000D01*
X146506457Y-64228087D01*
X146507881Y-64233400D01*
X146507881Y-64233402D01*
X146545698Y-64374534D01*
X146565716Y-64449243D01*
X146568039Y-64454224D01*
X146568039Y-64454225D01*
X146660151Y-64651762D01*
X146660154Y-64651767D01*
X146662477Y-64656749D01*
X146711831Y-64727234D01*
X146763956Y-64801675D01*
X146793802Y-64844300D01*
X146955700Y-65006198D01*
X146960208Y-65009355D01*
X146960211Y-65009357D01*
X147027257Y-65056303D01*
X147143251Y-65137523D01*
X147148233Y-65139846D01*
X147148238Y-65139849D01*
X147301478Y-65211305D01*
X147350757Y-65234284D01*
X147356065Y-65235706D01*
X147356067Y-65235707D01*
X147566598Y-65292119D01*
X147566600Y-65292119D01*
X147571913Y-65293543D01*
X147800000Y-65313498D01*
X148028087Y-65293543D01*
X148033400Y-65292119D01*
X148033402Y-65292119D01*
X148243933Y-65235707D01*
X148243935Y-65235706D01*
X148249243Y-65234284D01*
X148298522Y-65211305D01*
X148451762Y-65139849D01*
X148451767Y-65139846D01*
X148456749Y-65137523D01*
X148572743Y-65056303D01*
X148639789Y-65009357D01*
X148639792Y-65009355D01*
X148644300Y-65006198D01*
X148806198Y-64844300D01*
X148836045Y-64801675D01*
X148888169Y-64727234D01*
X148937523Y-64656749D01*
X148939846Y-64651767D01*
X148939849Y-64651762D01*
X149031961Y-64454225D01*
X149031961Y-64454224D01*
X149034284Y-64449243D01*
X149054303Y-64374534D01*
X149092119Y-64233402D01*
X149092119Y-64233400D01*
X149093543Y-64228087D01*
X149113498Y-64000000D01*
X150086502Y-64000000D01*
X150106457Y-64228087D01*
X150107881Y-64233400D01*
X150107881Y-64233402D01*
X150145698Y-64374534D01*
X150165716Y-64449243D01*
X150168039Y-64454224D01*
X150168039Y-64454225D01*
X150260151Y-64651762D01*
X150260154Y-64651767D01*
X150262477Y-64656749D01*
X150311831Y-64727234D01*
X150363956Y-64801675D01*
X150393802Y-64844300D01*
X150555700Y-65006198D01*
X150560208Y-65009355D01*
X150560211Y-65009357D01*
X150686708Y-65097931D01*
X150731036Y-65153388D01*
X150738345Y-65224008D01*
X150709687Y-65282181D01*
X150709932Y-65282359D01*
X150708900Y-65283779D01*
X150708077Y-65285450D01*
X150701633Y-65292607D01*
X150611401Y-65448893D01*
X150555635Y-65620525D01*
X150536771Y-65800000D01*
X150537461Y-65806565D01*
X150546921Y-65896564D01*
X150555635Y-65979475D01*
X150611401Y-66151107D01*
X150701633Y-66307393D01*
X150706051Y-66312300D01*
X150706052Y-66312301D01*
X150788647Y-66404032D01*
X150822387Y-66441504D01*
X150827729Y-66445385D01*
X150827731Y-66445387D01*
X150900594Y-66498325D01*
X150968385Y-66547578D01*
X150974413Y-66550262D01*
X150974415Y-66550263D01*
X151019740Y-66570443D01*
X151133248Y-66620980D01*
X151221508Y-66639740D01*
X151303311Y-66657128D01*
X151303315Y-66657128D01*
X151309768Y-66658500D01*
X151490232Y-66658500D01*
X151496685Y-66657128D01*
X151496689Y-66657128D01*
X151578492Y-66639740D01*
X151666752Y-66620980D01*
X151831615Y-66547578D01*
X151836962Y-66543693D01*
X151836997Y-66543673D01*
X151905992Y-66526934D01*
X151963003Y-66543673D01*
X151963038Y-66543693D01*
X151968385Y-66547578D01*
X152133248Y-66620980D01*
X152221508Y-66639740D01*
X152303311Y-66657128D01*
X152303315Y-66657128D01*
X152309768Y-66658500D01*
X152490232Y-66658500D01*
X152496685Y-66657128D01*
X152496689Y-66657128D01*
X152578492Y-66639740D01*
X152666752Y-66620980D01*
X152780260Y-66570443D01*
X152825585Y-66550263D01*
X152825587Y-66550262D01*
X152831615Y-66547578D01*
X152899406Y-66498325D01*
X152972269Y-66445387D01*
X152972271Y-66445385D01*
X152977613Y-66441504D01*
X153011353Y-66404032D01*
X153093948Y-66312301D01*
X153093949Y-66312300D01*
X153098367Y-66307393D01*
X153188599Y-66151107D01*
X153244365Y-65979475D01*
X153253080Y-65896564D01*
X153262539Y-65806565D01*
X153263229Y-65800000D01*
X153255847Y-65729769D01*
X154171500Y-65729769D01*
X154171800Y-65732825D01*
X154171800Y-65732832D01*
X154172530Y-65740273D01*
X154185920Y-65876833D01*
X154243084Y-66066169D01*
X154335934Y-66240796D01*
X154393492Y-66311369D01*
X154457040Y-66389287D01*
X154457043Y-66389290D01*
X154460935Y-66394062D01*
X154465682Y-66397989D01*
X154465684Y-66397991D01*
X154522976Y-66445387D01*
X154580056Y-66492607D01*
X154580677Y-66493121D01*
X154620416Y-66551955D01*
X154622038Y-66622933D01*
X154615468Y-66641456D01*
X154614705Y-66643170D01*
X154611401Y-66648893D01*
X154609361Y-66655172D01*
X154609360Y-66655174D01*
X154557675Y-66814246D01*
X154555635Y-66820525D01*
X154536771Y-67000000D01*
X154555635Y-67179475D01*
X154611401Y-67351107D01*
X154701633Y-67507393D01*
X154822387Y-67641504D01*
X154968385Y-67747578D01*
X154974413Y-67750262D01*
X154974415Y-67750263D01*
X155127217Y-67818295D01*
X155133248Y-67820980D01*
X155221508Y-67839740D01*
X155303311Y-67857128D01*
X155303315Y-67857128D01*
X155309768Y-67858500D01*
X155490232Y-67858500D01*
X155496685Y-67857128D01*
X155496689Y-67857128D01*
X155578492Y-67839740D01*
X155666752Y-67820980D01*
X155672783Y-67818295D01*
X155825585Y-67750263D01*
X155825587Y-67750262D01*
X155831615Y-67747578D01*
X155977613Y-67641504D01*
X156098367Y-67507393D01*
X156188599Y-67351107D01*
X156244365Y-67179475D01*
X156263229Y-67000000D01*
X156244365Y-66820525D01*
X156188599Y-66648893D01*
X156098367Y-66492607D01*
X156024219Y-66410258D01*
X155993504Y-66346253D01*
X156002267Y-66275800D01*
X156013154Y-66256102D01*
X156016154Y-66252526D01*
X156111433Y-66079213D01*
X156113846Y-66071608D01*
X156169373Y-65896564D01*
X156169373Y-65896563D01*
X156171235Y-65890694D01*
X156188500Y-65736773D01*
X156188500Y-65517138D01*
X156208502Y-65449017D01*
X156262158Y-65402524D01*
X156332432Y-65392420D01*
X156341986Y-65394172D01*
X156346460Y-65395172D01*
X156516543Y-65433190D01*
X156522088Y-65433500D01*
X156655244Y-65433500D01*
X156790037Y-65418857D01*
X156908190Y-65379094D01*
X156955204Y-65363272D01*
X156955206Y-65363271D01*
X156961675Y-65361094D01*
X157116905Y-65267823D01*
X157121862Y-65263135D01*
X157121865Y-65263133D01*
X157243527Y-65148082D01*
X157243529Y-65148080D01*
X157248485Y-65143393D01*
X157252317Y-65137755D01*
X157252320Y-65137751D01*
X157346442Y-64999255D01*
X157350277Y-64993612D01*
X157417530Y-64825466D01*
X157418644Y-64818738D01*
X157418645Y-64818734D01*
X157445993Y-64653539D01*
X157445993Y-64653536D01*
X157447108Y-64646802D01*
X157442203Y-64553198D01*
X161552892Y-64553198D01*
X161553249Y-64560015D01*
X161553249Y-64560019D01*
X161560476Y-64697914D01*
X161562370Y-64734047D01*
X161564181Y-64740620D01*
X161564181Y-64740623D01*
X161608648Y-64902059D01*
X161610461Y-64908641D01*
X161694922Y-65068836D01*
X161699327Y-65074049D01*
X161699330Y-65074053D01*
X161807406Y-65201943D01*
X161807410Y-65201947D01*
X161811813Y-65207157D01*
X161817237Y-65211304D01*
X161817238Y-65211305D01*
X161950257Y-65313006D01*
X161950261Y-65313009D01*
X161955678Y-65317150D01*
X162042372Y-65357576D01*
X162113631Y-65390805D01*
X162113634Y-65390806D01*
X162119808Y-65393685D01*
X162126456Y-65395171D01*
X162126459Y-65395172D01*
X162222686Y-65416681D01*
X162296543Y-65433190D01*
X162302088Y-65433500D01*
X162435244Y-65433500D01*
X162570037Y-65418857D01*
X162645312Y-65393524D01*
X162716253Y-65390754D01*
X162777432Y-65426777D01*
X162809423Y-65490158D01*
X162811500Y-65512943D01*
X162811500Y-65729769D01*
X162811800Y-65732825D01*
X162811800Y-65732832D01*
X162812530Y-65740273D01*
X162825920Y-65876833D01*
X162883084Y-66066169D01*
X162975934Y-66240796D01*
X162979828Y-66245571D01*
X162979829Y-66245572D01*
X162980127Y-66245937D01*
X162980223Y-66246164D01*
X162983239Y-66250704D01*
X162982376Y-66251277D01*
X163007680Y-66311369D01*
X162995484Y-66381310D01*
X162976122Y-66409878D01*
X162901633Y-66492607D01*
X162811401Y-66648893D01*
X162755635Y-66820525D01*
X162736771Y-67000000D01*
X162755635Y-67179475D01*
X162811401Y-67351107D01*
X162901633Y-67507393D01*
X163022387Y-67641504D01*
X163168385Y-67747578D01*
X163174413Y-67750262D01*
X163174415Y-67750263D01*
X163327217Y-67818295D01*
X163333248Y-67820980D01*
X163421508Y-67839740D01*
X163503311Y-67857128D01*
X163503315Y-67857128D01*
X163509768Y-67858500D01*
X163690232Y-67858500D01*
X163696685Y-67857128D01*
X163696689Y-67857128D01*
X163778492Y-67839740D01*
X163866752Y-67820980D01*
X163872783Y-67818295D01*
X164025585Y-67750263D01*
X164025587Y-67750262D01*
X164031615Y-67747578D01*
X164177613Y-67641504D01*
X164298367Y-67507393D01*
X164388599Y-67351107D01*
X164444365Y-67179475D01*
X164463229Y-67000000D01*
X164444365Y-66820525D01*
X164442325Y-66814246D01*
X164390640Y-66655173D01*
X164390638Y-66655169D01*
X164388599Y-66648893D01*
X164385299Y-66643177D01*
X164384245Y-66640810D01*
X164374812Y-66570443D01*
X164404920Y-66506147D01*
X164420393Y-66491374D01*
X164529025Y-66404032D01*
X164656154Y-66252526D01*
X164659123Y-66247126D01*
X164659125Y-66247123D01*
X164748467Y-66084608D01*
X164751433Y-66079213D01*
X164753846Y-66071608D01*
X164809373Y-65896564D01*
X164809373Y-65896563D01*
X164811235Y-65890694D01*
X164828500Y-65736773D01*
X164828500Y-64943350D01*
X164848502Y-64875229D01*
X164902158Y-64828736D01*
X164972432Y-64818632D01*
X165037012Y-64848126D01*
X165048129Y-64859033D01*
X165122387Y-64941504D01*
X165127729Y-64945385D01*
X165127731Y-64945387D01*
X165243101Y-65029208D01*
X165268385Y-65047578D01*
X165274413Y-65050262D01*
X165274415Y-65050263D01*
X165381479Y-65097931D01*
X165433248Y-65120980D01*
X165521508Y-65139740D01*
X165603311Y-65157128D01*
X165603315Y-65157128D01*
X165609768Y-65158500D01*
X165790232Y-65158500D01*
X165796685Y-65157128D01*
X165796689Y-65157128D01*
X165878492Y-65139740D01*
X165966752Y-65120980D01*
X166018521Y-65097931D01*
X166125585Y-65050263D01*
X166125587Y-65050262D01*
X166131615Y-65047578D01*
X166156899Y-65029208D01*
X166272269Y-64945387D01*
X166272271Y-64945385D01*
X166277613Y-64941504D01*
X166297686Y-64919211D01*
X166393948Y-64812301D01*
X166393949Y-64812300D01*
X166398367Y-64807393D01*
X166461575Y-64697914D01*
X166485295Y-64656830D01*
X166485296Y-64656829D01*
X166488599Y-64651107D01*
X166530149Y-64523227D01*
X166542325Y-64485754D01*
X166542325Y-64485753D01*
X166544365Y-64479475D01*
X166546478Y-64459377D01*
X166562539Y-64306565D01*
X166563229Y-64300000D01*
X166556229Y-64233402D01*
X166545055Y-64127089D01*
X166545055Y-64127088D01*
X166544365Y-64120525D01*
X166522074Y-64051918D01*
X166490641Y-63955178D01*
X166490640Y-63955175D01*
X166488599Y-63948893D01*
X166477407Y-63929507D01*
X166453311Y-63887773D01*
X166398367Y-63792607D01*
X166375193Y-63766869D01*
X166282035Y-63663407D01*
X166282034Y-63663406D01*
X166277613Y-63658496D01*
X166265920Y-63650000D01*
X166136957Y-63556303D01*
X166136956Y-63556302D01*
X166131615Y-63552422D01*
X166125587Y-63549738D01*
X166125585Y-63549737D01*
X165972783Y-63481705D01*
X165972781Y-63481705D01*
X165966752Y-63479020D01*
X165878492Y-63460260D01*
X165830223Y-63450000D01*
X167236771Y-63450000D01*
X167237461Y-63456565D01*
X167251396Y-63589140D01*
X167255635Y-63629475D01*
X167257675Y-63635753D01*
X167257675Y-63635754D01*
X167260171Y-63643435D01*
X167311401Y-63801107D01*
X167314704Y-63806829D01*
X167314705Y-63806830D01*
X167331967Y-63836728D01*
X167401633Y-63957393D01*
X167406051Y-63962300D01*
X167406052Y-63962301D01*
X167517965Y-64086593D01*
X167522387Y-64091504D01*
X167527729Y-64095385D01*
X167527731Y-64095387D01*
X167653352Y-64186656D01*
X167668385Y-64197578D01*
X167674413Y-64200262D01*
X167674415Y-64200263D01*
X167827217Y-64268295D01*
X167833248Y-64270980D01*
X167921508Y-64289740D01*
X168003311Y-64307128D01*
X168003315Y-64307128D01*
X168009768Y-64308500D01*
X168190232Y-64308500D01*
X168196685Y-64307128D01*
X168196689Y-64307128D01*
X168278492Y-64289740D01*
X168366752Y-64270980D01*
X168372783Y-64268295D01*
X168525585Y-64200263D01*
X168525587Y-64200262D01*
X168531615Y-64197578D01*
X168546648Y-64186656D01*
X168672269Y-64095387D01*
X168672271Y-64095385D01*
X168677613Y-64091504D01*
X168682035Y-64086593D01*
X168760004Y-64000000D01*
X174536771Y-64000000D01*
X174555635Y-64179475D01*
X174611401Y-64351107D01*
X174614704Y-64356829D01*
X174614705Y-64356830D01*
X174625441Y-64375425D01*
X174701633Y-64507393D01*
X174706051Y-64512300D01*
X174706052Y-64512301D01*
X174782401Y-64597095D01*
X174822387Y-64641504D01*
X174827729Y-64645385D01*
X174827731Y-64645387D01*
X174918439Y-64711290D01*
X174968385Y-64747578D01*
X174974413Y-64750262D01*
X174974415Y-64750263D01*
X175127217Y-64818295D01*
X175133248Y-64820980D01*
X175221508Y-64839740D01*
X175303311Y-64857128D01*
X175303315Y-64857128D01*
X175309768Y-64858500D01*
X175490232Y-64858500D01*
X175496685Y-64857128D01*
X175496689Y-64857128D01*
X175578492Y-64839740D01*
X175666752Y-64820980D01*
X175672783Y-64818295D01*
X175825585Y-64750263D01*
X175825587Y-64750262D01*
X175831615Y-64747578D01*
X175881561Y-64711290D01*
X175972269Y-64645387D01*
X175972271Y-64645385D01*
X175977613Y-64641504D01*
X176017599Y-64597095D01*
X176093948Y-64512301D01*
X176093949Y-64512300D01*
X176098367Y-64507393D01*
X176174559Y-64375425D01*
X176185295Y-64356830D01*
X176185296Y-64356829D01*
X176188599Y-64351107D01*
X176244365Y-64179475D01*
X176263229Y-64000000D01*
X176244365Y-63820525D01*
X176232277Y-63783320D01*
X176190641Y-63655178D01*
X176188959Y-63650000D01*
X177236771Y-63650000D01*
X177237461Y-63656565D01*
X177250478Y-63780406D01*
X177255635Y-63829475D01*
X177257675Y-63835753D01*
X177257675Y-63835754D01*
X177264243Y-63855968D01*
X177311401Y-64001107D01*
X177314704Y-64006829D01*
X177314705Y-64006830D01*
X177318196Y-64012877D01*
X177401633Y-64157393D01*
X177406051Y-64162300D01*
X177406052Y-64162301D01*
X177503907Y-64270980D01*
X177522387Y-64291504D01*
X177527729Y-64295385D01*
X177527731Y-64295387D01*
X177648550Y-64383167D01*
X177668385Y-64397578D01*
X177674413Y-64400262D01*
X177674415Y-64400263D01*
X177807187Y-64459377D01*
X177833248Y-64470980D01*
X177921508Y-64489740D01*
X178003311Y-64507128D01*
X178003315Y-64507128D01*
X178009768Y-64508500D01*
X178190232Y-64508500D01*
X178196685Y-64507128D01*
X178196689Y-64507128D01*
X178278492Y-64489740D01*
X178366752Y-64470980D01*
X178392813Y-64459377D01*
X178525585Y-64400263D01*
X178525587Y-64400262D01*
X178531615Y-64397578D01*
X178551450Y-64383167D01*
X178672269Y-64295387D01*
X178672271Y-64295385D01*
X178677613Y-64291504D01*
X178696093Y-64270980D01*
X178793948Y-64162301D01*
X178793949Y-64162300D01*
X178798367Y-64157393D01*
X178881804Y-64012877D01*
X178885295Y-64006830D01*
X178885296Y-64006829D01*
X178888599Y-64001107D01*
X178935757Y-63855968D01*
X178942325Y-63835754D01*
X178942325Y-63835753D01*
X178944365Y-63829475D01*
X178949523Y-63780406D01*
X178962539Y-63656565D01*
X178963229Y-63650000D01*
X178944365Y-63470525D01*
X178888599Y-63298893D01*
X178881964Y-63287400D01*
X178818598Y-63177648D01*
X178798367Y-63142607D01*
X178677613Y-63008496D01*
X178662753Y-62997699D01*
X178536957Y-62906303D01*
X178536956Y-62906302D01*
X178531615Y-62902422D01*
X178525587Y-62899738D01*
X178525585Y-62899737D01*
X178372783Y-62831705D01*
X178372781Y-62831705D01*
X178366752Y-62829020D01*
X178251925Y-62804613D01*
X178196689Y-62792872D01*
X178196685Y-62792872D01*
X178190232Y-62791500D01*
X178009768Y-62791500D01*
X178003315Y-62792872D01*
X178003311Y-62792872D01*
X177948075Y-62804613D01*
X177833248Y-62829020D01*
X177827219Y-62831704D01*
X177827217Y-62831705D01*
X177674416Y-62899737D01*
X177674414Y-62899738D01*
X177668386Y-62902422D01*
X177663045Y-62906302D01*
X177663044Y-62906303D01*
X177527731Y-63004613D01*
X177527729Y-63004615D01*
X177522387Y-63008496D01*
X177401633Y-63142607D01*
X177381402Y-63177648D01*
X177318037Y-63287400D01*
X177311401Y-63298893D01*
X177255635Y-63470525D01*
X177236771Y-63650000D01*
X176188959Y-63650000D01*
X176188599Y-63648893D01*
X176154101Y-63589140D01*
X176131351Y-63549737D01*
X176098367Y-63492607D01*
X176054093Y-63443435D01*
X175982035Y-63363407D01*
X175982034Y-63363406D01*
X175977613Y-63358496D01*
X175963495Y-63348238D01*
X175836957Y-63256303D01*
X175836956Y-63256302D01*
X175831615Y-63252422D01*
X175825587Y-63249738D01*
X175825585Y-63249737D01*
X175672783Y-63181705D01*
X175672781Y-63181705D01*
X175666752Y-63179020D01*
X175557039Y-63155700D01*
X175496689Y-63142872D01*
X175496685Y-63142872D01*
X175490232Y-63141500D01*
X175309768Y-63141500D01*
X175303315Y-63142872D01*
X175303311Y-63142872D01*
X175242961Y-63155700D01*
X175133248Y-63179020D01*
X175127219Y-63181704D01*
X175127217Y-63181705D01*
X174974416Y-63249737D01*
X174974414Y-63249738D01*
X174968386Y-63252422D01*
X174963045Y-63256302D01*
X174963044Y-63256303D01*
X174827731Y-63354613D01*
X174827729Y-63354615D01*
X174822387Y-63358496D01*
X174817966Y-63363406D01*
X174817965Y-63363407D01*
X174745908Y-63443435D01*
X174701633Y-63492607D01*
X174668649Y-63549737D01*
X174645900Y-63589140D01*
X174611401Y-63648893D01*
X174609359Y-63655178D01*
X174567724Y-63783320D01*
X174555635Y-63820525D01*
X174536771Y-64000000D01*
X168760004Y-64000000D01*
X168793948Y-63962301D01*
X168793949Y-63962300D01*
X168798367Y-63957393D01*
X168868033Y-63836728D01*
X168885295Y-63806830D01*
X168885296Y-63806829D01*
X168888599Y-63801107D01*
X168939829Y-63643435D01*
X168942325Y-63635754D01*
X168942325Y-63635753D01*
X168944365Y-63629475D01*
X168948605Y-63589140D01*
X168962539Y-63456565D01*
X168963229Y-63450000D01*
X168947682Y-63302086D01*
X168945055Y-63277089D01*
X168945055Y-63277088D01*
X168944365Y-63270525D01*
X168888599Y-63098893D01*
X168798367Y-62942607D01*
X168698511Y-62831705D01*
X168682035Y-62813407D01*
X168682034Y-62813406D01*
X168677613Y-62808496D01*
X168656109Y-62792872D01*
X168536957Y-62706303D01*
X168536956Y-62706302D01*
X168531615Y-62702422D01*
X168525587Y-62699738D01*
X168525585Y-62699737D01*
X168372783Y-62631705D01*
X168372781Y-62631705D01*
X168366752Y-62629020D01*
X168278492Y-62610260D01*
X168196689Y-62592872D01*
X168196685Y-62592872D01*
X168190232Y-62591500D01*
X168009768Y-62591500D01*
X168003315Y-62592872D01*
X168003311Y-62592872D01*
X167921508Y-62610260D01*
X167833248Y-62629020D01*
X167827219Y-62631704D01*
X167827217Y-62631705D01*
X167674416Y-62699737D01*
X167674414Y-62699738D01*
X167668386Y-62702422D01*
X167663045Y-62706302D01*
X167663044Y-62706303D01*
X167527731Y-62804613D01*
X167527729Y-62804615D01*
X167522387Y-62808496D01*
X167517966Y-62813406D01*
X167517965Y-62813407D01*
X167501490Y-62831705D01*
X167401633Y-62942607D01*
X167311401Y-63098893D01*
X167255635Y-63270525D01*
X167254945Y-63277088D01*
X167254945Y-63277089D01*
X167252318Y-63302086D01*
X167236771Y-63450000D01*
X165830223Y-63450000D01*
X165796689Y-63442872D01*
X165796685Y-63442872D01*
X165790232Y-63441500D01*
X165609768Y-63441500D01*
X165603315Y-63442872D01*
X165603311Y-63442872D01*
X165521508Y-63460260D01*
X165433248Y-63479020D01*
X165427219Y-63481704D01*
X165427217Y-63481705D01*
X165274416Y-63549737D01*
X165274414Y-63549738D01*
X165268386Y-63552422D01*
X165263045Y-63556302D01*
X165263044Y-63556303D01*
X165127731Y-63654613D01*
X165127729Y-63654615D01*
X165122387Y-63658496D01*
X165117966Y-63663406D01*
X165117965Y-63663407D01*
X165024808Y-63766869D01*
X165001633Y-63792607D01*
X164946689Y-63887773D01*
X164922594Y-63929507D01*
X164911401Y-63948893D01*
X164909360Y-63955175D01*
X164895133Y-63998961D01*
X164855059Y-64057566D01*
X164789662Y-64085203D01*
X164719706Y-64073096D01*
X164670352Y-64029752D01*
X164666960Y-64024648D01*
X164664066Y-64019204D01*
X164556238Y-63886994D01*
X164542960Y-63870713D01*
X164542957Y-63870710D01*
X164539065Y-63865938D01*
X164532718Y-63860687D01*
X164391425Y-63743799D01*
X164391421Y-63743797D01*
X164386675Y-63739870D01*
X164212701Y-63645802D01*
X164023768Y-63587318D01*
X164017643Y-63586674D01*
X164017642Y-63586674D01*
X163833204Y-63567289D01*
X163833202Y-63567289D01*
X163827075Y-63566645D01*
X163744576Y-63574153D01*
X163636251Y-63584011D01*
X163636248Y-63584012D01*
X163630112Y-63584570D01*
X163624206Y-63586308D01*
X163624202Y-63586309D01*
X163519076Y-63617249D01*
X163440381Y-63640410D01*
X163434923Y-63643263D01*
X163434919Y-63643265D01*
X163396392Y-63663407D01*
X163265110Y-63732040D01*
X163110975Y-63855968D01*
X163062600Y-63913619D01*
X163003493Y-63952944D01*
X162932506Y-63954070D01*
X162889552Y-63932722D01*
X162829743Y-63886994D01*
X162829739Y-63886991D01*
X162824322Y-63882850D01*
X162704742Y-63827089D01*
X162666369Y-63809195D01*
X162666366Y-63809194D01*
X162660192Y-63806315D01*
X162653544Y-63804829D01*
X162653541Y-63804828D01*
X162488494Y-63767936D01*
X162488495Y-63767936D01*
X162483457Y-63766810D01*
X162477912Y-63766500D01*
X162344756Y-63766500D01*
X162209963Y-63781143D01*
X162126609Y-63809195D01*
X162044796Y-63836728D01*
X162044794Y-63836729D01*
X162038325Y-63838906D01*
X161883095Y-63932177D01*
X161878138Y-63936865D01*
X161878135Y-63936867D01*
X161791067Y-64019204D01*
X161751515Y-64056607D01*
X161747683Y-64062245D01*
X161747680Y-64062249D01*
X161663746Y-64185754D01*
X161649723Y-64206388D01*
X161582470Y-64374534D01*
X161581356Y-64381262D01*
X161581355Y-64381266D01*
X161557270Y-64526751D01*
X161552892Y-64553198D01*
X157442203Y-64553198D01*
X157437987Y-64472766D01*
X157437630Y-64465953D01*
X157433028Y-64449243D01*
X157391352Y-64297941D01*
X157389539Y-64291359D01*
X157305078Y-64131164D01*
X157300673Y-64125951D01*
X157300670Y-64125947D01*
X157192594Y-63998057D01*
X157192590Y-63998053D01*
X157188187Y-63992843D01*
X157148240Y-63962301D01*
X157049743Y-63886994D01*
X157049739Y-63886991D01*
X157044322Y-63882850D01*
X156924742Y-63827089D01*
X156886369Y-63809195D01*
X156886366Y-63809194D01*
X156880192Y-63806315D01*
X156873544Y-63804829D01*
X156873541Y-63804828D01*
X156708494Y-63767936D01*
X156708495Y-63767936D01*
X156703457Y-63766810D01*
X156697912Y-63766500D01*
X156564756Y-63766500D01*
X156429963Y-63781143D01*
X156346609Y-63809195D01*
X156264796Y-63836728D01*
X156264794Y-63836729D01*
X156258325Y-63838906D01*
X156103095Y-63932177D01*
X156102671Y-63931472D01*
X156041480Y-63954762D01*
X155972007Y-63940135D01*
X155934008Y-63908782D01*
X155912858Y-63882850D01*
X155899065Y-63865938D01*
X155892718Y-63860687D01*
X155751425Y-63743799D01*
X155751421Y-63743797D01*
X155746675Y-63739870D01*
X155572701Y-63645802D01*
X155383768Y-63587318D01*
X155377643Y-63586674D01*
X155377642Y-63586674D01*
X155193204Y-63567289D01*
X155193202Y-63567289D01*
X155187075Y-63566645D01*
X155104576Y-63574153D01*
X154996251Y-63584011D01*
X154996248Y-63584012D01*
X154990112Y-63584570D01*
X154984206Y-63586308D01*
X154984202Y-63586309D01*
X154879076Y-63617249D01*
X154800381Y-63640410D01*
X154794923Y-63643263D01*
X154794919Y-63643265D01*
X154756392Y-63663407D01*
X154625110Y-63732040D01*
X154470975Y-63855968D01*
X154343846Y-64007474D01*
X154340879Y-64012872D01*
X154340875Y-64012877D01*
X154275847Y-64131164D01*
X154248567Y-64180787D01*
X154246706Y-64186654D01*
X154246705Y-64186656D01*
X154211403Y-64297941D01*
X154188765Y-64369306D01*
X154171500Y-64523227D01*
X154171500Y-65729769D01*
X153255847Y-65729769D01*
X153244365Y-65620525D01*
X153188599Y-65448893D01*
X153098367Y-65292607D01*
X153088980Y-65282181D01*
X152982035Y-65163407D01*
X152982034Y-65163406D01*
X152977613Y-65158496D01*
X152970583Y-65153388D01*
X152836957Y-65056303D01*
X152836956Y-65056302D01*
X152831615Y-65052422D01*
X152825587Y-65049738D01*
X152825585Y-65049737D01*
X152672783Y-64981705D01*
X152672781Y-64981705D01*
X152666752Y-64979020D01*
X152660297Y-64977648D01*
X152660294Y-64977647D01*
X152544049Y-64952939D01*
X152481575Y-64919211D01*
X152447253Y-64857061D01*
X152451981Y-64786222D01*
X152467032Y-64757422D01*
X152534363Y-64661263D01*
X152534367Y-64661257D01*
X152537523Y-64656749D01*
X152539846Y-64651767D01*
X152539849Y-64651762D01*
X152631961Y-64454225D01*
X152631961Y-64454224D01*
X152634284Y-64449243D01*
X152654303Y-64374534D01*
X152692119Y-64233402D01*
X152692119Y-64233400D01*
X152693543Y-64228087D01*
X152713498Y-64000000D01*
X152693543Y-63771913D01*
X152683894Y-63735903D01*
X152635707Y-63556067D01*
X152635706Y-63556065D01*
X152634284Y-63550757D01*
X152609835Y-63498325D01*
X152539849Y-63348238D01*
X152539846Y-63348233D01*
X152537523Y-63343251D01*
X152406198Y-63155700D01*
X152244300Y-62993802D01*
X152239792Y-62990645D01*
X152239789Y-62990643D01*
X152113796Y-62902422D01*
X152056749Y-62862477D01*
X152051767Y-62860154D01*
X152051762Y-62860151D01*
X151854225Y-62768039D01*
X151854224Y-62768039D01*
X151849243Y-62765716D01*
X151843935Y-62764294D01*
X151843933Y-62764293D01*
X151633402Y-62707881D01*
X151633400Y-62707881D01*
X151628087Y-62706457D01*
X151400000Y-62686502D01*
X151171913Y-62706457D01*
X151166600Y-62707881D01*
X151166598Y-62707881D01*
X150956067Y-62764293D01*
X150956065Y-62764294D01*
X150950757Y-62765716D01*
X150945776Y-62768039D01*
X150945775Y-62768039D01*
X150748238Y-62860151D01*
X150748233Y-62860154D01*
X150743251Y-62862477D01*
X150686204Y-62902422D01*
X150560211Y-62990643D01*
X150560208Y-62990645D01*
X150555700Y-62993802D01*
X150393802Y-63155700D01*
X150262477Y-63343251D01*
X150260154Y-63348233D01*
X150260151Y-63348238D01*
X150190165Y-63498325D01*
X150165716Y-63550757D01*
X150164294Y-63556065D01*
X150164293Y-63556067D01*
X150116106Y-63735903D01*
X150106457Y-63771913D01*
X150086502Y-64000000D01*
X149113498Y-64000000D01*
X149093543Y-63771913D01*
X149083894Y-63735903D01*
X149035707Y-63556067D01*
X149035706Y-63556065D01*
X149034284Y-63550757D01*
X149009835Y-63498325D01*
X148939849Y-63348238D01*
X148939846Y-63348233D01*
X148937523Y-63343251D01*
X148806198Y-63155700D01*
X148644300Y-62993802D01*
X148639792Y-62990645D01*
X148639789Y-62990643D01*
X148513796Y-62902422D01*
X148456749Y-62862477D01*
X148451767Y-62860154D01*
X148451762Y-62860151D01*
X148254225Y-62768039D01*
X148254224Y-62768039D01*
X148249243Y-62765716D01*
X148243935Y-62764294D01*
X148243933Y-62764293D01*
X148033402Y-62707881D01*
X148033400Y-62707881D01*
X148028087Y-62706457D01*
X147800000Y-62686502D01*
X147571913Y-62706457D01*
X147566600Y-62707881D01*
X147566598Y-62707881D01*
X147356067Y-62764293D01*
X147356065Y-62764294D01*
X147350757Y-62765716D01*
X147345776Y-62768039D01*
X147345775Y-62768039D01*
X147148238Y-62860151D01*
X147148233Y-62860154D01*
X147143251Y-62862477D01*
X147086204Y-62902422D01*
X146960211Y-62990643D01*
X146960208Y-62990645D01*
X146955700Y-62993802D01*
X146793802Y-63155700D01*
X146662477Y-63343251D01*
X146660154Y-63348233D01*
X146660151Y-63348238D01*
X146590165Y-63498325D01*
X146565716Y-63550757D01*
X146564294Y-63556065D01*
X146564293Y-63556067D01*
X146516106Y-63735903D01*
X146506457Y-63771913D01*
X146486502Y-64000000D01*
X145513498Y-64000000D01*
X145493543Y-63771913D01*
X145483894Y-63735903D01*
X145435707Y-63556067D01*
X145435706Y-63556065D01*
X145434284Y-63550757D01*
X145409835Y-63498325D01*
X145339849Y-63348238D01*
X145339846Y-63348233D01*
X145337523Y-63343251D01*
X145206198Y-63155700D01*
X145044300Y-62993802D01*
X145039792Y-62990645D01*
X145039789Y-62990643D01*
X144913796Y-62902422D01*
X144856749Y-62862477D01*
X144851767Y-62860154D01*
X144851762Y-62860151D01*
X144654225Y-62768039D01*
X144654224Y-62768039D01*
X144649243Y-62765716D01*
X144643935Y-62764294D01*
X144643933Y-62764293D01*
X144433402Y-62707881D01*
X144433400Y-62707881D01*
X144428087Y-62706457D01*
X144200000Y-62686502D01*
X143971913Y-62706457D01*
X143966600Y-62707881D01*
X143966598Y-62707881D01*
X143756067Y-62764293D01*
X143756065Y-62764294D01*
X143750757Y-62765716D01*
X143745776Y-62768039D01*
X143745775Y-62768039D01*
X143548238Y-62860151D01*
X143548233Y-62860154D01*
X143543251Y-62862477D01*
X143486204Y-62902422D01*
X143360211Y-62990643D01*
X143360208Y-62990645D01*
X143355700Y-62993802D01*
X143193802Y-63155700D01*
X143062477Y-63343251D01*
X143060154Y-63348233D01*
X143060151Y-63348238D01*
X142990165Y-63498325D01*
X142965716Y-63550757D01*
X142964294Y-63556065D01*
X142964293Y-63556067D01*
X142916106Y-63735903D01*
X142906457Y-63771913D01*
X142886502Y-64000000D01*
X136208500Y-64000000D01*
X136208500Y-63727885D01*
X139292000Y-63727885D01*
X139296475Y-63743124D01*
X139297865Y-63744329D01*
X139305548Y-63746000D01*
X140327885Y-63746000D01*
X140343124Y-63741525D01*
X140344329Y-63740135D01*
X140346000Y-63732452D01*
X140346000Y-63727885D01*
X140854000Y-63727885D01*
X140858475Y-63743124D01*
X140859865Y-63744329D01*
X140867548Y-63746000D01*
X141889884Y-63746000D01*
X141905123Y-63741525D01*
X141906328Y-63740135D01*
X141907999Y-63732452D01*
X141907999Y-63402905D01*
X141907662Y-63396386D01*
X141897743Y-63300794D01*
X141894851Y-63287400D01*
X141843412Y-63133216D01*
X141837239Y-63120038D01*
X141751937Y-62982193D01*
X141742901Y-62970792D01*
X141628171Y-62856261D01*
X141616760Y-62847249D01*
X141478757Y-62762184D01*
X141465576Y-62756037D01*
X141311290Y-62704862D01*
X141297914Y-62701995D01*
X141203562Y-62692328D01*
X141197145Y-62692000D01*
X140872115Y-62692000D01*
X140856876Y-62696475D01*
X140855671Y-62697865D01*
X140854000Y-62705548D01*
X140854000Y-63727885D01*
X140346000Y-63727885D01*
X140346000Y-62710116D01*
X140341525Y-62694877D01*
X140340135Y-62693672D01*
X140332452Y-62692001D01*
X140002905Y-62692001D01*
X139996386Y-62692338D01*
X139900794Y-62702257D01*
X139887400Y-62705149D01*
X139733216Y-62756588D01*
X139720038Y-62762761D01*
X139582193Y-62848063D01*
X139570792Y-62857099D01*
X139456261Y-62971829D01*
X139447249Y-62983240D01*
X139362184Y-63121243D01*
X139356037Y-63134424D01*
X139304862Y-63288710D01*
X139301995Y-63302086D01*
X139292328Y-63396438D01*
X139292000Y-63402855D01*
X139292000Y-63727885D01*
X136208500Y-63727885D01*
X136208500Y-60542700D01*
X136228502Y-60474579D01*
X136282158Y-60428086D01*
X136352432Y-60417982D01*
X136417012Y-60447476D01*
X136457019Y-60513286D01*
X136465495Y-60548591D01*
X136467388Y-60553162D01*
X136467389Y-60553164D01*
X136488162Y-60603313D01*
X136562384Y-60782502D01*
X136694672Y-60998376D01*
X136859102Y-61190898D01*
X137051624Y-61355328D01*
X137267498Y-61487616D01*
X137272068Y-61489509D01*
X137272072Y-61489511D01*
X137496836Y-61582611D01*
X137501409Y-61584505D01*
X137586032Y-61604821D01*
X137742784Y-61642454D01*
X137742790Y-61642455D01*
X137747597Y-61643609D01*
X137847416Y-61651465D01*
X137934345Y-61658307D01*
X137934352Y-61658307D01*
X137936801Y-61658500D01*
X138063199Y-61658500D01*
X138065648Y-61658307D01*
X138065655Y-61658307D01*
X138152584Y-61651465D01*
X138252403Y-61643609D01*
X138257210Y-61642455D01*
X138257216Y-61642454D01*
X138413968Y-61604821D01*
X138498591Y-61584505D01*
X138503164Y-61582611D01*
X138727928Y-61489511D01*
X138727932Y-61489509D01*
X138732502Y-61487616D01*
X138948376Y-61355328D01*
X139013427Y-61299769D01*
X154171500Y-61299769D01*
X154171800Y-61302825D01*
X154171800Y-61302832D01*
X154172530Y-61310273D01*
X154185920Y-61446833D01*
X154243084Y-61636169D01*
X154335934Y-61810796D01*
X154406291Y-61897062D01*
X154457040Y-61959287D01*
X154457043Y-61959290D01*
X154460935Y-61964062D01*
X154465682Y-61967989D01*
X154465684Y-61967991D01*
X154608575Y-62086201D01*
X154608579Y-62086203D01*
X154613325Y-62090130D01*
X154787299Y-62184198D01*
X154976232Y-62242682D01*
X154982357Y-62243326D01*
X154982358Y-62243326D01*
X155166796Y-62262711D01*
X155166798Y-62262711D01*
X155172925Y-62263355D01*
X155255424Y-62255847D01*
X155363749Y-62245989D01*
X155363752Y-62245988D01*
X155369888Y-62245430D01*
X155375794Y-62243692D01*
X155375798Y-62243691D01*
X155480924Y-62212751D01*
X155559619Y-62189590D01*
X155565077Y-62186737D01*
X155565081Y-62186735D01*
X155655853Y-62139280D01*
X155734890Y-62097960D01*
X155889025Y-61974032D01*
X156016154Y-61822526D01*
X156019121Y-61817128D01*
X156019125Y-61817123D01*
X156106327Y-61658500D01*
X156111433Y-61649213D01*
X156113846Y-61641608D01*
X156169373Y-61466564D01*
X156169373Y-61466563D01*
X156171235Y-61460694D01*
X156188500Y-61306773D01*
X156188500Y-61299769D01*
X162811500Y-61299769D01*
X162811800Y-61302825D01*
X162811800Y-61302832D01*
X162812530Y-61310273D01*
X162825920Y-61446833D01*
X162883084Y-61636169D01*
X162975934Y-61810796D01*
X163046291Y-61897062D01*
X163097040Y-61959287D01*
X163097043Y-61959290D01*
X163100935Y-61964062D01*
X163105682Y-61967989D01*
X163105684Y-61967991D01*
X163248575Y-62086201D01*
X163248579Y-62086203D01*
X163253325Y-62090130D01*
X163427299Y-62184198D01*
X163616232Y-62242682D01*
X163622357Y-62243326D01*
X163622358Y-62243326D01*
X163806796Y-62262711D01*
X163806798Y-62262711D01*
X163812925Y-62263355D01*
X163895424Y-62255847D01*
X164003749Y-62245989D01*
X164003752Y-62245988D01*
X164009888Y-62245430D01*
X164015794Y-62243692D01*
X164015798Y-62243691D01*
X164120924Y-62212751D01*
X164199619Y-62189590D01*
X164205077Y-62186737D01*
X164205081Y-62186735D01*
X164295853Y-62139280D01*
X164374890Y-62097960D01*
X164529025Y-61974032D01*
X164656154Y-61822526D01*
X164659121Y-61817128D01*
X164659125Y-61817123D01*
X164746327Y-61658500D01*
X164751433Y-61649213D01*
X164753846Y-61641608D01*
X164809373Y-61466564D01*
X164809373Y-61466563D01*
X164811235Y-61460694D01*
X164828500Y-61306773D01*
X164828500Y-60600231D01*
X164827814Y-60593227D01*
X164819975Y-60513286D01*
X164814080Y-60453167D01*
X164756916Y-60263831D01*
X164664066Y-60089204D01*
X164593709Y-60002938D01*
X164542960Y-59940713D01*
X164542957Y-59940710D01*
X164539065Y-59935938D01*
X164532724Y-59930692D01*
X164391425Y-59813799D01*
X164391421Y-59813797D01*
X164386675Y-59809870D01*
X164212701Y-59715802D01*
X164023768Y-59657318D01*
X164017643Y-59656674D01*
X164017642Y-59656674D01*
X163833204Y-59637289D01*
X163833202Y-59637289D01*
X163827075Y-59636645D01*
X163744576Y-59644153D01*
X163636251Y-59654011D01*
X163636248Y-59654012D01*
X163630112Y-59654570D01*
X163624206Y-59656308D01*
X163624202Y-59656309D01*
X163519076Y-59687249D01*
X163440381Y-59710410D01*
X163434923Y-59713263D01*
X163434919Y-59713265D01*
X163393245Y-59735052D01*
X163265110Y-59802040D01*
X163110975Y-59925968D01*
X162983846Y-60077474D01*
X162980879Y-60082872D01*
X162980875Y-60082877D01*
X162974406Y-60094645D01*
X162888567Y-60250787D01*
X162886706Y-60256654D01*
X162886705Y-60256656D01*
X162835529Y-60417982D01*
X162828765Y-60439306D01*
X162811500Y-60593227D01*
X162811500Y-61299769D01*
X156188500Y-61299769D01*
X156188500Y-60600231D01*
X156187814Y-60593227D01*
X156179975Y-60513286D01*
X156174080Y-60453167D01*
X156116916Y-60263831D01*
X156024066Y-60089204D01*
X155953709Y-60002938D01*
X155902960Y-59940713D01*
X155902957Y-59940710D01*
X155899065Y-59935938D01*
X155892724Y-59930692D01*
X155751425Y-59813799D01*
X155751421Y-59813797D01*
X155746675Y-59809870D01*
X155572701Y-59715802D01*
X155383768Y-59657318D01*
X155377643Y-59656674D01*
X155377642Y-59656674D01*
X155193204Y-59637289D01*
X155193202Y-59637289D01*
X155187075Y-59636645D01*
X155104576Y-59644153D01*
X154996251Y-59654011D01*
X154996248Y-59654012D01*
X154990112Y-59654570D01*
X154984206Y-59656308D01*
X154984202Y-59656309D01*
X154879076Y-59687249D01*
X154800381Y-59710410D01*
X154794923Y-59713263D01*
X154794919Y-59713265D01*
X154753245Y-59735052D01*
X154625110Y-59802040D01*
X154470975Y-59925968D01*
X154343846Y-60077474D01*
X154340879Y-60082872D01*
X154340875Y-60082877D01*
X154334406Y-60094645D01*
X154248567Y-60250787D01*
X154246706Y-60256654D01*
X154246705Y-60256656D01*
X154195529Y-60417982D01*
X154188765Y-60439306D01*
X154171500Y-60593227D01*
X154171500Y-61299769D01*
X139013427Y-61299769D01*
X139140898Y-61190898D01*
X139305328Y-60998376D01*
X139437616Y-60782502D01*
X139511839Y-60603313D01*
X139532611Y-60553164D01*
X139532612Y-60553162D01*
X139534505Y-60548591D01*
X139562151Y-60433436D01*
X139592454Y-60307216D01*
X139592455Y-60307210D01*
X139593609Y-60302403D01*
X139613474Y-60050000D01*
X139593609Y-59797597D01*
X139578594Y-59735052D01*
X139535660Y-59556221D01*
X139534505Y-59551409D01*
X139532611Y-59546836D01*
X139439511Y-59322072D01*
X139439509Y-59322068D01*
X139437616Y-59317498D01*
X139305328Y-59101624D01*
X139140898Y-58909102D01*
X138948376Y-58744672D01*
X138732502Y-58612384D01*
X138727932Y-58610491D01*
X138727928Y-58610489D01*
X138503164Y-58517389D01*
X138503162Y-58517388D01*
X138498591Y-58515495D01*
X138463286Y-58507019D01*
X138401717Y-58471667D01*
X138369034Y-58408640D01*
X138375615Y-58337949D01*
X138419369Y-58282038D01*
X138492700Y-58258500D01*
X181007300Y-58258500D01*
X181075421Y-58278502D01*
G37*
%TD.AperFunction*%
%TD*%
M02*
