%TF.GenerationSoftware,KiCad,Pcbnew,(6.0.7)*%
%TF.CreationDate,2022-09-13T17:29:24+02:00*%
%TF.ProjectId,rp2040-keypad,72703230-3430-42d6-9b65-797061642e6b,rev?*%
%TF.SameCoordinates,Original*%
%TF.FileFunction,Copper,L1,Top*%
%TF.FilePolarity,Positive*%
%FSLAX46Y46*%
G04 Gerber Fmt 4.6, Leading zero omitted, Abs format (unit mm)*
G04 Created by KiCad (PCBNEW (6.0.7)) date 2022-09-13 17:29:24*
%MOMM*%
%LPD*%
G01*
G04 APERTURE LIST*
G04 Aperture macros list*
%AMRoundRect*
0 Rectangle with rounded corners*
0 $1 Rounding radius*
0 $2 $3 $4 $5 $6 $7 $8 $9 X,Y pos of 4 corners*
0 Add a 4 corners polygon primitive as box body*
4,1,4,$2,$3,$4,$5,$6,$7,$8,$9,$2,$3,0*
0 Add four circle primitives for the rounded corners*
1,1,$1+$1,$2,$3*
1,1,$1+$1,$4,$5*
1,1,$1+$1,$6,$7*
1,1,$1+$1,$8,$9*
0 Add four rect primitives between the rounded corners*
20,1,$1+$1,$2,$3,$4,$5,0*
20,1,$1+$1,$4,$5,$6,$7,0*
20,1,$1+$1,$6,$7,$8,$9,0*
20,1,$1+$1,$8,$9,$2,$3,0*%
G04 Aperture macros list end*
%TA.AperFunction,SMDPad,CuDef*%
%ADD10RoundRect,0.140000X0.170000X-0.140000X0.170000X0.140000X-0.170000X0.140000X-0.170000X-0.140000X0*%
%TD*%
%TA.AperFunction,SMDPad,CuDef*%
%ADD11RoundRect,0.140000X-0.140000X-0.170000X0.140000X-0.170000X0.140000X0.170000X-0.140000X0.170000X0*%
%TD*%
%TA.AperFunction,SMDPad,CuDef*%
%ADD12RoundRect,0.225000X-0.250000X0.225000X-0.250000X-0.225000X0.250000X-0.225000X0.250000X0.225000X0*%
%TD*%
%TA.AperFunction,SMDPad,CuDef*%
%ADD13RoundRect,0.140000X-0.170000X0.140000X-0.170000X-0.140000X0.170000X-0.140000X0.170000X0.140000X0*%
%TD*%
%TA.AperFunction,SMDPad,CuDef*%
%ADD14R,1.400000X1.200000*%
%TD*%
%TA.AperFunction,SMDPad,CuDef*%
%ADD15RoundRect,0.135000X0.185000X-0.135000X0.185000X0.135000X-0.185000X0.135000X-0.185000X-0.135000X0*%
%TD*%
%TA.AperFunction,ComponentPad*%
%ADD16C,2.500000*%
%TD*%
%TA.AperFunction,SMDPad,CuDef*%
%ADD17R,3.200000X3.200000*%
%TD*%
%TA.AperFunction,SMDPad,CuDef*%
%ADD18RoundRect,0.050000X-0.050000X-0.387500X0.050000X-0.387500X0.050000X0.387500X-0.050000X0.387500X0*%
%TD*%
%TA.AperFunction,SMDPad,CuDef*%
%ADD19RoundRect,0.050000X-0.387500X-0.050000X0.387500X-0.050000X0.387500X0.050000X-0.387500X0.050000X0*%
%TD*%
%TA.AperFunction,SMDPad,CuDef*%
%ADD20RoundRect,0.150000X-0.650000X-0.150000X0.650000X-0.150000X0.650000X0.150000X-0.650000X0.150000X0*%
%TD*%
%TA.AperFunction,SMDPad,CuDef*%
%ADD21RoundRect,0.135000X-0.185000X0.135000X-0.185000X-0.135000X0.185000X-0.135000X0.185000X0.135000X0*%
%TD*%
%TA.AperFunction,SMDPad,CuDef*%
%ADD22R,0.600000X1.450000*%
%TD*%
%TA.AperFunction,SMDPad,CuDef*%
%ADD23R,0.300000X1.450000*%
%TD*%
%TA.AperFunction,ComponentPad*%
%ADD24O,1.000000X1.600000*%
%TD*%
%TA.AperFunction,ComponentPad*%
%ADD25O,1.000000X2.100000*%
%TD*%
%TA.AperFunction,SMDPad,CuDef*%
%ADD26R,1.500000X2.000000*%
%TD*%
%TA.AperFunction,SMDPad,CuDef*%
%ADD27R,3.800000X2.000000*%
%TD*%
%TA.AperFunction,ComponentPad*%
%ADD28RoundRect,0.250000X-0.550000X-0.550000X0.550000X-0.550000X0.550000X0.550000X-0.550000X0.550000X0*%
%TD*%
%TA.AperFunction,ComponentPad*%
%ADD29C,1.600000*%
%TD*%
%TA.AperFunction,SMDPad,CuDef*%
%ADD30R,1.000000X1.500000*%
%TD*%
%TA.AperFunction,ViaPad*%
%ADD31C,0.700000*%
%TD*%
%TA.AperFunction,ViaPad*%
%ADD32C,0.500000*%
%TD*%
%TA.AperFunction,ViaPad*%
%ADD33C,0.800000*%
%TD*%
%TA.AperFunction,Conductor*%
%ADD34C,0.200000*%
%TD*%
%TA.AperFunction,Conductor*%
%ADD35C,0.700000*%
%TD*%
%TA.AperFunction,Conductor*%
%ADD36C,0.500000*%
%TD*%
%TA.AperFunction,Conductor*%
%ADD37C,0.300000*%
%TD*%
G04 APERTURE END LIST*
D10*
%TO.P,C7,2*%
%TO.N,GND*%
X164950000Y-80520000D03*
%TO.P,C7,1*%
%TO.N,+3V3*%
X164950000Y-81480000D03*
%TD*%
D11*
%TO.P,C13,2*%
%TO.N,GND*%
X164905000Y-75225000D03*
%TO.P,C13,1*%
%TO.N,+3V3*%
X163945000Y-75225000D03*
%TD*%
D12*
%TO.P,C2,1*%
%TO.N,VBUS*%
X168200000Y-60875000D03*
%TO.P,C2,2*%
%TO.N,GND*%
X168200000Y-62425000D03*
%TD*%
D13*
%TO.P,C9,2*%
%TO.N,GND*%
X153850000Y-80055000D03*
%TO.P,C9,1*%
%TO.N,+3V3*%
X153850000Y-79095000D03*
%TD*%
D11*
%TO.P,C6,2*%
%TO.N,GND*%
X164880000Y-77600000D03*
%TO.P,C6,1*%
%TO.N,+3V3*%
X163920000Y-77600000D03*
%TD*%
%TO.P,C8,2*%
%TO.N,GND*%
X164905000Y-76425000D03*
%TO.P,C8,1*%
%TO.N,+3V3*%
X163945000Y-76425000D03*
%TD*%
D14*
%TO.P,Y1,4,4*%
%TO.N,GND*%
X172300000Y-82650000D03*
%TO.P,Y1,3,3*%
%TO.N,Net-(C16-Pad1)*%
X170100000Y-82650000D03*
%TO.P,Y1,2,2*%
%TO.N,GND*%
X170100000Y-80950000D03*
%TO.P,Y1,1,1*%
%TO.N,Net-(C17-Pad1)*%
X172300000Y-80950000D03*
%TD*%
D15*
%TO.P,R4,2*%
%TO.N,/USB_D-*%
X160250000Y-68290000D03*
%TO.P,R4,1*%
%TO.N,Net-(R4-Pad1)*%
X160250000Y-69310000D03*
%TD*%
D10*
%TO.P,C4,2*%
%TO.N,GND*%
X163800000Y-80520000D03*
%TO.P,C4,1*%
%TO.N,+1V1*%
X163800000Y-81480000D03*
%TD*%
D16*
%TO.P,SW2,1,1*%
%TO.N,/KEY2*%
X145890000Y-88360000D03*
%TO.P,SW2,2,2*%
%TO.N,GND*%
X152240000Y-85820000D03*
%TD*%
D17*
%TO.P,U2,57,GND*%
%TO.N,GND*%
X158950000Y-77800000D03*
D18*
%TO.P,U2,56,QSPI_SS*%
%TO.N,/QSPI_SS*%
X156350000Y-74362500D03*
%TO.P,U2,55,QSPI_SD1*%
%TO.N,/QSPI_SD1*%
X156750000Y-74362500D03*
%TO.P,U2,54,QSPI_SD2*%
%TO.N,/QSPI_SD2*%
X157150000Y-74362500D03*
%TO.P,U2,53,QSPI_SD0*%
%TO.N,/QSPI_SD0*%
X157550000Y-74362500D03*
%TO.P,U2,52,QSPI_SCLK*%
%TO.N,/QSPI_SCLK*%
X157950000Y-74362500D03*
%TO.P,U2,51,QSPI_SD3*%
%TO.N,/QSPI_SD3*%
X158350000Y-74362500D03*
%TO.P,U2,50,DVDD*%
%TO.N,+1V1*%
X158750000Y-74362500D03*
%TO.P,U2,49,IOVDD*%
%TO.N,+3V3*%
X159150000Y-74362500D03*
%TO.P,U2,48,USB_VDD*%
X159550000Y-74362500D03*
%TO.P,U2,47,USB_DP*%
%TO.N,Net-(R3-Pad2)*%
X159950000Y-74362500D03*
%TO.P,U2,46,USB_DM*%
%TO.N,Net-(R4-Pad1)*%
X160350000Y-74362500D03*
%TO.P,U2,45,VREG_VOUT*%
%TO.N,+1V1*%
X160750000Y-74362500D03*
%TO.P,U2,44,VREG_IN*%
%TO.N,+3V3*%
X161150000Y-74362500D03*
%TO.P,U2,43,ADC_AVDD*%
X161550000Y-74362500D03*
D19*
%TO.P,U2,42,IOVDD*%
X162387500Y-75200000D03*
%TO.P,U2,41,GPIO29_ADC3*%
%TO.N,unconnected-(U2-Pad41)*%
X162387500Y-75600000D03*
%TO.P,U2,40,GPIO28_ADC2*%
%TO.N,unconnected-(U2-Pad40)*%
X162387500Y-76000000D03*
%TO.P,U2,39,GPIO27_ADC1*%
%TO.N,unconnected-(U2-Pad39)*%
X162387500Y-76400000D03*
%TO.P,U2,38,GPIO26_ADC0*%
%TO.N,unconnected-(U2-Pad38)*%
X162387500Y-76800000D03*
%TO.P,U2,37,GPIO25*%
%TO.N,unconnected-(U2-Pad37)*%
X162387500Y-77200000D03*
%TO.P,U2,36,GPIO24*%
%TO.N,unconnected-(U2-Pad36)*%
X162387500Y-77600000D03*
%TO.P,U2,35,GPIO23*%
%TO.N,unconnected-(U2-Pad35)*%
X162387500Y-78000000D03*
%TO.P,U2,34,GPIO22*%
%TO.N,unconnected-(U2-Pad34)*%
X162387500Y-78400000D03*
%TO.P,U2,33,IOVDD*%
%TO.N,+3V3*%
X162387500Y-78800000D03*
%TO.P,U2,32,GPIO21*%
%TO.N,unconnected-(U2-Pad32)*%
X162387500Y-79200000D03*
%TO.P,U2,31,GPIO20*%
%TO.N,unconnected-(U2-Pad31)*%
X162387500Y-79600000D03*
%TO.P,U2,30,GPIO19*%
%TO.N,unconnected-(U2-Pad30)*%
X162387500Y-80000000D03*
%TO.P,U2,29,GPIO18*%
%TO.N,unconnected-(U2-Pad29)*%
X162387500Y-80400000D03*
D18*
%TO.P,U2,28,GPIO17*%
%TO.N,unconnected-(U2-Pad28)*%
X161550000Y-81237500D03*
%TO.P,U2,27,GPIO16*%
%TO.N,unconnected-(U2-Pad27)*%
X161150000Y-81237500D03*
%TO.P,U2,26,RUN*%
%TO.N,unconnected-(U2-Pad26)*%
X160750000Y-81237500D03*
%TO.P,U2,25,SWD*%
%TO.N,/SWD*%
X160350000Y-81237500D03*
%TO.P,U2,24,SWCLK*%
%TO.N,/SWCLK*%
X159950000Y-81237500D03*
%TO.P,U2,23,DVDD*%
%TO.N,+1V1*%
X159550000Y-81237500D03*
%TO.P,U2,22,IOVDD*%
%TO.N,+3V3*%
X159150000Y-81237500D03*
%TO.P,U2,21,XOUT*%
%TO.N,Net-(R6-Pad2)*%
X158750000Y-81237500D03*
%TO.P,U2,20,XIN*%
%TO.N,Net-(C16-Pad1)*%
X158350000Y-81237500D03*
%TO.P,U2,19,TESTEN*%
%TO.N,GND*%
X157950000Y-81237500D03*
%TO.P,U2,18,GPIO15*%
%TO.N,unconnected-(U2-Pad18)*%
X157550000Y-81237500D03*
%TO.P,U2,17,GPIO14*%
%TO.N,unconnected-(U2-Pad17)*%
X157150000Y-81237500D03*
%TO.P,U2,16,GPIO13*%
%TO.N,unconnected-(U2-Pad16)*%
X156750000Y-81237500D03*
%TO.P,U2,15,GPIO12*%
%TO.N,unconnected-(U2-Pad15)*%
X156350000Y-81237500D03*
D19*
%TO.P,U2,14,GPIO11*%
%TO.N,unconnected-(U2-Pad14)*%
X155512500Y-80400000D03*
%TO.P,U2,13,GPIO10*%
%TO.N,unconnected-(U2-Pad13)*%
X155512500Y-80000000D03*
%TO.P,U2,12,GPIO9*%
%TO.N,unconnected-(U2-Pad12)*%
X155512500Y-79600000D03*
%TO.P,U2,11,GPIO8*%
%TO.N,unconnected-(U2-Pad11)*%
X155512500Y-79200000D03*
%TO.P,U2,10,IOVDD*%
%TO.N,+3V3*%
X155512500Y-78800000D03*
%TO.P,U2,9,GPIO7*%
%TO.N,/KEY2*%
X155512500Y-78400000D03*
%TO.P,U2,8,GPIO6*%
%TO.N,/KEY1*%
X155512500Y-78000000D03*
%TO.P,U2,7,GPIO5*%
%TO.N,unconnected-(U2-Pad7)*%
X155512500Y-77600000D03*
%TO.P,U2,6,GPIO4*%
%TO.N,unconnected-(U2-Pad6)*%
X155512500Y-77200000D03*
%TO.P,U2,5,GPIO3*%
%TO.N,unconnected-(U2-Pad5)*%
X155512500Y-76800000D03*
%TO.P,U2,4,GPIO2*%
%TO.N,unconnected-(U2-Pad4)*%
X155512500Y-76400000D03*
%TO.P,U2,3,GPIO1*%
%TO.N,unconnected-(U2-Pad3)*%
X155512500Y-76000000D03*
%TO.P,U2,2,GPIO0*%
%TO.N,unconnected-(U2-Pad2)*%
X155512500Y-75600000D03*
%TO.P,U2,1,IOVDD*%
%TO.N,+3V3*%
X155512500Y-75200000D03*
%TD*%
D20*
%TO.P,U3,1,~{CS}*%
%TO.N,/QSPI_SS*%
X144050000Y-69845000D03*
%TO.P,U3,2,DO(IO1)*%
%TO.N,/QSPI_SD1*%
X144050000Y-71115000D03*
%TO.P,U3,3,IO2*%
%TO.N,/QSPI_SD2*%
X144050000Y-72385000D03*
%TO.P,U3,4,GND*%
%TO.N,GND*%
X144050000Y-73655000D03*
%TO.P,U3,5,DI(IO0)*%
%TO.N,/QSPI_SD0*%
X151250000Y-73655000D03*
%TO.P,U3,6,CLK*%
%TO.N,/QSPI_SCLK*%
X151250000Y-72385000D03*
%TO.P,U3,7,IO3*%
%TO.N,/QSPI_SD3*%
X151250000Y-71115000D03*
%TO.P,U3,8,VCC*%
%TO.N,+3V3*%
X151250000Y-69845000D03*
%TD*%
D10*
%TO.P,C16,2*%
%TO.N,GND*%
X167900000Y-81600000D03*
%TO.P,C16,1*%
%TO.N,Net-(C16-Pad1)*%
X167900000Y-82560000D03*
%TD*%
D12*
%TO.P,C1,1*%
%TO.N,+3V3*%
X178200000Y-60875000D03*
%TO.P,C1,2*%
%TO.N,GND*%
X178200000Y-62425000D03*
%TD*%
D10*
%TO.P,C14,2*%
%TO.N,GND*%
X158000000Y-70320000D03*
%TO.P,C14,1*%
%TO.N,+3V3*%
X158000000Y-71280000D03*
%TD*%
D11*
%TO.P,C12,2*%
%TO.N,GND*%
X164905000Y-74025000D03*
%TO.P,C12,1*%
%TO.N,+3V3*%
X163945000Y-74025000D03*
%TD*%
D15*
%TO.P,R5,1*%
%TO.N,/NUSB_BOOT*%
X151200000Y-77700000D03*
%TO.P,R5,2*%
%TO.N,/QSPI_SS*%
X151200000Y-76680000D03*
%TD*%
D21*
%TO.P,R6,2*%
%TO.N,Net-(R6-Pad2)*%
X166600000Y-82610000D03*
%TO.P,R6,1*%
%TO.N,Net-(C17-Pad1)*%
X166600000Y-81590000D03*
%TD*%
D13*
%TO.P,C17,2*%
%TO.N,GND*%
X173925000Y-81755000D03*
%TO.P,C17,1*%
%TO.N,Net-(C17-Pad1)*%
X173925000Y-80795000D03*
%TD*%
D22*
%TO.P,J1,A1,GND*%
%TO.N,GND*%
X162750000Y-66045000D03*
%TO.P,J1,A4,VBUS*%
%TO.N,VBUS*%
X161950000Y-66045000D03*
D23*
%TO.P,J1,A5,CC1*%
%TO.N,Net-(J1-PadA5)*%
X160750000Y-66045000D03*
%TO.P,J1,A6,D+*%
%TO.N,/USB_D+*%
X159750000Y-66045000D03*
%TO.P,J1,A7,D-*%
%TO.N,/USB_D-*%
X159250000Y-66045000D03*
%TO.P,J1,A8,SBU1*%
%TO.N,unconnected-(J1-PadA8)*%
X158250000Y-66045000D03*
D22*
%TO.P,J1,A9,VBUS*%
%TO.N,VBUS*%
X157050000Y-66045000D03*
%TO.P,J1,A12,GND*%
%TO.N,GND*%
X156250000Y-66045000D03*
%TO.P,J1,B1,GND*%
X156250000Y-66045000D03*
%TO.P,J1,B4,VBUS*%
%TO.N,VBUS*%
X157050000Y-66045000D03*
D23*
%TO.P,J1,B5,CC2*%
%TO.N,Net-(J1-PadB5)*%
X157750000Y-66045000D03*
%TO.P,J1,B6,D+*%
%TO.N,/USB_D+*%
X158750000Y-66045000D03*
%TO.P,J1,B7,D-*%
%TO.N,/USB_D-*%
X160250000Y-66045000D03*
%TO.P,J1,B8,SBU2*%
%TO.N,unconnected-(J1-PadB8)*%
X161250000Y-66045000D03*
D22*
%TO.P,J1,B9,VBUS*%
%TO.N,VBUS*%
X161950000Y-66045000D03*
%TO.P,J1,B12,GND*%
%TO.N,GND*%
X162750000Y-66045000D03*
D24*
%TO.P,J1,S1,SHIELD*%
%TO.N,unconnected-(J1-PadS1)*%
X155180000Y-60950000D03*
D25*
X155180000Y-65130000D03*
D24*
X163820000Y-60950000D03*
D25*
X163820000Y-65130000D03*
%TD*%
D15*
%TO.P,R2,1*%
%TO.N,Net-(J1-PadB5)*%
X153400000Y-66835000D03*
%TO.P,R2,2*%
%TO.N,GND*%
X153400000Y-65815000D03*
%TD*%
D10*
%TO.P,C5,2*%
%TO.N,GND*%
X161400000Y-71570000D03*
%TO.P,C5,1*%
%TO.N,+1V1*%
X161400000Y-72530000D03*
%TD*%
D11*
%TO.P,C15,1*%
%TO.N,+3V3*%
X153920000Y-69800000D03*
%TO.P,C15,2*%
%TO.N,GND*%
X154880000Y-69800000D03*
%TD*%
D26*
%TO.P,U1,1,GND*%
%TO.N,GND*%
X175500000Y-62350000D03*
%TO.P,U1,2,VO*%
%TO.N,+3V3*%
X173200000Y-62350000D03*
D27*
X173200000Y-68650000D03*
D26*
%TO.P,U1,3,VI*%
%TO.N,VBUS*%
X170900000Y-62350000D03*
%TD*%
D28*
%TO.P,J2,1,Pin_1*%
%TO.N,+3V3*%
X140600000Y-64000000D03*
D29*
%TO.P,J2,2,Pin_2*%
%TO.N,/SWD*%
X144200000Y-64000000D03*
%TO.P,J2,3,Pin_3*%
%TO.N,/SWCLK*%
X147800000Y-64000000D03*
%TO.P,J2,4,Pin_4*%
%TO.N,GND*%
X151400000Y-64000000D03*
%TD*%
D30*
%TO.P,JP1,1,A*%
%TO.N,GND*%
X146850000Y-77525000D03*
%TO.P,JP1,2,B*%
%TO.N,/NUSB_BOOT*%
X148150000Y-77525000D03*
%TD*%
D10*
%TO.P,C3,2*%
%TO.N,GND*%
X156800000Y-70320000D03*
%TO.P,C3,1*%
%TO.N,+1V1*%
X156800000Y-71280000D03*
%TD*%
D15*
%TO.P,R1,1*%
%TO.N,Net-(J1-PadA5)*%
X165700000Y-66835000D03*
%TO.P,R1,2*%
%TO.N,GND*%
X165700000Y-65815000D03*
%TD*%
D11*
%TO.P,C10,2*%
%TO.N,GND*%
X164880000Y-72800000D03*
%TO.P,C10,1*%
%TO.N,+3V3*%
X163920000Y-72800000D03*
%TD*%
D21*
%TO.P,R3,2*%
%TO.N,Net-(R3-Pad2)*%
X159050000Y-69310000D03*
%TO.P,R3,1*%
%TO.N,/USB_D+*%
X159050000Y-68290000D03*
%TD*%
D13*
%TO.P,C11,2*%
%TO.N,GND*%
X153850000Y-76255000D03*
%TO.P,C11,1*%
%TO.N,+3V3*%
X153850000Y-75295000D03*
%TD*%
D16*
%TO.P,SW1,1,1*%
%TO.N,/KEY1*%
X164940000Y-88360000D03*
%TO.P,SW1,2,2*%
%TO.N,GND*%
X171290000Y-85820000D03*
%TD*%
D31*
%TO.N,GND*%
X175400000Y-64000000D03*
D32*
X165800000Y-77600000D03*
D31*
%TO.N,+3V3*%
X152800000Y-79400000D03*
%TO.N,GND*%
X158900000Y-77700000D03*
X157700000Y-79000000D03*
X160200000Y-79000000D03*
X160200000Y-76600000D03*
X157700000Y-76600000D03*
D32*
%TO.N,/KEY1*%
X156700000Y-78000000D03*
D31*
%TO.N,GND*%
X165700000Y-64300000D03*
X168500000Y-80700000D03*
X173900000Y-82800000D03*
X163800000Y-79000000D03*
D32*
%TO.N,/SWD*%
X161174930Y-80350500D03*
%TO.N,/SWCLK*%
X160605754Y-79846031D03*
D31*
%TO.N,GND*%
X151400000Y-65800000D03*
X152400000Y-65800000D03*
D32*
%TO.N,+3V3*%
X161500000Y-78300000D03*
X158800000Y-80200000D03*
X156445027Y-75400000D03*
%TO.N,+1V1*%
X160400000Y-75400000D03*
X159800000Y-79849502D03*
X158400000Y-75400000D03*
D31*
%TO.N,GND*%
X145400000Y-77600000D03*
X142600000Y-73600000D03*
X155200000Y-70800000D03*
%TO.N,+3V3*%
X153000000Y-69800000D03*
X174550000Y-60450000D03*
%TO.N,GND*%
X175750000Y-82475000D03*
X175750000Y-80275000D03*
X175750000Y-78600000D03*
X166150000Y-78600000D03*
X168350000Y-78600000D03*
X170550000Y-78500500D03*
X172950000Y-78600000D03*
X170150000Y-79800000D03*
X157800000Y-80200000D03*
D32*
X153800000Y-80800000D03*
X153800000Y-77000000D03*
D31*
X178100000Y-63650000D03*
D32*
X156800000Y-69400000D03*
X158000000Y-69400000D03*
X161400000Y-70800000D03*
X165800000Y-72800000D03*
X165800000Y-74000000D03*
X165800000Y-75200000D03*
X165800000Y-76400000D03*
%TO.N,/QSPI_SD1*%
X145800000Y-71200000D03*
X157400000Y-75400000D03*
%TO.N,/QSPI_SS*%
X149400000Y-74000000D03*
X149400000Y-75200000D03*
%TO.N,+3V3*%
X161200000Y-75400000D03*
X159200000Y-75400000D03*
D31*
X162600000Y-72800000D03*
D33*
X170250000Y-68650000D03*
D31*
%TO.N,GND*%
X163600000Y-67000000D03*
X168100000Y-63450000D03*
X155400000Y-67000000D03*
%TD*%
D34*
%TO.N,+3V3*%
X162919975Y-78800000D02*
X162387500Y-78800000D01*
X163920000Y-77799975D02*
X162919975Y-78800000D01*
X163920000Y-77600000D02*
X163920000Y-77799975D01*
D35*
%TO.N,GND*%
X163800000Y-79000000D02*
X163800000Y-80520000D01*
X175500000Y-63900000D02*
X175400000Y-64000000D01*
X175500000Y-62350000D02*
X175500000Y-63900000D01*
X164880000Y-77600000D02*
X165800000Y-77600000D01*
D36*
%TO.N,+3V3*%
X153105000Y-79095000D02*
X152800000Y-79400000D01*
X153850000Y-79095000D02*
X153105000Y-79095000D01*
D34*
X161855025Y-78800000D02*
X162387500Y-78800000D01*
X161500000Y-78444975D02*
X161855025Y-78800000D01*
X161500000Y-78300000D02*
X161500000Y-78444975D01*
%TO.N,/KEY2*%
X145890000Y-85210000D02*
X152700000Y-78400000D01*
X145890000Y-88360000D02*
X145890000Y-85210000D01*
X152700000Y-78400000D02*
X155512500Y-78400000D01*
%TO.N,/KEY1*%
X156700000Y-78000000D02*
X155512500Y-78000000D01*
D35*
%TO.N,unconnected-(J1-PadS1)*%
X155180000Y-60950000D02*
X163820000Y-60950000D01*
X155180000Y-65130000D02*
X155180000Y-60950000D01*
%TO.N,GND*%
X165700000Y-65815000D02*
X165700000Y-64300000D01*
D36*
%TO.N,VBUS*%
X166625000Y-60875000D02*
X168200000Y-60875000D01*
X161400000Y-63250000D02*
X164250000Y-63250000D01*
X164250000Y-63250000D02*
X166625000Y-60875000D01*
D35*
%TO.N,GND*%
X167900000Y-81300000D02*
X168500000Y-80700000D01*
X167900000Y-81600000D02*
X167900000Y-81300000D01*
X170100000Y-79850000D02*
X170150000Y-79800000D01*
X170100000Y-80950000D02*
X170100000Y-79850000D01*
X173925000Y-82775000D02*
X173900000Y-82800000D01*
X173925000Y-81755000D02*
X173925000Y-82775000D01*
X173750000Y-82650000D02*
X173900000Y-82800000D01*
X172300000Y-82650000D02*
X173750000Y-82650000D01*
X165000000Y-79000000D02*
X165100000Y-78900000D01*
X163800000Y-79000000D02*
X165000000Y-79000000D01*
X165100000Y-78600000D02*
X166150000Y-78600000D01*
X164950000Y-79050000D02*
X165100000Y-78900000D01*
X164950000Y-80520000D02*
X164950000Y-78750000D01*
D34*
%TO.N,+1V1*%
X163800000Y-81800000D02*
X163800000Y-81480000D01*
X159800000Y-82200000D02*
X163400000Y-82200000D01*
X163400000Y-82200000D02*
X163800000Y-81800000D01*
X159550000Y-81950000D02*
X159800000Y-82200000D01*
X159550000Y-81237500D02*
X159550000Y-81950000D01*
%TO.N,+3V3*%
X164950000Y-81950000D02*
X164950000Y-81480000D01*
X164300000Y-82600000D02*
X164950000Y-81950000D01*
X159350000Y-82600000D02*
X164300000Y-82600000D01*
X159150000Y-82400000D02*
X159350000Y-82600000D01*
X159150000Y-81237500D02*
X159150000Y-82400000D01*
%TO.N,Net-(R6-Pad2)*%
X166210000Y-83000000D02*
X159165686Y-83000000D01*
X166600000Y-82610000D02*
X166210000Y-83000000D01*
X159165686Y-83000000D02*
X158750000Y-82584314D01*
X158750000Y-82584314D02*
X158750000Y-81237500D01*
%TO.N,Net-(C17-Pad1)*%
X168850000Y-79150000D02*
X166600000Y-81400000D01*
X170500000Y-79150000D02*
X168850000Y-79150000D01*
X166600000Y-81400000D02*
X166600000Y-81590000D01*
X172300000Y-80950000D02*
X170500000Y-79150000D01*
%TO.N,Net-(C16-Pad1)*%
X158350000Y-82750000D02*
X158350000Y-81237500D01*
X159000000Y-83400000D02*
X158350000Y-82750000D01*
X167060000Y-83400000D02*
X159000000Y-83400000D01*
X167900000Y-82560000D02*
X167060000Y-83400000D01*
X167990000Y-82650000D02*
X167900000Y-82560000D01*
X170100000Y-82650000D02*
X167990000Y-82650000D01*
D35*
%TO.N,GND*%
X175750000Y-80275000D02*
X175750000Y-78600000D01*
X175750000Y-78600000D02*
X172950000Y-78600000D01*
X172850500Y-78500500D02*
X170550000Y-78500500D01*
X172950000Y-78600000D02*
X172850500Y-78500500D01*
X170550000Y-78500500D02*
X168449500Y-78500500D01*
X168449500Y-78500500D02*
X168350000Y-78600000D01*
X168350000Y-78600000D02*
X166150000Y-78600000D01*
D34*
%TO.N,/SWD*%
X161116695Y-80408735D02*
X161174930Y-80350500D01*
X160608736Y-80408735D02*
X161116695Y-80408735D01*
X160350000Y-81237500D02*
X160350000Y-80667471D01*
X160350000Y-80667471D02*
X160608736Y-80408735D01*
%TO.N,/SWCLK*%
X159950000Y-80501785D02*
X160605754Y-79846031D01*
X159950000Y-81237500D02*
X159950000Y-80501785D01*
D35*
%TO.N,GND*%
X151400000Y-64000000D02*
X151400000Y-65800000D01*
X152415000Y-65815000D02*
X152400000Y-65800000D01*
X153400000Y-65815000D02*
X152415000Y-65815000D01*
D34*
%TO.N,+3V3*%
X159150000Y-80550000D02*
X158800000Y-80200000D01*
X159150000Y-81237500D02*
X159150000Y-80550000D01*
%TO.N,+1V1*%
X159800000Y-79849502D02*
X159550000Y-80099502D01*
X159550000Y-80099502D02*
X159550000Y-81237500D01*
%TO.N,+3V3*%
X156222888Y-75200000D02*
X155512500Y-75200000D01*
X156445027Y-75422139D02*
X156222888Y-75200000D01*
%TO.N,/QSPI_SD1*%
X156750000Y-74894975D02*
X156750000Y-74362500D01*
X157255025Y-75400000D02*
X156750000Y-74894975D01*
X157400000Y-75400000D02*
X157255025Y-75400000D01*
%TO.N,+3V3*%
X162387500Y-75200000D02*
X161400000Y-75200000D01*
X161400000Y-75200000D02*
X161200000Y-75400000D01*
X161550000Y-75050000D02*
X161200000Y-75400000D01*
X161550000Y-74362500D02*
X161550000Y-75050000D01*
%TO.N,+1V1*%
X160750000Y-75050000D02*
X160400000Y-75400000D01*
X160750000Y-74362500D02*
X160750000Y-75050000D01*
%TO.N,+3V3*%
X161200000Y-75400000D02*
X161150000Y-75350000D01*
X161150000Y-75350000D02*
X161150000Y-74362500D01*
%TO.N,+1V1*%
X158750000Y-75050000D02*
X158400000Y-75400000D01*
X158750000Y-74362500D02*
X158750000Y-75050000D01*
%TO.N,/NUSB_BOOT*%
X151025000Y-77525000D02*
X148150000Y-77525000D01*
X151200000Y-77700000D02*
X151025000Y-77525000D01*
D35*
%TO.N,GND*%
X145475000Y-77525000D02*
X145400000Y-77600000D01*
X146850000Y-77525000D02*
X145475000Y-77525000D01*
X142655000Y-73655000D02*
X142600000Y-73600000D01*
X144050000Y-73655000D02*
X142655000Y-73655000D01*
X154880000Y-70480000D02*
X155200000Y-70800000D01*
X154880000Y-69800000D02*
X154880000Y-70480000D01*
%TO.N,+3V3*%
X153920000Y-69800000D02*
X153000000Y-69800000D01*
X152955000Y-69845000D02*
X153000000Y-69800000D01*
X151250000Y-69845000D02*
X152955000Y-69845000D01*
%TO.N,GND*%
X175750000Y-82475000D02*
X175750000Y-80275000D01*
D34*
%TO.N,Net-(C17-Pad1)*%
X172455000Y-80795000D02*
X172300000Y-80950000D01*
X173925000Y-80795000D02*
X172455000Y-80795000D01*
%TO.N,GND*%
X157950000Y-80350000D02*
X157800000Y-80200000D01*
X157950000Y-81237500D02*
X157950000Y-80350000D01*
%TO.N,+3V3*%
X155512500Y-78800000D02*
X154145000Y-78800000D01*
X154145000Y-78800000D02*
X153850000Y-79095000D01*
D35*
%TO.N,GND*%
X153850000Y-80750000D02*
X153800000Y-80800000D01*
X153850000Y-80055000D02*
X153850000Y-80750000D01*
X153850000Y-76950000D02*
X153800000Y-77000000D01*
X153850000Y-76255000D02*
X153850000Y-76950000D01*
D34*
%TO.N,+3V3*%
X153945000Y-75200000D02*
X153850000Y-75295000D01*
X155512500Y-75200000D02*
X153945000Y-75200000D01*
D35*
%TO.N,GND*%
X178200000Y-63550000D02*
X178100000Y-63650000D01*
X178200000Y-62425000D02*
X178200000Y-63550000D01*
X156800000Y-70320000D02*
X156800000Y-69400000D01*
X158000000Y-70320000D02*
X158000000Y-69400000D01*
X161400000Y-71570000D02*
X161400000Y-70800000D01*
X164880000Y-72800000D02*
X165800000Y-72800000D01*
X165775000Y-74025000D02*
X165800000Y-74000000D01*
X164905000Y-74025000D02*
X165775000Y-74025000D01*
X165775000Y-75225000D02*
X165800000Y-75200000D01*
X164905000Y-75225000D02*
X165775000Y-75225000D01*
X165775000Y-76425000D02*
X165800000Y-76400000D01*
X164905000Y-76425000D02*
X165775000Y-76425000D01*
%TO.N,+3V3*%
X173200000Y-62350000D02*
X173200000Y-68650000D01*
X177775000Y-60450000D02*
X178200000Y-60875000D01*
X174550000Y-60450000D02*
X177775000Y-60450000D01*
X173200000Y-62350000D02*
X173200000Y-61800000D01*
X173200000Y-61800000D02*
X174550000Y-60450000D01*
D34*
%TO.N,/USB_D+*%
X159050000Y-67350000D02*
X159000000Y-67300000D01*
X159050000Y-68290000D02*
X159050000Y-67350000D01*
%TO.N,/USB_D-*%
X160250000Y-68290000D02*
X160250000Y-66045000D01*
%TO.N,Net-(R3-Pad2)*%
X159800000Y-70060000D02*
X159050000Y-69310000D01*
X159800000Y-71165685D02*
X159800000Y-70060000D01*
X159950000Y-71315686D02*
X159800000Y-71165685D01*
X159950000Y-74362500D02*
X159950000Y-71315686D01*
%TO.N,Net-(R4-Pad1)*%
X160200000Y-69360000D02*
X160250000Y-69310000D01*
X160200000Y-71000000D02*
X160200000Y-69360000D01*
X160350000Y-71150000D02*
X160200000Y-71000000D01*
X160350000Y-74362500D02*
X160350000Y-71150000D01*
%TO.N,+3V3*%
X159350000Y-73350000D02*
X159150000Y-73350000D01*
X159150000Y-74362500D02*
X159150000Y-73350000D01*
X159150000Y-73350000D02*
X159150000Y-72430000D01*
X159550000Y-74362500D02*
X159550000Y-73550000D01*
X159550000Y-73550000D02*
X159350000Y-73350000D01*
%TO.N,/QSPI_SD1*%
X145800000Y-71200000D02*
X144135000Y-71200000D01*
X144135000Y-71200000D02*
X144050000Y-71115000D01*
%TO.N,/QSPI_SS*%
X145245000Y-69845000D02*
X144050000Y-69845000D01*
X149400000Y-74000000D02*
X145245000Y-69845000D01*
X149720000Y-75200000D02*
X149400000Y-75200000D01*
X151200000Y-76680000D02*
X149720000Y-75200000D01*
X151200000Y-76200000D02*
X151200000Y-76680000D01*
X153037500Y-74362500D02*
X151200000Y-76200000D01*
X156350000Y-74362500D02*
X153037500Y-74362500D01*
%TO.N,/QSPI_SD2*%
X145785000Y-72385000D02*
X144050000Y-72385000D01*
X148000000Y-74600000D02*
X145785000Y-72385000D01*
X151800000Y-74600000D02*
X148000000Y-74600000D01*
X153200000Y-73200000D02*
X151800000Y-74600000D01*
X156600000Y-73200000D02*
X153200000Y-73200000D01*
X157150000Y-73750000D02*
X156600000Y-73200000D01*
X157150000Y-74362500D02*
X157150000Y-73750000D01*
%TO.N,+3V3*%
X159150000Y-75350000D02*
X159200000Y-75400000D01*
X159150000Y-74362500D02*
X159150000Y-75350000D01*
X161925000Y-73475000D02*
X163395000Y-73475000D01*
X163920000Y-72800000D02*
X162600000Y-72800000D01*
X161425000Y-73475000D02*
X161925000Y-73475000D01*
%TO.N,/QSPI_SD0*%
X151920000Y-72985000D02*
X151250000Y-73655000D01*
X156834314Y-72800000D02*
X152271396Y-72800000D01*
X152271396Y-72800000D02*
X152086396Y-72985000D01*
X157550000Y-73515686D02*
X156834314Y-72800000D01*
X152086396Y-72985000D02*
X151920000Y-72985000D01*
X157550000Y-74362500D02*
X157550000Y-73515686D01*
%TO.N,/QSPI_SCLK*%
X151435000Y-72200000D02*
X151250000Y-72385000D01*
X154834315Y-72400000D02*
X154634315Y-72200000D01*
X157950000Y-73350000D02*
X157000000Y-72400000D01*
X157000000Y-72400000D02*
X154834315Y-72400000D01*
X154634315Y-72200000D02*
X151435000Y-72200000D01*
X157950000Y-74362500D02*
X157950000Y-73350000D01*
%TO.N,/QSPI_SD3*%
X157200000Y-72000000D02*
X155000000Y-72000000D01*
X155000000Y-72000000D02*
X154115000Y-71115000D01*
X157410000Y-72210000D02*
X157200000Y-72000000D01*
X157438187Y-72210000D02*
X157410000Y-72210000D01*
X154115000Y-71115000D02*
X151250000Y-71115000D01*
X158350000Y-73121813D02*
X157438187Y-72210000D01*
X158350000Y-74362500D02*
X158350000Y-73121813D01*
%TO.N,+1V1*%
X157073873Y-71280000D02*
X156800000Y-71280000D01*
X157390000Y-71596127D02*
X157073873Y-71280000D01*
X157653873Y-71860000D02*
X157647746Y-71860000D01*
X158750000Y-72956127D02*
X157653873Y-71860000D01*
X157390000Y-71602254D02*
X157390000Y-71596127D01*
X158750000Y-74362500D02*
X158750000Y-72956127D01*
X157647746Y-71860000D02*
X157390000Y-71602254D01*
%TO.N,+3V3*%
X159150000Y-72430000D02*
X158000000Y-71280000D01*
X163945000Y-76225025D02*
X162919975Y-75200000D01*
X163945000Y-76425000D02*
X163945000Y-76225025D01*
X162919975Y-75200000D02*
X162387500Y-75200000D01*
X163625000Y-75225000D02*
X163945000Y-75225000D01*
%TO.N,+1V1*%
X160750000Y-73130000D02*
X161350000Y-72530000D01*
X160750000Y-74362500D02*
X160750000Y-73130000D01*
D35*
%TO.N,VBUS*%
X170900000Y-61200000D02*
X170525000Y-60825000D01*
X170900000Y-61550000D02*
X170900000Y-61200000D01*
%TO.N,+3V3*%
X173200000Y-68650000D02*
X170250000Y-68650000D01*
D34*
X163395000Y-73475000D02*
X163945000Y-74025000D01*
X161150000Y-73750000D02*
X161425000Y-73475000D01*
X161150000Y-74362500D02*
X161150000Y-73750000D01*
X163025000Y-74625000D02*
X161812500Y-74625000D01*
X163625000Y-75225000D02*
X163025000Y-74625000D01*
X161812500Y-74625000D02*
X161550000Y-74362500D01*
X163795000Y-75200000D02*
X163945000Y-75350000D01*
D36*
%TO.N,GND*%
X162750000Y-66150000D02*
X163600000Y-67000000D01*
X156250000Y-66045000D02*
X156250000Y-66150000D01*
D35*
X168200000Y-62425000D02*
X168200000Y-63350000D01*
D36*
X162750000Y-66045000D02*
X162750000Y-66150000D01*
D35*
X168200000Y-63350000D02*
X168100000Y-63450000D01*
D36*
X156250000Y-66150000D02*
X155400000Y-67000000D01*
D37*
%TO.N,VBUS*%
X161950000Y-65325001D02*
X161400000Y-64775001D01*
X157050000Y-66045000D02*
X157050000Y-65325001D01*
X157335001Y-65040000D02*
X157335001Y-64400000D01*
X157050000Y-65325001D02*
X157335001Y-65040000D01*
D36*
X161400000Y-63250000D02*
X161400000Y-64775001D01*
D35*
X170525000Y-60825000D02*
X168200000Y-60825000D01*
D36*
X161375000Y-63225000D02*
X161400000Y-63250000D01*
D37*
X161950000Y-66045000D02*
X161950000Y-65325001D01*
D36*
X161375000Y-63225000D02*
X158825000Y-63225000D01*
D37*
X157335001Y-64400000D02*
X158510001Y-63225000D01*
D36*
X158510002Y-63225000D02*
X157467501Y-64267501D01*
X158825000Y-63225000D02*
X158510002Y-63225000D01*
X158825000Y-63225000D02*
X158510001Y-63225000D01*
D37*
%TO.N,Net-(J1-PadA5)*%
X165200000Y-67800000D02*
X165700000Y-67300000D01*
X161430000Y-67800000D02*
X165200000Y-67800000D01*
X160750000Y-66045000D02*
X160750000Y-67120000D01*
X165700000Y-67300000D02*
X165700000Y-66835000D01*
X160750000Y-67120000D02*
X161430000Y-67800000D01*
%TO.N,/USB_D+*%
X159750000Y-67050000D02*
X159500000Y-67300000D01*
X158750000Y-67050000D02*
X158750000Y-66045000D01*
X159500000Y-67300000D02*
X159000000Y-67300000D01*
X159000000Y-67300000D02*
X158750000Y-67050000D01*
X159750000Y-66045000D02*
X159750000Y-67050000D01*
%TO.N,/USB_D-*%
X159980000Y-64700000D02*
X160250000Y-64970000D01*
X159570000Y-64700000D02*
X159980000Y-64700000D01*
X160250000Y-64970000D02*
X160250000Y-66045000D01*
X159250000Y-66045000D02*
X159250000Y-65020000D01*
X159250000Y-65020000D02*
X159570000Y-64700000D01*
%TO.N,Net-(J1-PadB5)*%
X157750000Y-66045000D02*
X157750000Y-67250000D01*
X154000000Y-67800000D02*
X153400000Y-67200000D01*
X157200000Y-67800000D02*
X154000000Y-67800000D01*
X153400000Y-67200000D02*
X153400000Y-66835000D01*
X157750000Y-67250000D02*
X157200000Y-67800000D01*
%TD*%
M02*
