%TF.GenerationSoftware,KiCad,Pcbnew,(6.0.7)*%
%TF.CreationDate,2022-09-15T11:51:49+02:00*%
%TF.ProjectId,rp2040-keypad,72703230-3430-42d6-9b65-797061642e6b,rev?*%
%TF.SameCoordinates,Original*%
%TF.FileFunction,Legend,Top*%
%TF.FilePolarity,Positive*%
%FSLAX46Y46*%
G04 Gerber Fmt 4.6, Leading zero omitted, Abs format (unit mm)*
G04 Created by KiCad (PCBNEW (6.0.7)) date 2022-09-15 11:51:49*
%MOMM*%
%LPD*%
G01*
G04 APERTURE LIST*
%ADD10C,0.100000*%
%ADD11C,0.150000*%
%ADD12C,0.120000*%
G04 APERTURE END LIST*
D10*
X142201190Y-79577380D02*
X142272619Y-79601190D01*
X142391666Y-79601190D01*
X142439285Y-79577380D01*
X142463095Y-79553571D01*
X142486904Y-79505952D01*
X142486904Y-79458333D01*
X142463095Y-79410714D01*
X142439285Y-79386904D01*
X142391666Y-79363095D01*
X142296428Y-79339285D01*
X142248809Y-79315476D01*
X142225000Y-79291666D01*
X142201190Y-79244047D01*
X142201190Y-79196428D01*
X142225000Y-79148809D01*
X142248809Y-79125000D01*
X142296428Y-79101190D01*
X142415476Y-79101190D01*
X142486904Y-79125000D01*
X142701190Y-79601190D02*
X142701190Y-79101190D01*
X142915476Y-79601190D02*
X142915476Y-79339285D01*
X142891666Y-79291666D01*
X142844047Y-79267857D01*
X142772619Y-79267857D01*
X142725000Y-79291666D01*
X142701190Y-79315476D01*
X143225000Y-79601190D02*
X143177380Y-79577380D01*
X143153571Y-79553571D01*
X143129761Y-79505952D01*
X143129761Y-79363095D01*
X143153571Y-79315476D01*
X143177380Y-79291666D01*
X143225000Y-79267857D01*
X143296428Y-79267857D01*
X143344047Y-79291666D01*
X143367857Y-79315476D01*
X143391666Y-79363095D01*
X143391666Y-79505952D01*
X143367857Y-79553571D01*
X143344047Y-79577380D01*
X143296428Y-79601190D01*
X143225000Y-79601190D01*
X143605952Y-79601190D02*
X143605952Y-79267857D01*
X143605952Y-79363095D02*
X143629761Y-79315476D01*
X143653571Y-79291666D01*
X143701190Y-79267857D01*
X143748809Y-79267857D01*
X143844047Y-79267857D02*
X144034523Y-79267857D01*
X143915476Y-79101190D02*
X143915476Y-79529761D01*
X143939285Y-79577380D01*
X143986904Y-79601190D01*
X144034523Y-79601190D01*
X144510714Y-79267857D02*
X144701190Y-79267857D01*
X144582142Y-79101190D02*
X144582142Y-79529761D01*
X144605952Y-79577380D01*
X144653571Y-79601190D01*
X144701190Y-79601190D01*
X144939285Y-79601190D02*
X144891666Y-79577380D01*
X144867857Y-79553571D01*
X144844047Y-79505952D01*
X144844047Y-79363095D01*
X144867857Y-79315476D01*
X144891666Y-79291666D01*
X144939285Y-79267857D01*
X145010714Y-79267857D01*
X145058333Y-79291666D01*
X145082142Y-79315476D01*
X145105952Y-79363095D01*
X145105952Y-79505952D01*
X145082142Y-79553571D01*
X145058333Y-79577380D01*
X145010714Y-79601190D01*
X144939285Y-79601190D01*
X145891666Y-79577380D02*
X145844047Y-79601190D01*
X145748809Y-79601190D01*
X145701190Y-79577380D01*
X145677380Y-79529761D01*
X145677380Y-79339285D01*
X145701190Y-79291666D01*
X145748809Y-79267857D01*
X145844047Y-79267857D01*
X145891666Y-79291666D01*
X145915476Y-79339285D01*
X145915476Y-79386904D01*
X145677380Y-79434523D01*
X146129761Y-79267857D02*
X146129761Y-79601190D01*
X146129761Y-79315476D02*
X146153571Y-79291666D01*
X146201190Y-79267857D01*
X146272619Y-79267857D01*
X146320238Y-79291666D01*
X146344047Y-79339285D01*
X146344047Y-79601190D01*
X146510714Y-79267857D02*
X146701190Y-79267857D01*
X146582142Y-79101190D02*
X146582142Y-79529761D01*
X146605952Y-79577380D01*
X146653571Y-79601190D01*
X146701190Y-79601190D01*
X147058333Y-79577380D02*
X147010714Y-79601190D01*
X146915476Y-79601190D01*
X146867857Y-79577380D01*
X146844047Y-79529761D01*
X146844047Y-79339285D01*
X146867857Y-79291666D01*
X146915476Y-79267857D01*
X147010714Y-79267857D01*
X147058333Y-79291666D01*
X147082142Y-79339285D01*
X147082142Y-79386904D01*
X146844047Y-79434523D01*
X147296428Y-79601190D02*
X147296428Y-79267857D01*
X147296428Y-79363095D02*
X147320238Y-79315476D01*
X147344047Y-79291666D01*
X147391666Y-79267857D01*
X147439285Y-79267857D01*
X148153571Y-79339285D02*
X148225000Y-79363095D01*
X148248809Y-79386904D01*
X148272619Y-79434523D01*
X148272619Y-79505952D01*
X148248809Y-79553571D01*
X148225000Y-79577380D01*
X148177380Y-79601190D01*
X147986904Y-79601190D01*
X147986904Y-79101190D01*
X148153571Y-79101190D01*
X148201190Y-79125000D01*
X148225000Y-79148809D01*
X148248809Y-79196428D01*
X148248809Y-79244047D01*
X148225000Y-79291666D01*
X148201190Y-79315476D01*
X148153571Y-79339285D01*
X147986904Y-79339285D01*
X148558333Y-79601190D02*
X148510714Y-79577380D01*
X148486904Y-79553571D01*
X148463095Y-79505952D01*
X148463095Y-79363095D01*
X148486904Y-79315476D01*
X148510714Y-79291666D01*
X148558333Y-79267857D01*
X148629761Y-79267857D01*
X148677380Y-79291666D01*
X148701190Y-79315476D01*
X148725000Y-79363095D01*
X148725000Y-79505952D01*
X148701190Y-79553571D01*
X148677380Y-79577380D01*
X148629761Y-79601190D01*
X148558333Y-79601190D01*
X149010714Y-79601190D02*
X148963095Y-79577380D01*
X148939285Y-79553571D01*
X148915476Y-79505952D01*
X148915476Y-79363095D01*
X148939285Y-79315476D01*
X148963095Y-79291666D01*
X149010714Y-79267857D01*
X149082142Y-79267857D01*
X149129761Y-79291666D01*
X149153571Y-79315476D01*
X149177380Y-79363095D01*
X149177380Y-79505952D01*
X149153571Y-79553571D01*
X149129761Y-79577380D01*
X149082142Y-79601190D01*
X149010714Y-79601190D01*
X149320238Y-79267857D02*
X149510714Y-79267857D01*
X149391666Y-79101190D02*
X149391666Y-79529761D01*
X149415476Y-79577380D01*
X149463095Y-79601190D01*
X149510714Y-79601190D01*
X150058333Y-79601190D02*
X150058333Y-79101190D01*
X150225000Y-79458333D01*
X150391666Y-79101190D01*
X150391666Y-79601190D01*
X150701190Y-79601190D02*
X150653571Y-79577380D01*
X150629761Y-79553571D01*
X150605952Y-79505952D01*
X150605952Y-79363095D01*
X150629761Y-79315476D01*
X150653571Y-79291666D01*
X150701190Y-79267857D01*
X150772619Y-79267857D01*
X150820238Y-79291666D01*
X150844047Y-79315476D01*
X150867857Y-79363095D01*
X150867857Y-79505952D01*
X150844047Y-79553571D01*
X150820238Y-79577380D01*
X150772619Y-79601190D01*
X150701190Y-79601190D01*
X151296428Y-79601190D02*
X151296428Y-79101190D01*
X151296428Y-79577380D02*
X151248809Y-79601190D01*
X151153571Y-79601190D01*
X151105952Y-79577380D01*
X151082142Y-79553571D01*
X151058333Y-79505952D01*
X151058333Y-79363095D01*
X151082142Y-79315476D01*
X151105952Y-79291666D01*
X151153571Y-79267857D01*
X151248809Y-79267857D01*
X151296428Y-79291666D01*
X151725000Y-79577380D02*
X151677380Y-79601190D01*
X151582142Y-79601190D01*
X151534523Y-79577380D01*
X151510714Y-79529761D01*
X151510714Y-79339285D01*
X151534523Y-79291666D01*
X151582142Y-79267857D01*
X151677380Y-79267857D01*
X151725000Y-79291666D01*
X151748809Y-79339285D01*
X151748809Y-79386904D01*
X151510714Y-79434523D01*
X180464285Y-97951190D02*
X180297619Y-97713095D01*
X180178571Y-97951190D02*
X180178571Y-97451190D01*
X180369047Y-97451190D01*
X180416666Y-97475000D01*
X180440476Y-97498809D01*
X180464285Y-97546428D01*
X180464285Y-97617857D01*
X180440476Y-97665476D01*
X180416666Y-97689285D01*
X180369047Y-97713095D01*
X180178571Y-97713095D01*
X180869047Y-97927380D02*
X180821428Y-97951190D01*
X180726190Y-97951190D01*
X180678571Y-97927380D01*
X180654761Y-97879761D01*
X180654761Y-97689285D01*
X180678571Y-97641666D01*
X180726190Y-97617857D01*
X180821428Y-97617857D01*
X180869047Y-97641666D01*
X180892857Y-97689285D01*
X180892857Y-97736904D01*
X180654761Y-97784523D01*
X181059523Y-97617857D02*
X181178571Y-97951190D01*
X181297619Y-97617857D01*
X181964285Y-97451190D02*
X182011904Y-97451190D01*
X182059523Y-97475000D01*
X182083333Y-97498809D01*
X182107142Y-97546428D01*
X182130952Y-97641666D01*
X182130952Y-97760714D01*
X182107142Y-97855952D01*
X182083333Y-97903571D01*
X182059523Y-97927380D01*
X182011904Y-97951190D01*
X181964285Y-97951190D01*
X181916666Y-97927380D01*
X181892857Y-97903571D01*
X181869047Y-97855952D01*
X181845238Y-97760714D01*
X181845238Y-97641666D01*
X181869047Y-97546428D01*
X181892857Y-97498809D01*
X181916666Y-97475000D01*
X181964285Y-97451190D01*
X182345238Y-97903571D02*
X182369047Y-97927380D01*
X182345238Y-97951190D01*
X182321428Y-97927380D01*
X182345238Y-97903571D01*
X182345238Y-97951190D01*
X182845238Y-97951190D02*
X182559523Y-97951190D01*
X182702380Y-97951190D02*
X182702380Y-97451190D01*
X182654761Y-97522619D01*
X182607142Y-97570238D01*
X182559523Y-97594047D01*
X151019047Y-61950000D02*
X150971428Y-61926190D01*
X150900000Y-61926190D01*
X150828571Y-61950000D01*
X150780952Y-61997619D01*
X150757142Y-62045238D01*
X150733333Y-62140476D01*
X150733333Y-62211904D01*
X150757142Y-62307142D01*
X150780952Y-62354761D01*
X150828571Y-62402380D01*
X150900000Y-62426190D01*
X150947619Y-62426190D01*
X151019047Y-62402380D01*
X151042857Y-62378571D01*
X151042857Y-62211904D01*
X150947619Y-62211904D01*
X151257142Y-62426190D02*
X151257142Y-61926190D01*
X151542857Y-62426190D01*
X151542857Y-61926190D01*
X151780952Y-62426190D02*
X151780952Y-61926190D01*
X151900000Y-61926190D01*
X151971428Y-61950000D01*
X152019047Y-61997619D01*
X152042857Y-62045238D01*
X152066666Y-62140476D01*
X152066666Y-62211904D01*
X152042857Y-62307142D01*
X152019047Y-62354761D01*
X151971428Y-62402380D01*
X151900000Y-62426190D01*
X151780952Y-62426190D01*
X146871428Y-66102380D02*
X146942857Y-66126190D01*
X147061904Y-66126190D01*
X147109523Y-66102380D01*
X147133333Y-66078571D01*
X147157142Y-66030952D01*
X147157142Y-65983333D01*
X147133333Y-65935714D01*
X147109523Y-65911904D01*
X147061904Y-65888095D01*
X146966666Y-65864285D01*
X146919047Y-65840476D01*
X146895238Y-65816666D01*
X146871428Y-65769047D01*
X146871428Y-65721428D01*
X146895238Y-65673809D01*
X146919047Y-65650000D01*
X146966666Y-65626190D01*
X147085714Y-65626190D01*
X147157142Y-65650000D01*
X147323809Y-65626190D02*
X147442857Y-66126190D01*
X147538095Y-65769047D01*
X147633333Y-66126190D01*
X147752380Y-65626190D01*
X148228571Y-66078571D02*
X148204761Y-66102380D01*
X148133333Y-66126190D01*
X148085714Y-66126190D01*
X148014285Y-66102380D01*
X147966666Y-66054761D01*
X147942857Y-66007142D01*
X147919047Y-65911904D01*
X147919047Y-65840476D01*
X147942857Y-65745238D01*
X147966666Y-65697619D01*
X148014285Y-65650000D01*
X148085714Y-65626190D01*
X148133333Y-65626190D01*
X148204761Y-65650000D01*
X148228571Y-65673809D01*
X148442857Y-66126190D02*
X148442857Y-65626190D01*
X148728571Y-66126190D02*
X148514285Y-65840476D01*
X148728571Y-65626190D02*
X148442857Y-65911904D01*
X140080952Y-65626190D02*
X140390476Y-65626190D01*
X140223809Y-65816666D01*
X140295238Y-65816666D01*
X140342857Y-65840476D01*
X140366666Y-65864285D01*
X140390476Y-65911904D01*
X140390476Y-66030952D01*
X140366666Y-66078571D01*
X140342857Y-66102380D01*
X140295238Y-66126190D01*
X140152380Y-66126190D01*
X140104761Y-66102380D01*
X140080952Y-66078571D01*
X140533333Y-65626190D02*
X140700000Y-66126190D01*
X140866666Y-65626190D01*
X140985714Y-65626190D02*
X141295238Y-65626190D01*
X141128571Y-65816666D01*
X141200000Y-65816666D01*
X141247619Y-65840476D01*
X141271428Y-65864285D01*
X141295238Y-65911904D01*
X141295238Y-66030952D01*
X141271428Y-66078571D01*
X141247619Y-66102380D01*
X141200000Y-66126190D01*
X141057142Y-66126190D01*
X141009523Y-66102380D01*
X140985714Y-66078571D01*
D11*
X146144285Y-103264285D02*
X146144285Y-102514285D01*
X146465714Y-103264285D02*
X146465714Y-102871428D01*
X146430000Y-102800000D01*
X146358571Y-102764285D01*
X146251428Y-102764285D01*
X146180000Y-102800000D01*
X146144285Y-102835714D01*
X146715714Y-102764285D02*
X147001428Y-102764285D01*
X146822857Y-102514285D02*
X146822857Y-103157142D01*
X146858571Y-103228571D01*
X146930000Y-103264285D01*
X147001428Y-103264285D01*
X147144285Y-102764285D02*
X147430000Y-102764285D01*
X147251428Y-102514285D02*
X147251428Y-103157142D01*
X147287142Y-103228571D01*
X147358571Y-103264285D01*
X147430000Y-103264285D01*
X147680000Y-102764285D02*
X147680000Y-103514285D01*
X147680000Y-102800000D02*
X147751428Y-102764285D01*
X147894285Y-102764285D01*
X147965714Y-102800000D01*
X148001428Y-102835714D01*
X148037142Y-102907142D01*
X148037142Y-103121428D01*
X148001428Y-103192857D01*
X147965714Y-103228571D01*
X147894285Y-103264285D01*
X147751428Y-103264285D01*
X147680000Y-103228571D01*
X148322857Y-103228571D02*
X148394285Y-103264285D01*
X148537142Y-103264285D01*
X148608571Y-103228571D01*
X148644285Y-103157142D01*
X148644285Y-103121428D01*
X148608571Y-103050000D01*
X148537142Y-103014285D01*
X148430000Y-103014285D01*
X148358571Y-102978571D01*
X148322857Y-102907142D01*
X148322857Y-102871428D01*
X148358571Y-102800000D01*
X148430000Y-102764285D01*
X148537142Y-102764285D01*
X148608571Y-102800000D01*
X148965714Y-103192857D02*
X149001428Y-103228571D01*
X148965714Y-103264285D01*
X148930000Y-103228571D01*
X148965714Y-103192857D01*
X148965714Y-103264285D01*
X148965714Y-102800000D02*
X149001428Y-102835714D01*
X148965714Y-102871428D01*
X148930000Y-102835714D01*
X148965714Y-102800000D01*
X148965714Y-102871428D01*
X149858571Y-102478571D02*
X149215714Y-103442857D01*
X150644285Y-102478571D02*
X150001428Y-103442857D01*
X151215714Y-102764285D02*
X151215714Y-103371428D01*
X151180000Y-103442857D01*
X151144285Y-103478571D01*
X151072857Y-103514285D01*
X150965714Y-103514285D01*
X150894285Y-103478571D01*
X151215714Y-103228571D02*
X151144285Y-103264285D01*
X151001428Y-103264285D01*
X150930000Y-103228571D01*
X150894285Y-103192857D01*
X150858571Y-103121428D01*
X150858571Y-102907142D01*
X150894285Y-102835714D01*
X150930000Y-102800000D01*
X151001428Y-102764285D01*
X151144285Y-102764285D01*
X151215714Y-102800000D01*
X151572857Y-103264285D02*
X151572857Y-102764285D01*
X151572857Y-102514285D02*
X151537142Y-102550000D01*
X151572857Y-102585714D01*
X151608571Y-102550000D01*
X151572857Y-102514285D01*
X151572857Y-102585714D01*
X151822857Y-102764285D02*
X152108571Y-102764285D01*
X151930000Y-102514285D02*
X151930000Y-103157142D01*
X151965714Y-103228571D01*
X152037142Y-103264285D01*
X152108571Y-103264285D01*
X152358571Y-103264285D02*
X152358571Y-102514285D01*
X152680000Y-103264285D02*
X152680000Y-102871428D01*
X152644285Y-102800000D01*
X152572857Y-102764285D01*
X152465714Y-102764285D01*
X152394285Y-102800000D01*
X152358571Y-102835714D01*
X153358571Y-102764285D02*
X153358571Y-103264285D01*
X153037142Y-102764285D02*
X153037142Y-103157142D01*
X153072857Y-103228571D01*
X153144285Y-103264285D01*
X153251428Y-103264285D01*
X153322857Y-103228571D01*
X153358571Y-103192857D01*
X153715714Y-103264285D02*
X153715714Y-102514285D01*
X153715714Y-102800000D02*
X153787142Y-102764285D01*
X153930000Y-102764285D01*
X154001428Y-102800000D01*
X154037142Y-102835714D01*
X154072857Y-102907142D01*
X154072857Y-103121428D01*
X154037142Y-103192857D01*
X154001428Y-103228571D01*
X153930000Y-103264285D01*
X153787142Y-103264285D01*
X153715714Y-103228571D01*
X154394285Y-103192857D02*
X154430000Y-103228571D01*
X154394285Y-103264285D01*
X154358571Y-103228571D01*
X154394285Y-103192857D01*
X154394285Y-103264285D01*
X155072857Y-103228571D02*
X155001428Y-103264285D01*
X154858571Y-103264285D01*
X154787142Y-103228571D01*
X154751428Y-103192857D01*
X154715714Y-103121428D01*
X154715714Y-102907142D01*
X154751428Y-102835714D01*
X154787142Y-102800000D01*
X154858571Y-102764285D01*
X155001428Y-102764285D01*
X155072857Y-102800000D01*
X155501428Y-103264285D02*
X155430000Y-103228571D01*
X155394285Y-103192857D01*
X155358571Y-103121428D01*
X155358571Y-102907142D01*
X155394285Y-102835714D01*
X155430000Y-102800000D01*
X155501428Y-102764285D01*
X155608571Y-102764285D01*
X155680000Y-102800000D01*
X155715714Y-102835714D01*
X155751428Y-102907142D01*
X155751428Y-103121428D01*
X155715714Y-103192857D01*
X155680000Y-103228571D01*
X155608571Y-103264285D01*
X155501428Y-103264285D01*
X156072857Y-103264285D02*
X156072857Y-102764285D01*
X156072857Y-102835714D02*
X156108571Y-102800000D01*
X156180000Y-102764285D01*
X156287142Y-102764285D01*
X156358571Y-102800000D01*
X156394285Y-102871428D01*
X156394285Y-103264285D01*
X156394285Y-102871428D02*
X156430000Y-102800000D01*
X156501428Y-102764285D01*
X156608571Y-102764285D01*
X156680000Y-102800000D01*
X156715714Y-102871428D01*
X156715714Y-103264285D01*
X157608571Y-102478571D02*
X156965714Y-103442857D01*
X158180000Y-103264285D02*
X158180000Y-102871428D01*
X158144285Y-102800000D01*
X158072857Y-102764285D01*
X157930000Y-102764285D01*
X157858571Y-102800000D01*
X158180000Y-103228571D02*
X158108571Y-103264285D01*
X157930000Y-103264285D01*
X157858571Y-103228571D01*
X157822857Y-103157142D01*
X157822857Y-103085714D01*
X157858571Y-103014285D01*
X157930000Y-102978571D01*
X158108571Y-102978571D01*
X158180000Y-102942857D01*
X158858571Y-103264285D02*
X158858571Y-102514285D01*
X158858571Y-103228571D02*
X158787142Y-103264285D01*
X158644285Y-103264285D01*
X158572857Y-103228571D01*
X158537142Y-103192857D01*
X158501428Y-103121428D01*
X158501428Y-102907142D01*
X158537142Y-102835714D01*
X158572857Y-102800000D01*
X158644285Y-102764285D01*
X158787142Y-102764285D01*
X158858571Y-102800000D01*
X159215714Y-103264285D02*
X159215714Y-102764285D01*
X159215714Y-102907142D02*
X159251428Y-102835714D01*
X159287142Y-102800000D01*
X159358571Y-102764285D01*
X159430000Y-102764285D01*
X159680000Y-103264285D02*
X159680000Y-102764285D01*
X159680000Y-102514285D02*
X159644285Y-102550000D01*
X159680000Y-102585714D01*
X159715714Y-102550000D01*
X159680000Y-102514285D01*
X159680000Y-102585714D01*
X160358571Y-103264285D02*
X160358571Y-102871428D01*
X160322857Y-102800000D01*
X160251428Y-102764285D01*
X160108571Y-102764285D01*
X160037142Y-102800000D01*
X160358571Y-103228571D02*
X160287142Y-103264285D01*
X160108571Y-103264285D01*
X160037142Y-103228571D01*
X160001428Y-103157142D01*
X160001428Y-103085714D01*
X160037142Y-103014285D01*
X160108571Y-102978571D01*
X160287142Y-102978571D01*
X160358571Y-102942857D01*
X160715714Y-102764285D02*
X160715714Y-103264285D01*
X160715714Y-102835714D02*
X160751428Y-102800000D01*
X160822857Y-102764285D01*
X160930000Y-102764285D01*
X161001428Y-102800000D01*
X161037142Y-102871428D01*
X161037142Y-103264285D01*
X161715714Y-102764285D02*
X161715714Y-103264285D01*
X161394285Y-102764285D02*
X161394285Y-103157142D01*
X161430000Y-103228571D01*
X161501428Y-103264285D01*
X161608571Y-103264285D01*
X161680000Y-103228571D01*
X161715714Y-103192857D01*
X162037142Y-103228571D02*
X162108571Y-103264285D01*
X162251428Y-103264285D01*
X162322857Y-103228571D01*
X162358571Y-103157142D01*
X162358571Y-103121428D01*
X162322857Y-103050000D01*
X162251428Y-103014285D01*
X162144285Y-103014285D01*
X162072857Y-102978571D01*
X162037142Y-102907142D01*
X162037142Y-102871428D01*
X162072857Y-102800000D01*
X162144285Y-102764285D01*
X162251428Y-102764285D01*
X162322857Y-102800000D01*
X162965714Y-103228571D02*
X162894285Y-103264285D01*
X162751428Y-103264285D01*
X162680000Y-103228571D01*
X162644285Y-103157142D01*
X162644285Y-102871428D01*
X162680000Y-102800000D01*
X162751428Y-102764285D01*
X162894285Y-102764285D01*
X162965714Y-102800000D01*
X163001428Y-102871428D01*
X163001428Y-102942857D01*
X162644285Y-103014285D01*
X163322857Y-103264285D02*
X163322857Y-102514285D01*
X163322857Y-102800000D02*
X163394285Y-102764285D01*
X163537142Y-102764285D01*
X163608571Y-102800000D01*
X163644285Y-102835714D01*
X163680000Y-102907142D01*
X163680000Y-103121428D01*
X163644285Y-103192857D01*
X163608571Y-103228571D01*
X163537142Y-103264285D01*
X163394285Y-103264285D01*
X163322857Y-103228571D01*
X164537142Y-102478571D02*
X163894285Y-103442857D01*
X164787142Y-103264285D02*
X164787142Y-102764285D01*
X164787142Y-102907142D02*
X164822857Y-102835714D01*
X164858571Y-102800000D01*
X164930000Y-102764285D01*
X165001428Y-102764285D01*
X165251428Y-102764285D02*
X165251428Y-103514285D01*
X165251428Y-102800000D02*
X165322857Y-102764285D01*
X165465714Y-102764285D01*
X165537142Y-102800000D01*
X165572857Y-102835714D01*
X165608571Y-102907142D01*
X165608571Y-103121428D01*
X165572857Y-103192857D01*
X165537142Y-103228571D01*
X165465714Y-103264285D01*
X165322857Y-103264285D01*
X165251428Y-103228571D01*
X165894285Y-102585714D02*
X165930000Y-102550000D01*
X166001428Y-102514285D01*
X166180000Y-102514285D01*
X166251428Y-102550000D01*
X166287142Y-102585714D01*
X166322857Y-102657142D01*
X166322857Y-102728571D01*
X166287142Y-102835714D01*
X165858571Y-103264285D01*
X166322857Y-103264285D01*
X166787142Y-102514285D02*
X166858571Y-102514285D01*
X166930000Y-102550000D01*
X166965714Y-102585714D01*
X167001428Y-102657142D01*
X167037142Y-102800000D01*
X167037142Y-102978571D01*
X167001428Y-103121428D01*
X166965714Y-103192857D01*
X166930000Y-103228571D01*
X166858571Y-103264285D01*
X166787142Y-103264285D01*
X166715714Y-103228571D01*
X166680000Y-103192857D01*
X166644285Y-103121428D01*
X166608571Y-102978571D01*
X166608571Y-102800000D01*
X166644285Y-102657142D01*
X166680000Y-102585714D01*
X166715714Y-102550000D01*
X166787142Y-102514285D01*
X167680000Y-102764285D02*
X167680000Y-103264285D01*
X167501428Y-102478571D02*
X167322857Y-103014285D01*
X167787142Y-103014285D01*
X168215714Y-102514285D02*
X168287142Y-102514285D01*
X168358571Y-102550000D01*
X168394285Y-102585714D01*
X168430000Y-102657142D01*
X168465714Y-102800000D01*
X168465714Y-102978571D01*
X168430000Y-103121428D01*
X168394285Y-103192857D01*
X168358571Y-103228571D01*
X168287142Y-103264285D01*
X168215714Y-103264285D01*
X168144285Y-103228571D01*
X168108571Y-103192857D01*
X168072857Y-103121428D01*
X168037142Y-102978571D01*
X168037142Y-102800000D01*
X168072857Y-102657142D01*
X168108571Y-102585714D01*
X168144285Y-102550000D01*
X168215714Y-102514285D01*
X168787142Y-102978571D02*
X169358571Y-102978571D01*
X169715714Y-103264285D02*
X169715714Y-102514285D01*
X169787142Y-102978571D02*
X170001428Y-103264285D01*
X170001428Y-102764285D02*
X169715714Y-103050000D01*
X170608571Y-103228571D02*
X170537142Y-103264285D01*
X170394285Y-103264285D01*
X170322857Y-103228571D01*
X170287142Y-103157142D01*
X170287142Y-102871428D01*
X170322857Y-102800000D01*
X170394285Y-102764285D01*
X170537142Y-102764285D01*
X170608571Y-102800000D01*
X170644285Y-102871428D01*
X170644285Y-102942857D01*
X170287142Y-103014285D01*
X170894285Y-102764285D02*
X171072857Y-103264285D01*
X171251428Y-102764285D02*
X171072857Y-103264285D01*
X171001428Y-103442857D01*
X170965714Y-103478571D01*
X170894285Y-103514285D01*
X171537142Y-102764285D02*
X171537142Y-103514285D01*
X171537142Y-102800000D02*
X171608571Y-102764285D01*
X171751428Y-102764285D01*
X171822857Y-102800000D01*
X171858571Y-102835714D01*
X171894285Y-102907142D01*
X171894285Y-103121428D01*
X171858571Y-103192857D01*
X171822857Y-103228571D01*
X171751428Y-103264285D01*
X171608571Y-103264285D01*
X171537142Y-103228571D01*
X172537142Y-103264285D02*
X172537142Y-102871428D01*
X172501428Y-102800000D01*
X172430000Y-102764285D01*
X172287142Y-102764285D01*
X172215714Y-102800000D01*
X172537142Y-103228571D02*
X172465714Y-103264285D01*
X172287142Y-103264285D01*
X172215714Y-103228571D01*
X172180000Y-103157142D01*
X172180000Y-103085714D01*
X172215714Y-103014285D01*
X172287142Y-102978571D01*
X172465714Y-102978571D01*
X172537142Y-102942857D01*
X173215714Y-103264285D02*
X173215714Y-102514285D01*
X173215714Y-103228571D02*
X173144285Y-103264285D01*
X173001428Y-103264285D01*
X172930000Y-103228571D01*
X172894285Y-103192857D01*
X172858571Y-103121428D01*
X172858571Y-102907142D01*
X172894285Y-102835714D01*
X172930000Y-102800000D01*
X173001428Y-102764285D01*
X173144285Y-102764285D01*
X173215714Y-102800000D01*
X141280952Y-60192619D02*
X140914285Y-59668809D01*
X140652380Y-60192619D02*
X140652380Y-59092619D01*
X141071428Y-59092619D01*
X141176190Y-59145000D01*
X141228571Y-59197380D01*
X141280952Y-59302142D01*
X141280952Y-59459285D01*
X141228571Y-59564047D01*
X141176190Y-59616428D01*
X141071428Y-59668809D01*
X140652380Y-59668809D01*
X141752380Y-60192619D02*
X141752380Y-59092619D01*
X142171428Y-59092619D01*
X142276190Y-59145000D01*
X142328571Y-59197380D01*
X142380952Y-59302142D01*
X142380952Y-59459285D01*
X142328571Y-59564047D01*
X142276190Y-59616428D01*
X142171428Y-59668809D01*
X141752380Y-59668809D01*
X142800000Y-59197380D02*
X142852380Y-59145000D01*
X142957142Y-59092619D01*
X143219047Y-59092619D01*
X143323809Y-59145000D01*
X143376190Y-59197380D01*
X143428571Y-59302142D01*
X143428571Y-59406904D01*
X143376190Y-59564047D01*
X142747619Y-60192619D01*
X143428571Y-60192619D01*
X144109523Y-59092619D02*
X144214285Y-59092619D01*
X144319047Y-59145000D01*
X144371428Y-59197380D01*
X144423809Y-59302142D01*
X144476190Y-59511666D01*
X144476190Y-59773571D01*
X144423809Y-59983095D01*
X144371428Y-60087857D01*
X144319047Y-60140238D01*
X144214285Y-60192619D01*
X144109523Y-60192619D01*
X144004761Y-60140238D01*
X143952380Y-60087857D01*
X143900000Y-59983095D01*
X143847619Y-59773571D01*
X143847619Y-59511666D01*
X143900000Y-59302142D01*
X143952380Y-59197380D01*
X144004761Y-59145000D01*
X144109523Y-59092619D01*
X145419047Y-59459285D02*
X145419047Y-60192619D01*
X145157142Y-59040238D02*
X144895238Y-59825952D01*
X145576190Y-59825952D01*
X146204761Y-59092619D02*
X146309523Y-59092619D01*
X146414285Y-59145000D01*
X146466666Y-59197380D01*
X146519047Y-59302142D01*
X146571428Y-59511666D01*
X146571428Y-59773571D01*
X146519047Y-59983095D01*
X146466666Y-60087857D01*
X146414285Y-60140238D01*
X146309523Y-60192619D01*
X146204761Y-60192619D01*
X146100000Y-60140238D01*
X146047619Y-60087857D01*
X145995238Y-59983095D01*
X145942857Y-59773571D01*
X145942857Y-59511666D01*
X145995238Y-59302142D01*
X146047619Y-59197380D01*
X146100000Y-59145000D01*
X146204761Y-59092619D01*
X147042857Y-59773571D02*
X147880952Y-59773571D01*
X148404761Y-60192619D02*
X148404761Y-59092619D01*
X149033333Y-60192619D02*
X148561904Y-59564047D01*
X149033333Y-59092619D02*
X148404761Y-59721190D01*
X149923809Y-60140238D02*
X149819047Y-60192619D01*
X149609523Y-60192619D01*
X149504761Y-60140238D01*
X149452380Y-60035476D01*
X149452380Y-59616428D01*
X149504761Y-59511666D01*
X149609523Y-59459285D01*
X149819047Y-59459285D01*
X149923809Y-59511666D01*
X149976190Y-59616428D01*
X149976190Y-59721190D01*
X149452380Y-59825952D01*
X150342857Y-59459285D02*
X150604761Y-60192619D01*
X150866666Y-59459285D02*
X150604761Y-60192619D01*
X150500000Y-60454523D01*
X150447619Y-60506904D01*
X150342857Y-60559285D01*
X151285714Y-59459285D02*
X151285714Y-60559285D01*
X151285714Y-59511666D02*
X151390476Y-59459285D01*
X151600000Y-59459285D01*
X151704761Y-59511666D01*
X151757142Y-59564047D01*
X151809523Y-59668809D01*
X151809523Y-59983095D01*
X151757142Y-60087857D01*
X151704761Y-60140238D01*
X151600000Y-60192619D01*
X151390476Y-60192619D01*
X151285714Y-60140238D01*
X152752380Y-60192619D02*
X152752380Y-59616428D01*
X152700000Y-59511666D01*
X152595238Y-59459285D01*
X152385714Y-59459285D01*
X152280952Y-59511666D01*
X152752380Y-60140238D02*
X152647619Y-60192619D01*
X152385714Y-60192619D01*
X152280952Y-60140238D01*
X152228571Y-60035476D01*
X152228571Y-59930714D01*
X152280952Y-59825952D01*
X152385714Y-59773571D01*
X152647619Y-59773571D01*
X152752380Y-59721190D01*
X153747619Y-60192619D02*
X153747619Y-59092619D01*
X153747619Y-60140238D02*
X153642857Y-60192619D01*
X153433333Y-60192619D01*
X153328571Y-60140238D01*
X153276190Y-60087857D01*
X153223809Y-59983095D01*
X153223809Y-59668809D01*
X153276190Y-59564047D01*
X153328571Y-59511666D01*
X153433333Y-59459285D01*
X153642857Y-59459285D01*
X153747619Y-59511666D01*
D10*
X143521428Y-66102380D02*
X143592857Y-66126190D01*
X143711904Y-66126190D01*
X143759523Y-66102380D01*
X143783333Y-66078571D01*
X143807142Y-66030952D01*
X143807142Y-65983333D01*
X143783333Y-65935714D01*
X143759523Y-65911904D01*
X143711904Y-65888095D01*
X143616666Y-65864285D01*
X143569047Y-65840476D01*
X143545238Y-65816666D01*
X143521428Y-65769047D01*
X143521428Y-65721428D01*
X143545238Y-65673809D01*
X143569047Y-65650000D01*
X143616666Y-65626190D01*
X143735714Y-65626190D01*
X143807142Y-65650000D01*
X143973809Y-65626190D02*
X144092857Y-66126190D01*
X144188095Y-65769047D01*
X144283333Y-66126190D01*
X144402380Y-65626190D01*
X144592857Y-66126190D02*
X144592857Y-65626190D01*
X144711904Y-65626190D01*
X144783333Y-65650000D01*
X144830952Y-65697619D01*
X144854761Y-65745238D01*
X144878571Y-65840476D01*
X144878571Y-65911904D01*
X144854761Y-66007142D01*
X144830952Y-66054761D01*
X144783333Y-66102380D01*
X144711904Y-66126190D01*
X144592857Y-66126190D01*
%TO.C,C7*%
X164841666Y-79828571D02*
X164817857Y-79852380D01*
X164746428Y-79876190D01*
X164698809Y-79876190D01*
X164627380Y-79852380D01*
X164579761Y-79804761D01*
X164555952Y-79757142D01*
X164532142Y-79661904D01*
X164532142Y-79590476D01*
X164555952Y-79495238D01*
X164579761Y-79447619D01*
X164627380Y-79400000D01*
X164698809Y-79376190D01*
X164746428Y-79376190D01*
X164817857Y-79400000D01*
X164841666Y-79423809D01*
X165008333Y-79376190D02*
X165341666Y-79376190D01*
X165127380Y-79876190D01*
%TO.C,C13*%
X166678571Y-75378571D02*
X166654761Y-75402380D01*
X166583333Y-75426190D01*
X166535714Y-75426190D01*
X166464285Y-75402380D01*
X166416666Y-75354761D01*
X166392857Y-75307142D01*
X166369047Y-75211904D01*
X166369047Y-75140476D01*
X166392857Y-75045238D01*
X166416666Y-74997619D01*
X166464285Y-74950000D01*
X166535714Y-74926190D01*
X166583333Y-74926190D01*
X166654761Y-74950000D01*
X166678571Y-74973809D01*
X167154761Y-75426190D02*
X166869047Y-75426190D01*
X167011904Y-75426190D02*
X167011904Y-74926190D01*
X166964285Y-74997619D01*
X166916666Y-75045238D01*
X166869047Y-75069047D01*
X167321428Y-74926190D02*
X167630952Y-74926190D01*
X167464285Y-75116666D01*
X167535714Y-75116666D01*
X167583333Y-75140476D01*
X167607142Y-75164285D01*
X167630952Y-75211904D01*
X167630952Y-75330952D01*
X167607142Y-75378571D01*
X167583333Y-75402380D01*
X167535714Y-75426190D01*
X167392857Y-75426190D01*
X167345238Y-75402380D01*
X167321428Y-75378571D01*
%TO.C,C2*%
X168116666Y-59828571D02*
X168092857Y-59852380D01*
X168021428Y-59876190D01*
X167973809Y-59876190D01*
X167902380Y-59852380D01*
X167854761Y-59804761D01*
X167830952Y-59757142D01*
X167807142Y-59661904D01*
X167807142Y-59590476D01*
X167830952Y-59495238D01*
X167854761Y-59447619D01*
X167902380Y-59400000D01*
X167973809Y-59376190D01*
X168021428Y-59376190D01*
X168092857Y-59400000D01*
X168116666Y-59423809D01*
X168307142Y-59423809D02*
X168330952Y-59400000D01*
X168378571Y-59376190D01*
X168497619Y-59376190D01*
X168545238Y-59400000D01*
X168569047Y-59423809D01*
X168592857Y-59471428D01*
X168592857Y-59519047D01*
X168569047Y-59590476D01*
X168283333Y-59876190D01*
X168592857Y-59876190D01*
%TO.C,C9*%
X153766666Y-78478571D02*
X153742857Y-78502380D01*
X153671428Y-78526190D01*
X153623809Y-78526190D01*
X153552380Y-78502380D01*
X153504761Y-78454761D01*
X153480952Y-78407142D01*
X153457142Y-78311904D01*
X153457142Y-78240476D01*
X153480952Y-78145238D01*
X153504761Y-78097619D01*
X153552380Y-78050000D01*
X153623809Y-78026190D01*
X153671428Y-78026190D01*
X153742857Y-78050000D01*
X153766666Y-78073809D01*
X154004761Y-78526190D02*
X154100000Y-78526190D01*
X154147619Y-78502380D01*
X154171428Y-78478571D01*
X154219047Y-78407142D01*
X154242857Y-78311904D01*
X154242857Y-78121428D01*
X154219047Y-78073809D01*
X154195238Y-78050000D01*
X154147619Y-78026190D01*
X154052380Y-78026190D01*
X154004761Y-78050000D01*
X153980952Y-78073809D01*
X153957142Y-78121428D01*
X153957142Y-78240476D01*
X153980952Y-78288095D01*
X154004761Y-78311904D01*
X154052380Y-78335714D01*
X154147619Y-78335714D01*
X154195238Y-78311904D01*
X154219047Y-78288095D01*
X154242857Y-78240476D01*
%TO.C,C6*%
X166716666Y-77753571D02*
X166692857Y-77777380D01*
X166621428Y-77801190D01*
X166573809Y-77801190D01*
X166502380Y-77777380D01*
X166454761Y-77729761D01*
X166430952Y-77682142D01*
X166407142Y-77586904D01*
X166407142Y-77515476D01*
X166430952Y-77420238D01*
X166454761Y-77372619D01*
X166502380Y-77325000D01*
X166573809Y-77301190D01*
X166621428Y-77301190D01*
X166692857Y-77325000D01*
X166716666Y-77348809D01*
X167145238Y-77301190D02*
X167050000Y-77301190D01*
X167002380Y-77325000D01*
X166978571Y-77348809D01*
X166930952Y-77420238D01*
X166907142Y-77515476D01*
X166907142Y-77705952D01*
X166930952Y-77753571D01*
X166954761Y-77777380D01*
X167002380Y-77801190D01*
X167097619Y-77801190D01*
X167145238Y-77777380D01*
X167169047Y-77753571D01*
X167192857Y-77705952D01*
X167192857Y-77586904D01*
X167169047Y-77539285D01*
X167145238Y-77515476D01*
X167097619Y-77491666D01*
X167002380Y-77491666D01*
X166954761Y-77515476D01*
X166930952Y-77539285D01*
X166907142Y-77586904D01*
%TO.C,C8*%
X166716666Y-76578571D02*
X166692857Y-76602380D01*
X166621428Y-76626190D01*
X166573809Y-76626190D01*
X166502380Y-76602380D01*
X166454761Y-76554761D01*
X166430952Y-76507142D01*
X166407142Y-76411904D01*
X166407142Y-76340476D01*
X166430952Y-76245238D01*
X166454761Y-76197619D01*
X166502380Y-76150000D01*
X166573809Y-76126190D01*
X166621428Y-76126190D01*
X166692857Y-76150000D01*
X166716666Y-76173809D01*
X167002380Y-76340476D02*
X166954761Y-76316666D01*
X166930952Y-76292857D01*
X166907142Y-76245238D01*
X166907142Y-76221428D01*
X166930952Y-76173809D01*
X166954761Y-76150000D01*
X167002380Y-76126190D01*
X167097619Y-76126190D01*
X167145238Y-76150000D01*
X167169047Y-76173809D01*
X167192857Y-76221428D01*
X167192857Y-76245238D01*
X167169047Y-76292857D01*
X167145238Y-76316666D01*
X167097619Y-76340476D01*
X167002380Y-76340476D01*
X166954761Y-76364285D01*
X166930952Y-76388095D01*
X166907142Y-76435714D01*
X166907142Y-76530952D01*
X166930952Y-76578571D01*
X166954761Y-76602380D01*
X167002380Y-76626190D01*
X167097619Y-76626190D01*
X167145238Y-76602380D01*
X167169047Y-76578571D01*
X167192857Y-76530952D01*
X167192857Y-76435714D01*
X167169047Y-76388095D01*
X167145238Y-76364285D01*
X167097619Y-76340476D01*
D11*
%TO.C,Y1*%
X173523809Y-79351190D02*
X173523809Y-79827380D01*
X173190476Y-78827380D02*
X173523809Y-79351190D01*
X173857142Y-78827380D01*
X174714285Y-79827380D02*
X174142857Y-79827380D01*
X174428571Y-79827380D02*
X174428571Y-78827380D01*
X174333333Y-78970238D01*
X174238095Y-79065476D01*
X174142857Y-79113095D01*
D10*
%TO.C,R4*%
X160166666Y-70426190D02*
X160000000Y-70188095D01*
X159880952Y-70426190D02*
X159880952Y-69926190D01*
X160071428Y-69926190D01*
X160119047Y-69950000D01*
X160142857Y-69973809D01*
X160166666Y-70021428D01*
X160166666Y-70092857D01*
X160142857Y-70140476D01*
X160119047Y-70164285D01*
X160071428Y-70188095D01*
X159880952Y-70188095D01*
X160595238Y-70092857D02*
X160595238Y-70426190D01*
X160476190Y-69902380D02*
X160357142Y-70259523D01*
X160666666Y-70259523D01*
%TO.C,C4*%
X163766666Y-79803571D02*
X163742857Y-79827380D01*
X163671428Y-79851190D01*
X163623809Y-79851190D01*
X163552380Y-79827380D01*
X163504761Y-79779761D01*
X163480952Y-79732142D01*
X163457142Y-79636904D01*
X163457142Y-79565476D01*
X163480952Y-79470238D01*
X163504761Y-79422619D01*
X163552380Y-79375000D01*
X163623809Y-79351190D01*
X163671428Y-79351190D01*
X163742857Y-79375000D01*
X163766666Y-79398809D01*
X164195238Y-79517857D02*
X164195238Y-79851190D01*
X164076190Y-79327380D02*
X163957142Y-79684523D01*
X164266666Y-79684523D01*
D11*
%TO.C,SW2*%
X148366666Y-99529761D02*
X148509523Y-99577380D01*
X148747619Y-99577380D01*
X148842857Y-99529761D01*
X148890476Y-99482142D01*
X148938095Y-99386904D01*
X148938095Y-99291666D01*
X148890476Y-99196428D01*
X148842857Y-99148809D01*
X148747619Y-99101190D01*
X148557142Y-99053571D01*
X148461904Y-99005952D01*
X148414285Y-98958333D01*
X148366666Y-98863095D01*
X148366666Y-98767857D01*
X148414285Y-98672619D01*
X148461904Y-98625000D01*
X148557142Y-98577380D01*
X148795238Y-98577380D01*
X148938095Y-98625000D01*
X149271428Y-98577380D02*
X149509523Y-99577380D01*
X149700000Y-98863095D01*
X149890476Y-99577380D01*
X150128571Y-98577380D01*
X150461904Y-98672619D02*
X150509523Y-98625000D01*
X150604761Y-98577380D01*
X150842857Y-98577380D01*
X150938095Y-98625000D01*
X150985714Y-98672619D01*
X151033333Y-98767857D01*
X151033333Y-98863095D01*
X150985714Y-99005952D01*
X150414285Y-99577380D01*
X151033333Y-99577380D01*
%TO.C,U2*%
X152713095Y-72727380D02*
X152713095Y-73536904D01*
X152760714Y-73632142D01*
X152808333Y-73679761D01*
X152903571Y-73727380D01*
X153094047Y-73727380D01*
X153189285Y-73679761D01*
X153236904Y-73632142D01*
X153284523Y-73536904D01*
X153284523Y-72727380D01*
X153713095Y-72822619D02*
X153760714Y-72775000D01*
X153855952Y-72727380D01*
X154094047Y-72727380D01*
X154189285Y-72775000D01*
X154236904Y-72822619D01*
X154284523Y-72917857D01*
X154284523Y-73013095D01*
X154236904Y-73155952D01*
X153665476Y-73727380D01*
X154284523Y-73727380D01*
%TO.C,U3*%
X144788095Y-67602380D02*
X144788095Y-68411904D01*
X144835714Y-68507142D01*
X144883333Y-68554761D01*
X144978571Y-68602380D01*
X145169047Y-68602380D01*
X145264285Y-68554761D01*
X145311904Y-68507142D01*
X145359523Y-68411904D01*
X145359523Y-67602380D01*
X145740476Y-67602380D02*
X146359523Y-67602380D01*
X146026190Y-67983333D01*
X146169047Y-67983333D01*
X146264285Y-68030952D01*
X146311904Y-68078571D01*
X146359523Y-68173809D01*
X146359523Y-68411904D01*
X146311904Y-68507142D01*
X146264285Y-68554761D01*
X146169047Y-68602380D01*
X145883333Y-68602380D01*
X145788095Y-68554761D01*
X145740476Y-68507142D01*
D10*
%TO.C,C16*%
X167578571Y-83478571D02*
X167554761Y-83502380D01*
X167483333Y-83526190D01*
X167435714Y-83526190D01*
X167364285Y-83502380D01*
X167316666Y-83454761D01*
X167292857Y-83407142D01*
X167269047Y-83311904D01*
X167269047Y-83240476D01*
X167292857Y-83145238D01*
X167316666Y-83097619D01*
X167364285Y-83050000D01*
X167435714Y-83026190D01*
X167483333Y-83026190D01*
X167554761Y-83050000D01*
X167578571Y-83073809D01*
X168054761Y-83526190D02*
X167769047Y-83526190D01*
X167911904Y-83526190D02*
X167911904Y-83026190D01*
X167864285Y-83097619D01*
X167816666Y-83145238D01*
X167769047Y-83169047D01*
X168483333Y-83026190D02*
X168388095Y-83026190D01*
X168340476Y-83050000D01*
X168316666Y-83073809D01*
X168269047Y-83145238D01*
X168245238Y-83240476D01*
X168245238Y-83430952D01*
X168269047Y-83478571D01*
X168292857Y-83502380D01*
X168340476Y-83526190D01*
X168435714Y-83526190D01*
X168483333Y-83502380D01*
X168507142Y-83478571D01*
X168530952Y-83430952D01*
X168530952Y-83311904D01*
X168507142Y-83264285D01*
X168483333Y-83240476D01*
X168435714Y-83216666D01*
X168340476Y-83216666D01*
X168292857Y-83240476D01*
X168269047Y-83264285D01*
X168245238Y-83311904D01*
%TO.C,C1*%
X178116666Y-59828571D02*
X178092857Y-59852380D01*
X178021428Y-59876190D01*
X177973809Y-59876190D01*
X177902380Y-59852380D01*
X177854761Y-59804761D01*
X177830952Y-59757142D01*
X177807142Y-59661904D01*
X177807142Y-59590476D01*
X177830952Y-59495238D01*
X177854761Y-59447619D01*
X177902380Y-59400000D01*
X177973809Y-59376190D01*
X178021428Y-59376190D01*
X178092857Y-59400000D01*
X178116666Y-59423809D01*
X178592857Y-59876190D02*
X178307142Y-59876190D01*
X178450000Y-59876190D02*
X178450000Y-59376190D01*
X178402380Y-59447619D01*
X178354761Y-59495238D01*
X178307142Y-59519047D01*
%TO.C,C14*%
X157728571Y-72303571D02*
X157704761Y-72327380D01*
X157633333Y-72351190D01*
X157585714Y-72351190D01*
X157514285Y-72327380D01*
X157466666Y-72279761D01*
X157442857Y-72232142D01*
X157419047Y-72136904D01*
X157419047Y-72065476D01*
X157442857Y-71970238D01*
X157466666Y-71922619D01*
X157514285Y-71875000D01*
X157585714Y-71851190D01*
X157633333Y-71851190D01*
X157704761Y-71875000D01*
X157728571Y-71898809D01*
X158204761Y-72351190D02*
X157919047Y-72351190D01*
X158061904Y-72351190D02*
X158061904Y-71851190D01*
X158014285Y-71922619D01*
X157966666Y-71970238D01*
X157919047Y-71994047D01*
X158633333Y-72017857D02*
X158633333Y-72351190D01*
X158514285Y-71827380D02*
X158395238Y-72184523D01*
X158704761Y-72184523D01*
%TO.C,C12*%
X166678571Y-74203571D02*
X166654761Y-74227380D01*
X166583333Y-74251190D01*
X166535714Y-74251190D01*
X166464285Y-74227380D01*
X166416666Y-74179761D01*
X166392857Y-74132142D01*
X166369047Y-74036904D01*
X166369047Y-73965476D01*
X166392857Y-73870238D01*
X166416666Y-73822619D01*
X166464285Y-73775000D01*
X166535714Y-73751190D01*
X166583333Y-73751190D01*
X166654761Y-73775000D01*
X166678571Y-73798809D01*
X167154761Y-74251190D02*
X166869047Y-74251190D01*
X167011904Y-74251190D02*
X167011904Y-73751190D01*
X166964285Y-73822619D01*
X166916666Y-73870238D01*
X166869047Y-73894047D01*
X167345238Y-73798809D02*
X167369047Y-73775000D01*
X167416666Y-73751190D01*
X167535714Y-73751190D01*
X167583333Y-73775000D01*
X167607142Y-73798809D01*
X167630952Y-73846428D01*
X167630952Y-73894047D01*
X167607142Y-73965476D01*
X167321428Y-74251190D01*
X167630952Y-74251190D01*
%TO.C,R5*%
X151091666Y-78826190D02*
X150925000Y-78588095D01*
X150805952Y-78826190D02*
X150805952Y-78326190D01*
X150996428Y-78326190D01*
X151044047Y-78350000D01*
X151067857Y-78373809D01*
X151091666Y-78421428D01*
X151091666Y-78492857D01*
X151067857Y-78540476D01*
X151044047Y-78564285D01*
X150996428Y-78588095D01*
X150805952Y-78588095D01*
X151544047Y-78326190D02*
X151305952Y-78326190D01*
X151282142Y-78564285D01*
X151305952Y-78540476D01*
X151353571Y-78516666D01*
X151472619Y-78516666D01*
X151520238Y-78540476D01*
X151544047Y-78564285D01*
X151567857Y-78611904D01*
X151567857Y-78730952D01*
X151544047Y-78778571D01*
X151520238Y-78802380D01*
X151472619Y-78826190D01*
X151353571Y-78826190D01*
X151305952Y-78802380D01*
X151282142Y-78778571D01*
%TO.C,R6*%
X166516666Y-83526190D02*
X166350000Y-83288095D01*
X166230952Y-83526190D02*
X166230952Y-83026190D01*
X166421428Y-83026190D01*
X166469047Y-83050000D01*
X166492857Y-83073809D01*
X166516666Y-83121428D01*
X166516666Y-83192857D01*
X166492857Y-83240476D01*
X166469047Y-83264285D01*
X166421428Y-83288095D01*
X166230952Y-83288095D01*
X166945238Y-83026190D02*
X166850000Y-83026190D01*
X166802380Y-83050000D01*
X166778571Y-83073809D01*
X166730952Y-83145238D01*
X166707142Y-83240476D01*
X166707142Y-83430952D01*
X166730952Y-83478571D01*
X166754761Y-83502380D01*
X166802380Y-83526190D01*
X166897619Y-83526190D01*
X166945238Y-83502380D01*
X166969047Y-83478571D01*
X166992857Y-83430952D01*
X166992857Y-83311904D01*
X166969047Y-83264285D01*
X166945238Y-83240476D01*
X166897619Y-83216666D01*
X166802380Y-83216666D01*
X166754761Y-83240476D01*
X166730952Y-83264285D01*
X166707142Y-83311904D01*
%TO.C,C17*%
X174953571Y-81503571D02*
X174929761Y-81527380D01*
X174858333Y-81551190D01*
X174810714Y-81551190D01*
X174739285Y-81527380D01*
X174691666Y-81479761D01*
X174667857Y-81432142D01*
X174644047Y-81336904D01*
X174644047Y-81265476D01*
X174667857Y-81170238D01*
X174691666Y-81122619D01*
X174739285Y-81075000D01*
X174810714Y-81051190D01*
X174858333Y-81051190D01*
X174929761Y-81075000D01*
X174953571Y-81098809D01*
X175429761Y-81551190D02*
X175144047Y-81551190D01*
X175286904Y-81551190D02*
X175286904Y-81051190D01*
X175239285Y-81122619D01*
X175191666Y-81170238D01*
X175144047Y-81194047D01*
X175596428Y-81051190D02*
X175929761Y-81051190D01*
X175715476Y-81551190D01*
D11*
%TO.C,J1*%
X165266666Y-58002380D02*
X165266666Y-58716666D01*
X165219047Y-58859523D01*
X165123809Y-58954761D01*
X164980952Y-59002380D01*
X164885714Y-59002380D01*
X166266666Y-59002380D02*
X165695238Y-59002380D01*
X165980952Y-59002380D02*
X165980952Y-58002380D01*
X165885714Y-58145238D01*
X165790476Y-58240476D01*
X165695238Y-58288095D01*
D10*
%TO.C,R2*%
X153291666Y-65201190D02*
X153125000Y-64963095D01*
X153005952Y-65201190D02*
X153005952Y-64701190D01*
X153196428Y-64701190D01*
X153244047Y-64725000D01*
X153267857Y-64748809D01*
X153291666Y-64796428D01*
X153291666Y-64867857D01*
X153267857Y-64915476D01*
X153244047Y-64939285D01*
X153196428Y-64963095D01*
X153005952Y-64963095D01*
X153482142Y-64748809D02*
X153505952Y-64725000D01*
X153553571Y-64701190D01*
X153672619Y-64701190D01*
X153720238Y-64725000D01*
X153744047Y-64748809D01*
X153767857Y-64796428D01*
X153767857Y-64844047D01*
X153744047Y-64915476D01*
X153458333Y-65201190D01*
X153767857Y-65201190D01*
%TO.C,C5*%
X161316666Y-73478571D02*
X161292857Y-73502380D01*
X161221428Y-73526190D01*
X161173809Y-73526190D01*
X161102380Y-73502380D01*
X161054761Y-73454761D01*
X161030952Y-73407142D01*
X161007142Y-73311904D01*
X161007142Y-73240476D01*
X161030952Y-73145238D01*
X161054761Y-73097619D01*
X161102380Y-73050000D01*
X161173809Y-73026190D01*
X161221428Y-73026190D01*
X161292857Y-73050000D01*
X161316666Y-73073809D01*
X161769047Y-73026190D02*
X161530952Y-73026190D01*
X161507142Y-73264285D01*
X161530952Y-73240476D01*
X161578571Y-73216666D01*
X161697619Y-73216666D01*
X161745238Y-73240476D01*
X161769047Y-73264285D01*
X161792857Y-73311904D01*
X161792857Y-73430952D01*
X161769047Y-73478571D01*
X161745238Y-73502380D01*
X161697619Y-73526190D01*
X161578571Y-73526190D01*
X161530952Y-73502380D01*
X161507142Y-73478571D01*
%TO.C,C15*%
X153970735Y-69178571D02*
X153946925Y-69202380D01*
X153875497Y-69226190D01*
X153827878Y-69226190D01*
X153756449Y-69202380D01*
X153708830Y-69154761D01*
X153685021Y-69107142D01*
X153661211Y-69011904D01*
X153661211Y-68940476D01*
X153685021Y-68845238D01*
X153708830Y-68797619D01*
X153756449Y-68750000D01*
X153827878Y-68726190D01*
X153875497Y-68726190D01*
X153946925Y-68750000D01*
X153970735Y-68773809D01*
X154446925Y-69226190D02*
X154161211Y-69226190D01*
X154304068Y-69226190D02*
X154304068Y-68726190D01*
X154256449Y-68797619D01*
X154208830Y-68845238D01*
X154161211Y-68869047D01*
X154899306Y-68726190D02*
X154661211Y-68726190D01*
X154637402Y-68964285D01*
X154661211Y-68940476D01*
X154708830Y-68916666D01*
X154827878Y-68916666D01*
X154875497Y-68940476D01*
X154899306Y-68964285D01*
X154923116Y-69011904D01*
X154923116Y-69130952D01*
X154899306Y-69178571D01*
X154875497Y-69202380D01*
X154827878Y-69226190D01*
X154708830Y-69226190D01*
X154661211Y-69202380D01*
X154637402Y-69178571D01*
D11*
%TO.C,U1*%
X177438095Y-66452380D02*
X177438095Y-67261904D01*
X177485714Y-67357142D01*
X177533333Y-67404761D01*
X177628571Y-67452380D01*
X177819047Y-67452380D01*
X177914285Y-67404761D01*
X177961904Y-67357142D01*
X178009523Y-67261904D01*
X178009523Y-66452380D01*
X179009523Y-67452380D02*
X178438095Y-67452380D01*
X178723809Y-67452380D02*
X178723809Y-66452380D01*
X178628571Y-66595238D01*
X178533333Y-66690476D01*
X178438095Y-66738095D01*
%TO.C,J2*%
X145666666Y-61452380D02*
X145666666Y-62166666D01*
X145619047Y-62309523D01*
X145523809Y-62404761D01*
X145380952Y-62452380D01*
X145285714Y-62452380D01*
X146095238Y-61547619D02*
X146142857Y-61500000D01*
X146238095Y-61452380D01*
X146476190Y-61452380D01*
X146571428Y-61500000D01*
X146619047Y-61547619D01*
X146666666Y-61642857D01*
X146666666Y-61738095D01*
X146619047Y-61880952D01*
X146047619Y-62452380D01*
X146666666Y-62452380D01*
D10*
%TO.C,JP1*%
X147108333Y-75601190D02*
X147108333Y-75958333D01*
X147084523Y-76029761D01*
X147036904Y-76077380D01*
X146965476Y-76101190D01*
X146917857Y-76101190D01*
X147346428Y-76101190D02*
X147346428Y-75601190D01*
X147536904Y-75601190D01*
X147584523Y-75625000D01*
X147608333Y-75648809D01*
X147632142Y-75696428D01*
X147632142Y-75767857D01*
X147608333Y-75815476D01*
X147584523Y-75839285D01*
X147536904Y-75863095D01*
X147346428Y-75863095D01*
X148108333Y-76101190D02*
X147822619Y-76101190D01*
X147965476Y-76101190D02*
X147965476Y-75601190D01*
X147917857Y-75672619D01*
X147870238Y-75720238D01*
X147822619Y-75744047D01*
%TO.C,C3*%
X156666666Y-72303571D02*
X156642857Y-72327380D01*
X156571428Y-72351190D01*
X156523809Y-72351190D01*
X156452380Y-72327380D01*
X156404761Y-72279761D01*
X156380952Y-72232142D01*
X156357142Y-72136904D01*
X156357142Y-72065476D01*
X156380952Y-71970238D01*
X156404761Y-71922619D01*
X156452380Y-71875000D01*
X156523809Y-71851190D01*
X156571428Y-71851190D01*
X156642857Y-71875000D01*
X156666666Y-71898809D01*
X156833333Y-71851190D02*
X157142857Y-71851190D01*
X156976190Y-72041666D01*
X157047619Y-72041666D01*
X157095238Y-72065476D01*
X157119047Y-72089285D01*
X157142857Y-72136904D01*
X157142857Y-72255952D01*
X157119047Y-72303571D01*
X157095238Y-72327380D01*
X157047619Y-72351190D01*
X156904761Y-72351190D01*
X156857142Y-72327380D01*
X156833333Y-72303571D01*
%TO.C,R1*%
X165616666Y-65176190D02*
X165450000Y-64938095D01*
X165330952Y-65176190D02*
X165330952Y-64676190D01*
X165521428Y-64676190D01*
X165569047Y-64700000D01*
X165592857Y-64723809D01*
X165616666Y-64771428D01*
X165616666Y-64842857D01*
X165592857Y-64890476D01*
X165569047Y-64914285D01*
X165521428Y-64938095D01*
X165330952Y-64938095D01*
X166092857Y-65176190D02*
X165807142Y-65176190D01*
X165950000Y-65176190D02*
X165950000Y-64676190D01*
X165902380Y-64747619D01*
X165854761Y-64795238D01*
X165807142Y-64819047D01*
%TO.C,C10*%
X166678571Y-73003571D02*
X166654761Y-73027380D01*
X166583333Y-73051190D01*
X166535714Y-73051190D01*
X166464285Y-73027380D01*
X166416666Y-72979761D01*
X166392857Y-72932142D01*
X166369047Y-72836904D01*
X166369047Y-72765476D01*
X166392857Y-72670238D01*
X166416666Y-72622619D01*
X166464285Y-72575000D01*
X166535714Y-72551190D01*
X166583333Y-72551190D01*
X166654761Y-72575000D01*
X166678571Y-72598809D01*
X167154761Y-73051190D02*
X166869047Y-73051190D01*
X167011904Y-73051190D02*
X167011904Y-72551190D01*
X166964285Y-72622619D01*
X166916666Y-72670238D01*
X166869047Y-72694047D01*
X167464285Y-72551190D02*
X167511904Y-72551190D01*
X167559523Y-72575000D01*
X167583333Y-72598809D01*
X167607142Y-72646428D01*
X167630952Y-72741666D01*
X167630952Y-72860714D01*
X167607142Y-72955952D01*
X167583333Y-73003571D01*
X167559523Y-73027380D01*
X167511904Y-73051190D01*
X167464285Y-73051190D01*
X167416666Y-73027380D01*
X167392857Y-73003571D01*
X167369047Y-72955952D01*
X167345238Y-72860714D01*
X167345238Y-72741666D01*
X167369047Y-72646428D01*
X167392857Y-72598809D01*
X167416666Y-72575000D01*
X167464285Y-72551190D01*
%TO.C,R3*%
X158966666Y-70426190D02*
X158800000Y-70188095D01*
X158680952Y-70426190D02*
X158680952Y-69926190D01*
X158871428Y-69926190D01*
X158919047Y-69950000D01*
X158942857Y-69973809D01*
X158966666Y-70021428D01*
X158966666Y-70092857D01*
X158942857Y-70140476D01*
X158919047Y-70164285D01*
X158871428Y-70188095D01*
X158680952Y-70188095D01*
X159133333Y-69926190D02*
X159442857Y-69926190D01*
X159276190Y-70116666D01*
X159347619Y-70116666D01*
X159395238Y-70140476D01*
X159419047Y-70164285D01*
X159442857Y-70211904D01*
X159442857Y-70330952D01*
X159419047Y-70378571D01*
X159395238Y-70402380D01*
X159347619Y-70426190D01*
X159204761Y-70426190D01*
X159157142Y-70402380D01*
X159133333Y-70378571D01*
%TO.C,C11*%
X153503571Y-74653571D02*
X153479761Y-74677380D01*
X153408333Y-74701190D01*
X153360714Y-74701190D01*
X153289285Y-74677380D01*
X153241666Y-74629761D01*
X153217857Y-74582142D01*
X153194047Y-74486904D01*
X153194047Y-74415476D01*
X153217857Y-74320238D01*
X153241666Y-74272619D01*
X153289285Y-74225000D01*
X153360714Y-74201190D01*
X153408333Y-74201190D01*
X153479761Y-74225000D01*
X153503571Y-74248809D01*
X153979761Y-74701190D02*
X153694047Y-74701190D01*
X153836904Y-74701190D02*
X153836904Y-74201190D01*
X153789285Y-74272619D01*
X153741666Y-74320238D01*
X153694047Y-74344047D01*
X154455952Y-74701190D02*
X154170238Y-74701190D01*
X154313095Y-74701190D02*
X154313095Y-74201190D01*
X154265476Y-74272619D01*
X154217857Y-74320238D01*
X154170238Y-74344047D01*
D11*
%TO.C,SW1*%
X167416666Y-99529761D02*
X167559523Y-99577380D01*
X167797619Y-99577380D01*
X167892857Y-99529761D01*
X167940476Y-99482142D01*
X167988095Y-99386904D01*
X167988095Y-99291666D01*
X167940476Y-99196428D01*
X167892857Y-99148809D01*
X167797619Y-99101190D01*
X167607142Y-99053571D01*
X167511904Y-99005952D01*
X167464285Y-98958333D01*
X167416666Y-98863095D01*
X167416666Y-98767857D01*
X167464285Y-98672619D01*
X167511904Y-98625000D01*
X167607142Y-98577380D01*
X167845238Y-98577380D01*
X167988095Y-98625000D01*
X168321428Y-98577380D02*
X168559523Y-99577380D01*
X168750000Y-98863095D01*
X168940476Y-99577380D01*
X169178571Y-98577380D01*
X170083333Y-99577380D02*
X169511904Y-99577380D01*
X169797619Y-99577380D02*
X169797619Y-98577380D01*
X169702380Y-98720238D01*
X169607142Y-98815476D01*
X169511904Y-98863095D01*
D12*
%TO.C,C7*%
X165310000Y-81107836D02*
X165310000Y-80892164D01*
X164590000Y-81107836D02*
X164590000Y-80892164D01*
%TO.C,C13*%
X164317164Y-74865000D02*
X164532836Y-74865000D01*
X164317164Y-75585000D02*
X164532836Y-75585000D01*
%TO.C,C2*%
X168710000Y-61509420D02*
X168710000Y-61790580D01*
X167690000Y-61509420D02*
X167690000Y-61790580D01*
%TO.C,C9*%
X153490000Y-79467164D02*
X153490000Y-79682836D01*
X154210000Y-79467164D02*
X154210000Y-79682836D01*
%TO.C,C6*%
X164292164Y-77960000D02*
X164507836Y-77960000D01*
X164292164Y-77240000D02*
X164507836Y-77240000D01*
%TO.C,C8*%
X164317164Y-76785000D02*
X164532836Y-76785000D01*
X164317164Y-76065000D02*
X164532836Y-76065000D01*
%TO.C,Y1*%
X173200000Y-83450000D02*
X173200000Y-80150000D01*
X173200000Y-80150000D02*
X169200000Y-80150000D01*
%TO.C,R4*%
X159870000Y-68953641D02*
X159870000Y-68646359D01*
X160630000Y-68953641D02*
X160630000Y-68646359D01*
%TO.C,C4*%
X163440000Y-81107836D02*
X163440000Y-80892164D01*
X164160000Y-81107836D02*
X164160000Y-80892164D01*
%TO.C,SW2*%
X156800000Y-98000000D02*
X156800000Y-83800000D01*
X156800000Y-83800000D02*
X142600000Y-83800000D01*
X142600000Y-83800000D02*
X142600000Y-98000000D01*
X142600000Y-98000000D02*
X156800000Y-98000000D01*
%TO.C,U2*%
X155990000Y-81410000D02*
X155340000Y-81410000D01*
X155990000Y-74190000D02*
X155340000Y-74190000D01*
X155340000Y-81410000D02*
X155340000Y-80760000D01*
X162560000Y-81410000D02*
X162560000Y-80760000D01*
X161910000Y-81410000D02*
X162560000Y-81410000D01*
X162560000Y-74190000D02*
X162560000Y-74840000D01*
X161910000Y-74190000D02*
X162560000Y-74190000D01*
%TO.C,U3*%
X144925000Y-69025000D02*
X144925000Y-69285000D01*
X147650000Y-69025000D02*
X144925000Y-69025000D01*
X150375000Y-69025000D02*
X150375000Y-69285000D01*
X150375000Y-74475000D02*
X150375000Y-74215000D01*
X147650000Y-74475000D02*
X144925000Y-74475000D01*
X144925000Y-69285000D02*
X143250000Y-69285000D01*
X147650000Y-69025000D02*
X150375000Y-69025000D01*
X147650000Y-74475000D02*
X150375000Y-74475000D01*
X144925000Y-74475000D02*
X144925000Y-74215000D01*
%TO.C,C16*%
X168260000Y-82187836D02*
X168260000Y-81972164D01*
X167540000Y-82187836D02*
X167540000Y-81972164D01*
%TO.C,C1*%
X178710000Y-61509420D02*
X178710000Y-61790580D01*
X177690000Y-61509420D02*
X177690000Y-61790580D01*
%TO.C,C14*%
X158360000Y-70907836D02*
X158360000Y-70692164D01*
X157640000Y-70907836D02*
X157640000Y-70692164D01*
%TO.C,C12*%
X164317164Y-74385000D02*
X164532836Y-74385000D01*
X164317164Y-73665000D02*
X164532836Y-73665000D01*
%TO.C,R5*%
X150820000Y-77343641D02*
X150820000Y-77036359D01*
X151580000Y-77343641D02*
X151580000Y-77036359D01*
%TO.C,R6*%
X166220000Y-81946359D02*
X166220000Y-82253641D01*
X166980000Y-81946359D02*
X166980000Y-82253641D01*
%TO.C,C17*%
X173565000Y-81167164D02*
X173565000Y-81382836D01*
X174285000Y-81167164D02*
X174285000Y-81382836D01*
%TO.C,J1*%
X164200000Y-58100000D02*
X154800000Y-58100000D01*
X164200000Y-63900000D02*
X164200000Y-61900000D01*
X154800000Y-60000000D02*
X154800000Y-58100000D01*
X154800000Y-63900000D02*
X154800000Y-61900000D01*
X164200000Y-60000000D02*
X164200000Y-58100000D01*
%TO.C,R2*%
X153020000Y-66478641D02*
X153020000Y-66171359D01*
X153780000Y-66478641D02*
X153780000Y-66171359D01*
%TO.C,C5*%
X161040000Y-72157836D02*
X161040000Y-71942164D01*
X161760000Y-72157836D02*
X161760000Y-71942164D01*
%TO.C,C15*%
X154292164Y-69440000D02*
X154507836Y-69440000D01*
X154292164Y-70160000D02*
X154507836Y-70160000D01*
%TO.C,U1*%
X169790000Y-63650000D02*
X169790000Y-67410000D01*
X176610000Y-67410000D02*
X175350000Y-67410000D01*
X169790000Y-67410000D02*
X171050000Y-67410000D01*
X176610000Y-61400000D02*
X176610000Y-67410000D01*
%TO.C,JP1*%
X146100000Y-76525000D02*
X148900000Y-76525000D01*
X148900000Y-76525000D02*
X148900000Y-78525000D01*
X148900000Y-78525000D02*
X146100000Y-78525000D01*
X146100000Y-78525000D02*
X146100000Y-76525000D01*
%TO.C,C3*%
X156440000Y-70907836D02*
X156440000Y-70692164D01*
X157160000Y-70907836D02*
X157160000Y-70692164D01*
%TO.C,R1*%
X166080000Y-66478641D02*
X166080000Y-66171359D01*
X165320000Y-66478641D02*
X165320000Y-66171359D01*
%TO.C,C10*%
X164292164Y-72440000D02*
X164507836Y-72440000D01*
X164292164Y-73160000D02*
X164507836Y-73160000D01*
%TO.C,R3*%
X159430000Y-68646359D02*
X159430000Y-68953641D01*
X158670000Y-68646359D02*
X158670000Y-68953641D01*
%TO.C,C11*%
X153490000Y-75667164D02*
X153490000Y-75882836D01*
X154210000Y-75667164D02*
X154210000Y-75882836D01*
%TO.C,SW1*%
X161650000Y-98000000D02*
X175850000Y-98000000D01*
X175850000Y-83800000D02*
X161650000Y-83800000D01*
X161650000Y-83800000D02*
X161650000Y-98000000D01*
X175850000Y-98000000D02*
X175850000Y-83800000D01*
%TD*%
M02*
