%TF.GenerationSoftware,KiCad,Pcbnew,(6.0.7)*%
%TF.CreationDate,2022-09-14T15:08:01+02:00*%
%TF.ProjectId,rp2040-keypad,72703230-3430-42d6-9b65-797061642e6b,rev?*%
%TF.SameCoordinates,Original*%
%TF.FileFunction,Paste,Top*%
%TF.FilePolarity,Positive*%
%FSLAX46Y46*%
G04 Gerber Fmt 4.6, Leading zero omitted, Abs format (unit mm)*
G04 Created by KiCad (PCBNEW (6.0.7)) date 2022-09-14 15:08:01*
%MOMM*%
%LPD*%
G01*
G04 APERTURE LIST*
G04 Aperture macros list*
%AMRoundRect*
0 Rectangle with rounded corners*
0 $1 Rounding radius*
0 $2 $3 $4 $5 $6 $7 $8 $9 X,Y pos of 4 corners*
0 Add a 4 corners polygon primitive as box body*
4,1,4,$2,$3,$4,$5,$6,$7,$8,$9,$2,$3,0*
0 Add four circle primitives for the rounded corners*
1,1,$1+$1,$2,$3*
1,1,$1+$1,$4,$5*
1,1,$1+$1,$6,$7*
1,1,$1+$1,$8,$9*
0 Add four rect primitives between the rounded corners*
20,1,$1+$1,$2,$3,$4,$5,0*
20,1,$1+$1,$4,$5,$6,$7,0*
20,1,$1+$1,$6,$7,$8,$9,0*
20,1,$1+$1,$8,$9,$2,$3,0*%
G04 Aperture macros list end*
%ADD10RoundRect,0.140000X0.170000X-0.140000X0.170000X0.140000X-0.170000X0.140000X-0.170000X-0.140000X0*%
%ADD11RoundRect,0.140000X-0.140000X-0.170000X0.140000X-0.170000X0.140000X0.170000X-0.140000X0.170000X0*%
%ADD12RoundRect,0.225000X-0.250000X0.225000X-0.250000X-0.225000X0.250000X-0.225000X0.250000X0.225000X0*%
%ADD13RoundRect,0.140000X-0.170000X0.140000X-0.170000X-0.140000X0.170000X-0.140000X0.170000X0.140000X0*%
%ADD14R,1.400000X1.200000*%
%ADD15RoundRect,0.135000X0.185000X-0.135000X0.185000X0.135000X-0.185000X0.135000X-0.185000X-0.135000X0*%
%ADD16RoundRect,0.249999X-0.395001X-0.395001X0.395001X-0.395001X0.395001X0.395001X-0.395001X0.395001X0*%
%ADD17RoundRect,0.050000X-0.387500X-0.050000X0.387500X-0.050000X0.387500X0.050000X-0.387500X0.050000X0*%
%ADD18RoundRect,0.050000X-0.050000X-0.387500X0.050000X-0.387500X0.050000X0.387500X-0.050000X0.387500X0*%
%ADD19RoundRect,0.150000X-0.650000X-0.150000X0.650000X-0.150000X0.650000X0.150000X-0.650000X0.150000X0*%
%ADD20RoundRect,0.135000X-0.185000X0.135000X-0.185000X-0.135000X0.185000X-0.135000X0.185000X0.135000X0*%
%ADD21R,0.600000X1.450000*%
%ADD22R,0.300000X1.450000*%
%ADD23R,1.500000X2.000000*%
%ADD24R,3.800000X2.000000*%
G04 APERTURE END LIST*
D10*
%TO.C,C7*%
X164950000Y-81480000D03*
X164950000Y-80520000D03*
%TD*%
D11*
%TO.C,C13*%
X163945000Y-75225000D03*
X164905000Y-75225000D03*
%TD*%
D12*
%TO.C,C2*%
X168200000Y-60875000D03*
X168200000Y-62425000D03*
%TD*%
D13*
%TO.C,C9*%
X153850000Y-79095000D03*
X153850000Y-80055000D03*
%TD*%
D11*
%TO.C,C6*%
X163920000Y-77600000D03*
X164880000Y-77600000D03*
%TD*%
%TO.C,C8*%
X163945000Y-76425000D03*
X164905000Y-76425000D03*
%TD*%
D14*
%TO.C,Y1*%
X172300000Y-80950000D03*
X170100000Y-80950000D03*
X170100000Y-82650000D03*
X172300000Y-82650000D03*
%TD*%
D15*
%TO.C,R4*%
X160250000Y-69310000D03*
X160250000Y-68290000D03*
%TD*%
D10*
%TO.C,C4*%
X163800000Y-81480000D03*
X163800000Y-80520000D03*
%TD*%
D16*
%TO.C,U2*%
X159750000Y-77000000D03*
X158150000Y-78600000D03*
X158150000Y-77000000D03*
X159750000Y-78600000D03*
D17*
X155512500Y-75200000D03*
X155512500Y-75600000D03*
X155512500Y-76000000D03*
X155512500Y-76400000D03*
X155512500Y-76800000D03*
X155512500Y-77200000D03*
X155512500Y-77600000D03*
X155512500Y-78000000D03*
X155512500Y-78400000D03*
X155512500Y-78800000D03*
X155512500Y-79200000D03*
X155512500Y-79600000D03*
X155512500Y-80000000D03*
X155512500Y-80400000D03*
D18*
X156350000Y-81237500D03*
X156750000Y-81237500D03*
X157150000Y-81237500D03*
X157550000Y-81237500D03*
X157950000Y-81237500D03*
X158350000Y-81237500D03*
X158750000Y-81237500D03*
X159150000Y-81237500D03*
X159550000Y-81237500D03*
X159950000Y-81237500D03*
X160350000Y-81237500D03*
X160750000Y-81237500D03*
X161150000Y-81237500D03*
X161550000Y-81237500D03*
D17*
X162387500Y-80400000D03*
X162387500Y-80000000D03*
X162387500Y-79600000D03*
X162387500Y-79200000D03*
X162387500Y-78800000D03*
X162387500Y-78400000D03*
X162387500Y-78000000D03*
X162387500Y-77600000D03*
X162387500Y-77200000D03*
X162387500Y-76800000D03*
X162387500Y-76400000D03*
X162387500Y-76000000D03*
X162387500Y-75600000D03*
X162387500Y-75200000D03*
D18*
X161550000Y-74362500D03*
X161150000Y-74362500D03*
X160750000Y-74362500D03*
X160350000Y-74362500D03*
X159950000Y-74362500D03*
X159550000Y-74362500D03*
X159150000Y-74362500D03*
X158750000Y-74362500D03*
X158350000Y-74362500D03*
X157950000Y-74362500D03*
X157550000Y-74362500D03*
X157150000Y-74362500D03*
X156750000Y-74362500D03*
X156350000Y-74362500D03*
%TD*%
D19*
%TO.C,U3*%
X144050000Y-69845000D03*
X144050000Y-71115000D03*
X144050000Y-72385000D03*
X144050000Y-73655000D03*
X151250000Y-73655000D03*
X151250000Y-72385000D03*
X151250000Y-71115000D03*
X151250000Y-69845000D03*
%TD*%
D10*
%TO.C,C16*%
X167900000Y-82560000D03*
X167900000Y-81600000D03*
%TD*%
D12*
%TO.C,C1*%
X178200000Y-60875000D03*
X178200000Y-62425000D03*
%TD*%
D10*
%TO.C,C14*%
X158000000Y-71280000D03*
X158000000Y-70320000D03*
%TD*%
D11*
%TO.C,C12*%
X163945000Y-74025000D03*
X164905000Y-74025000D03*
%TD*%
D15*
%TO.C,R5*%
X151200000Y-77700000D03*
X151200000Y-76680000D03*
%TD*%
D20*
%TO.C,R6*%
X166600000Y-81590000D03*
X166600000Y-82610000D03*
%TD*%
D13*
%TO.C,C17*%
X173925000Y-80795000D03*
X173925000Y-81755000D03*
%TD*%
D21*
%TO.C,J1*%
X162750000Y-66045000D03*
X161950000Y-66045000D03*
D22*
X160750000Y-66045000D03*
X159750000Y-66045000D03*
X159250000Y-66045000D03*
X158250000Y-66045000D03*
D21*
X157050000Y-66045000D03*
X156250000Y-66045000D03*
X156250000Y-66045000D03*
X157050000Y-66045000D03*
D22*
X157750000Y-66045000D03*
X158750000Y-66045000D03*
X160250000Y-66045000D03*
X161250000Y-66045000D03*
D21*
X161950000Y-66045000D03*
X162750000Y-66045000D03*
%TD*%
D15*
%TO.C,R2*%
X153400000Y-66835000D03*
X153400000Y-65815000D03*
%TD*%
D10*
%TO.C,C5*%
X161400000Y-72530000D03*
X161400000Y-71570000D03*
%TD*%
D11*
%TO.C,C15*%
X153920000Y-69800000D03*
X154880000Y-69800000D03*
%TD*%
D23*
%TO.C,U1*%
X175500000Y-62350000D03*
X173200000Y-62350000D03*
D24*
X173200000Y-68650000D03*
D23*
X170900000Y-62350000D03*
%TD*%
D10*
%TO.C,C3*%
X156800000Y-71280000D03*
X156800000Y-70320000D03*
%TD*%
D15*
%TO.C,R1*%
X165700000Y-66835000D03*
X165700000Y-65815000D03*
%TD*%
D11*
%TO.C,C10*%
X163920000Y-72800000D03*
X164880000Y-72800000D03*
%TD*%
D20*
%TO.C,R3*%
X159050000Y-68290000D03*
X159050000Y-69310000D03*
%TD*%
D13*
%TO.C,C11*%
X153850000Y-75295000D03*
X153850000Y-76255000D03*
%TD*%
M02*
