M48
; DRILL file {KiCad (6.0.7)} date Wed Sep 14 15:07:52 2022
; FORMAT={-:-/ absolute / metric / decimal}
; #@! TF.CreationDate,2022-09-14T15:07:52+02:00
; #@! TF.GenerationSoftware,Kicad,Pcbnew,(6.0.7)
; #@! TF.FileFunction,Plated,1,4,PTH
FMAT,2
METRIC
; #@! TA.AperFunction,Plated,PTH,ViaDrill
T1C0.200
; #@! TA.AperFunction,Plated,PTH,ViaDrill
T2C0.350
; #@! TA.AperFunction,Plated,PTH,ViaDrill
T3C0.400
; #@! TA.AperFunction,Plated,PTH,ComponentDrill
T4C0.600
; #@! TA.AperFunction,Plated,PTH,ComponentDrill
T5C1.500
%
G90
G05
T1
X145.8Y-71.2
X149.4Y-74.0
X149.4Y-75.2
X153.8Y-77.0
X153.8Y-80.8
X156.445Y-75.4
X156.7Y-78.0
X156.8Y-69.4
X157.4Y-75.4
X158.0Y-69.4
X158.4Y-75.4
X158.8Y-80.2
X159.2Y-75.4
X159.8Y-79.85
X160.4Y-75.4
X160.606Y-79.846
X161.175Y-80.35
X161.2Y-75.4
X161.4Y-70.8
X161.5Y-78.3
X165.8Y-72.8
X165.8Y-74.0
X165.8Y-75.2
X165.8Y-76.4
X165.8Y-77.6
T2
X142.6Y-73.6
X145.4Y-77.6
X151.4Y-65.8
X152.4Y-65.8
X152.8Y-79.4
X153.0Y-69.8
X155.2Y-70.8
X155.4Y-67.0
X157.7Y-76.6
X157.7Y-79.0
X157.8Y-80.2
X158.9Y-77.7
X160.2Y-76.6
X160.2Y-79.0
X162.6Y-72.8
X163.6Y-67.0
X163.8Y-79.0
X165.7Y-64.3
X166.15Y-78.6
X168.1Y-63.45
X168.35Y-78.6
X168.5Y-80.7
X170.15Y-79.8
X170.55Y-78.501
X172.95Y-78.6
X173.9Y-82.8
X174.55Y-60.45
X175.4Y-64.0
X175.75Y-78.6
X175.75Y-80.275
X175.75Y-82.475
X178.1Y-63.65
T3
X170.25Y-68.65
T4
X140.6Y-64.0
X144.2Y-64.0
X147.8Y-64.0
X151.4Y-64.0
T5
X145.89Y-88.36
X152.24Y-85.82
X164.94Y-88.36
X171.29Y-85.82
T4
G00X155.18Y-61.25
M15
G01X155.18Y-60.65
M16
G05
G00X155.18Y-65.68
M15
G01X155.18Y-64.58
M16
G05
G00X163.82Y-61.25
M15
G01X163.82Y-60.65
M16
G05
G00X163.82Y-65.68
M15
G01X163.82Y-64.58
M16
G05
T0
M30
